G04 #@! TF.GenerationSoftware,KiCad,Pcbnew,9.0.3*
G04 #@! TF.CreationDate,2025-08-05T11:28:11+01:00*
G04 #@! TF.ProjectId,Badge ESC 2025,42616467-6520-4455-9343-20323032352e,rev?*
G04 #@! TF.SameCoordinates,Original*
G04 #@! TF.FileFunction,Soldermask,Bot*
G04 #@! TF.FilePolarity,Negative*
%FSLAX46Y46*%
G04 Gerber Fmt 4.6, Leading zero omitted, Abs format (unit mm)*
G04 Created by KiCad (PCBNEW 9.0.3) date 2025-08-05 11:28:11*
%MOMM*%
%LPD*%
G01*
G04 APERTURE LIST*
G04 Aperture macros list*
%AMRoundRect*
0 Rectangle with rounded corners*
0 $1 Rounding radius*
0 $2 $3 $4 $5 $6 $7 $8 $9 X,Y pos of 4 corners*
0 Add a 4 corners polygon primitive as box body*
4,1,4,$2,$3,$4,$5,$6,$7,$8,$9,$2,$3,0*
0 Add four circle primitives for the rounded corners*
1,1,$1+$1,$2,$3*
1,1,$1+$1,$4,$5*
1,1,$1+$1,$6,$7*
1,1,$1+$1,$8,$9*
0 Add four rect primitives between the rounded corners*
20,1,$1+$1,$2,$3,$4,$5,0*
20,1,$1+$1,$4,$5,$6,$7,0*
20,1,$1+$1,$6,$7,$8,$9,0*
20,1,$1+$1,$8,$9,$2,$3,0*%
%AMRotRect*
0 Rectangle, with rotation*
0 The origin of the aperture is its center*
0 $1 length*
0 $2 width*
0 $3 Rotation angle, in degrees counterclockwise*
0 Add horizontal line*
21,1,$1,$2,0,0,$3*%
%AMFreePoly0*
4,1,203,0.732361,0.904721,0.741803,0.900000,0.750000,0.900000,0.785355,0.885355,0.789617,0.881093,0.802361,0.874721,0.815355,0.865355,0.819617,0.861093,0.832361,0.854721,0.845355,0.845355,0.855355,0.835355,0.864721,0.822361,0.871093,0.809617,0.875355,0.805355,0.890000,0.770000,0.890000,0.761803,0.894721,0.752361,0.900000,0.730000,0.900000,0.680000,0.894721,0.657639,
0.890000,0.648197,0.890000,0.640000,0.875355,0.604645,0.871093,0.600383,0.864721,0.587639,0.855355,0.574645,0.845355,0.564645,0.832361,0.555279,0.819617,0.548907,0.815355,0.544645,0.802361,0.535279,0.789617,0.528907,0.785355,0.524645,0.750000,0.510000,0.741803,0.510000,0.732361,0.505279,0.710000,0.500000,0.636155,0.500000,0.602127,0.491493,0.590000,0.490000,
0.568113,0.490000,0.522166,0.474684,0.497735,0.458397,0.485811,0.452566,0.462166,0.444684,0.381851,0.391141,0.365355,0.374645,0.357735,0.368397,0.336055,0.353944,0.321603,0.332265,0.315355,0.324645,0.298859,0.308149,0.265315,0.257834,0.257434,0.234189,0.251603,0.222265,0.235315,0.197834,0.228042,0.176013,0.218507,0.137873,0.217434,0.134189,0.200000,0.081887,
0.200000,-0.071887,0.217434,-0.124189,0.218507,-0.127873,0.228042,-0.166013,0.235315,-0.187834,0.251603,-0.212265,0.257434,-0.224189,0.265315,-0.247834,0.278859,-0.268149,0.295355,-0.284645,0.301603,-0.292265,0.336055,-0.343944,0.357735,-0.358397,0.365355,-0.364645,0.381851,-0.381141,0.462166,-0.434684,0.485811,-0.442566,0.497735,-0.448397,0.522166,-0.464684,0.568113,-0.480000,
0.590000,-0.480000,0.602127,-0.481493,0.636155,-0.490000,0.710000,-0.490000,0.732361,-0.495279,0.741803,-0.500000,0.750000,-0.500000,0.785355,-0.514645,0.789617,-0.518907,0.802361,-0.525279,0.815355,-0.534645,0.819617,-0.538907,0.832361,-0.545279,0.845355,-0.554645,0.855355,-0.564645,0.864721,-0.577639,0.871093,-0.590383,0.875355,-0.594645,0.890000,-0.630000,0.890000,-0.638197,
0.894721,-0.647639,0.900000,-0.670000,0.900000,-0.720000,0.894721,-0.742361,0.890000,-0.751803,0.890000,-0.760000,0.875355,-0.795355,0.871093,-0.799617,0.864721,-0.812361,0.855355,-0.825355,0.845355,-0.835355,0.832361,-0.844721,0.819617,-0.851093,0.815355,-0.855355,0.802361,-0.864721,0.789617,-0.871093,0.785355,-0.875355,0.750000,-0.890000,0.741803,-0.890000,0.732361,-0.894721,
0.710000,-0.900000,0.650000,-0.900000,0.637873,-0.898507,0.603845,-0.890000,0.570000,-0.890000,0.557873,-0.888507,0.397873,-0.848507,0.387639,-0.844721,0.352549,-0.827176,0.317873,-0.818507,0.307639,-0.814721,0.267639,-0.794721,0.262265,-0.791603,0.232265,-0.771603,0.230000,-0.770000,0.191116,-0.740837,0.162265,-0.721603,0.160000,-0.720000,0.121116,-0.690837,0.092265,-0.671603,
0.084645,-0.665355,0.024645,-0.605355,0.018397,-0.597735,-0.000837,-0.568884,-0.030000,-0.530000,-0.031603,-0.527735,-0.050837,-0.498884,-0.080000,-0.460000,-0.081603,-0.457735,-0.101603,-0.427735,-0.104721,-0.422361,-0.124721,-0.382361,-0.128507,-0.372127,-0.137176,-0.337451,-0.154721,-0.302361,-0.158507,-0.292127,-0.198507,-0.132127,-0.200000,-0.120000,-0.200000,-0.086155,-0.208507,-0.052127,
-0.210000,-0.040000,-0.210000,0.050000,-0.208507,0.062127,-0.200000,0.096155,-0.200000,0.130000,-0.198507,0.142127,-0.158507,0.302127,-0.154721,0.312361,-0.137176,0.347451,-0.128507,0.382127,-0.124721,0.392361,-0.104721,0.432361,-0.101603,0.437735,-0.081603,0.467735,-0.080000,0.470000,-0.050837,0.508884,-0.031603,0.537735,-0.030000,0.540000,-0.000837,0.578884,0.018397,0.607735,
0.024645,0.615355,0.084645,0.675355,0.092265,0.681603,0.121116,0.700837,0.160000,0.730000,0.162265,0.731603,0.191116,0.750837,0.230000,0.780000,0.232265,0.781603,0.262265,0.801603,0.267639,0.804721,0.307639,0.824721,0.317873,0.828507,0.352549,0.837176,0.387639,0.854721,0.397873,0.858507,0.557873,0.898507,0.570000,0.900000,0.603845,0.900000,0.637873,0.908507,
0.650000,0.910000,0.710000,0.910000,0.732361,0.904721,0.732361,0.904721,$1*%
%AMFreePoly1*
4,1,201,-0.647873,0.908507,-0.613845,0.900000,-0.580000,0.900000,-0.567873,0.898507,-0.407873,0.858507,-0.397639,0.854721,-0.362549,0.837176,-0.327873,0.828507,-0.317639,0.824721,-0.277639,0.804721,-0.272265,0.801603,-0.242265,0.781603,-0.240000,0.780000,-0.201116,0.750837,-0.172265,0.731603,-0.170000,0.730000,-0.131116,0.700837,-0.102265,0.681603,-0.094645,0.675355,-0.034645,0.615355,
-0.028397,0.607735,-0.009163,0.578884,0.020000,0.540000,0.021603,0.537735,0.040837,0.508884,0.070000,0.470000,0.071603,0.467735,0.091603,0.437735,0.094721,0.432361,0.114721,0.392361,0.118507,0.382127,0.127176,0.347451,0.144721,0.312361,0.148507,0.302127,0.188507,0.142127,0.190000,0.130000,0.190000,0.096155,0.198507,0.062127,0.200000,0.050000,0.200000,-0.040000,
0.198507,-0.052127,0.190000,-0.086155,0.190000,-0.120000,0.188507,-0.132127,0.148507,-0.292127,0.144721,-0.302361,0.127176,-0.337451,0.118507,-0.372127,0.114721,-0.382361,0.094721,-0.422361,0.091603,-0.427735,0.071603,-0.457735,0.070000,-0.460000,0.040837,-0.498884,0.021603,-0.527735,0.020000,-0.530000,-0.009163,-0.568884,-0.028397,-0.597735,-0.034645,-0.605355,-0.094645,-0.665355,
-0.102265,-0.671603,-0.131116,-0.690837,-0.170000,-0.720000,-0.172265,-0.721603,-0.201116,-0.740837,-0.240000,-0.770000,-0.242265,-0.771603,-0.272265,-0.791603,-0.277639,-0.794721,-0.317639,-0.814721,-0.327873,-0.818507,-0.362549,-0.827176,-0.397639,-0.844721,-0.407873,-0.848507,-0.567873,-0.888507,-0.580000,-0.890000,-0.613845,-0.890000,-0.647873,-0.898507,-0.660000,-0.900000,-0.720000,-0.900000,
-0.742361,-0.894721,-0.751803,-0.890000,-0.760000,-0.890000,-0.795355,-0.875355,-0.799617,-0.871093,-0.812361,-0.864721,-0.825355,-0.855355,-0.829617,-0.851093,-0.842361,-0.844721,-0.855355,-0.835355,-0.865355,-0.825355,-0.874721,-0.812361,-0.884721,-0.792361,-0.889193,-0.773415,-0.894721,-0.762361,-0.900000,-0.740000,-0.900000,-0.731803,-0.904721,-0.722361,-0.910000,-0.700000,-0.910000,-0.690000,
-0.904721,-0.667639,-0.900000,-0.658197,-0.900000,-0.650000,-0.894721,-0.627639,-0.889193,-0.616584,-0.884721,-0.597639,-0.874721,-0.577639,-0.865355,-0.564645,-0.855355,-0.554645,-0.842361,-0.545279,-0.829617,-0.538907,-0.825355,-0.534645,-0.812361,-0.525279,-0.799617,-0.518907,-0.795355,-0.514645,-0.760000,-0.500000,-0.751803,-0.500000,-0.742361,-0.495279,-0.720000,-0.490000,-0.646155,-0.490000,
-0.612127,-0.481493,-0.600000,-0.480000,-0.578113,-0.480000,-0.532166,-0.464684,-0.507735,-0.448397,-0.495811,-0.442566,-0.472166,-0.434684,-0.391851,-0.381141,-0.375355,-0.364645,-0.367735,-0.358397,-0.346055,-0.343944,-0.311603,-0.292265,-0.305355,-0.284645,-0.288859,-0.268149,-0.255315,-0.217834,-0.238042,-0.166013,-0.228507,-0.127873,-0.227434,-0.124189,-0.210000,-0.071887,-0.210000,0.081887,
-0.227434,0.134189,-0.228507,0.137873,-0.238042,0.176013,-0.255315,0.227834,-0.308859,0.308149,-0.325355,0.324645,-0.331603,0.332265,-0.346055,0.353944,-0.367735,0.368397,-0.375355,0.374645,-0.391851,0.391141,-0.472166,0.444684,-0.495811,0.452566,-0.507735,0.458397,-0.532166,0.474684,-0.578113,0.490000,-0.600000,0.490000,-0.612127,0.491493,-0.646155,0.500000,-0.720000,0.500000,
-0.742361,0.505279,-0.751803,0.510000,-0.760000,0.510000,-0.795355,0.524645,-0.799617,0.528907,-0.812361,0.535279,-0.825355,0.544645,-0.829617,0.548907,-0.842361,0.555279,-0.855355,0.564645,-0.865355,0.574645,-0.874721,0.587639,-0.884721,0.607639,-0.889193,0.626584,-0.894721,0.637639,-0.900000,0.660000,-0.900000,0.668197,-0.904721,0.677639,-0.910000,0.700000,-0.910000,0.710000,
-0.904721,0.732361,-0.900000,0.741803,-0.900000,0.750000,-0.894721,0.772361,-0.889193,0.783415,-0.884721,0.802361,-0.874721,0.822361,-0.865355,0.835355,-0.855355,0.845355,-0.842361,0.854721,-0.829617,0.861093,-0.825355,0.865355,-0.812361,0.874721,-0.799617,0.881093,-0.795355,0.885355,-0.760000,0.900000,-0.751803,0.900000,-0.742361,0.904721,-0.720000,0.910000,-0.660000,0.910000,
-0.647873,0.908507,-0.647873,0.908507,$1*%
%AMFreePoly2*
4,1,23,0.550000,-0.750000,0.000000,-0.750000,0.000000,-0.745722,-0.065263,-0.745722,-0.191342,-0.711940,-0.304381,-0.646677,-0.396677,-0.554381,-0.461940,-0.441342,-0.495722,-0.315263,-0.495722,-0.250000,-0.500000,-0.250000,-0.500000,0.250000,-0.495722,0.250000,-0.495722,0.315263,-0.461940,0.441342,-0.396677,0.554381,-0.304381,0.646677,-0.191342,0.711940,-0.065263,0.745722,0.000000,0.745722,
0.000000,0.750000,0.550000,0.750000,0.550000,-0.750000,0.550000,-0.750000,$1*%
%AMFreePoly3*
4,1,23,0.000000,0.745722,0.065263,0.745722,0.191342,0.711940,0.304381,0.646677,0.396677,0.554381,0.461940,0.441342,0.495722,0.315263,0.495722,0.250000,0.500000,0.250000,0.500000,-0.250000,0.495722,-0.250000,0.495722,-0.315263,0.461940,-0.441342,0.396677,-0.554381,0.304381,-0.646677,0.191342,-0.711940,0.065263,-0.745722,0.000000,-0.745722,0.000000,-0.750000,-0.550000,-0.750000,
-0.550000,0.750000,0.000000,0.750000,0.000000,0.745722,0.000000,0.745722,$1*%
G04 Aperture macros list end*
%ADD10C,0.000000*%
%ADD11RoundRect,0.300000X-0.000010X0.000010X-0.000010X-0.000010X0.000010X-0.000010X0.000010X0.000010X0*%
%ADD12R,0.450000X0.450000*%
%ADD13RoundRect,0.135000X-0.135000X-0.185000X0.135000X-0.185000X0.135000X0.185000X-0.135000X0.185000X0*%
%ADD14O,9.600000X0.300000*%
%ADD15RoundRect,0.140000X0.170000X-0.140000X0.170000X0.140000X-0.170000X0.140000X-0.170000X-0.140000X0*%
%ADD16R,0.500000X0.280000*%
%ADD17R,0.280000X0.500000*%
%ADD18R,0.900000X0.800000*%
%ADD19RoundRect,0.140000X-0.140000X-0.170000X0.140000X-0.170000X0.140000X0.170000X-0.140000X0.170000X0*%
%ADD20RoundRect,0.140000X0.140000X0.170000X-0.140000X0.170000X-0.140000X-0.170000X0.140000X-0.170000X0*%
%ADD21RoundRect,0.200000X0.275000X-0.200000X0.275000X0.200000X-0.275000X0.200000X-0.275000X-0.200000X0*%
%ADD22RoundRect,0.135000X-0.185000X0.135000X-0.185000X-0.135000X0.185000X-0.135000X0.185000X0.135000X0*%
%ADD23RoundRect,0.147500X0.172500X-0.147500X0.172500X0.147500X-0.172500X0.147500X-0.172500X-0.147500X0*%
%ADD24RoundRect,0.100000X-0.125000X-0.100000X0.125000X-0.100000X0.125000X0.100000X-0.125000X0.100000X0*%
%ADD25RoundRect,0.147500X-0.147500X-0.172500X0.147500X-0.172500X0.147500X0.172500X-0.147500X0.172500X0*%
%ADD26C,1.000000*%
%ADD27RoundRect,0.140000X-0.170000X0.140000X-0.170000X-0.140000X0.170000X-0.140000X0.170000X0.140000X0*%
%ADD28RoundRect,0.135000X0.135000X0.185000X-0.135000X0.185000X-0.135000X-0.185000X0.135000X-0.185000X0*%
%ADD29O,0.300000X9.600000*%
%ADD30R,0.630000X0.220000*%
%ADD31R,0.300000X0.200000*%
%ADD32C,0.500000*%
%ADD33R,0.400000X0.600000*%
%ADD34FreePoly0,0.000000*%
%ADD35FreePoly1,0.000000*%
%ADD36RotRect,2.600000X1.100000X225.000000*%
%ADD37O,17.600000X0.600000*%
%ADD38O,0.600000X17.600000*%
%ADD39RoundRect,0.225000X-0.250000X0.225000X-0.250000X-0.225000X0.250000X-0.225000X0.250000X0.225000X0*%
%ADD40RotRect,2.600000X1.100000X45.000000*%
%ADD41RoundRect,0.200000X-0.275000X0.200000X-0.275000X-0.200000X0.275000X-0.200000X0.275000X0.200000X0*%
%ADD42RoundRect,0.150000X0.587500X0.150000X-0.587500X0.150000X-0.587500X-0.150000X0.587500X-0.150000X0*%
%ADD43R,0.600000X1.100000*%
%ADD44RoundRect,0.225000X0.225000X0.250000X-0.225000X0.250000X-0.225000X-0.250000X0.225000X-0.250000X0*%
%ADD45RotRect,2.600000X1.100000X315.000000*%
%ADD46R,1.100000X0.600000*%
%ADD47RoundRect,0.200000X-0.200000X-0.275000X0.200000X-0.275000X0.200000X0.275000X-0.200000X0.275000X0*%
%ADD48RoundRect,0.062500X-0.375000X-0.062500X0.375000X-0.062500X0.375000X0.062500X-0.375000X0.062500X0*%
%ADD49RoundRect,0.062500X-0.062500X-0.375000X0.062500X-0.375000X0.062500X0.375000X-0.062500X0.375000X0*%
%ADD50R,3.450000X3.450000*%
%ADD51C,0.900000*%
%ADD52R,1.520000X0.600000*%
%ADD53R,0.700000X1.200000*%
%ADD54FreePoly2,0.000000*%
%ADD55R,1.000000X1.500000*%
%ADD56FreePoly3,0.000000*%
%ADD57RoundRect,0.225000X0.250000X-0.225000X0.250000X0.225000X-0.250000X0.225000X-0.250000X-0.225000X0*%
%ADD58RotRect,2.600000X1.100000X135.000000*%
G04 APERTURE END LIST*
D10*
G36*
X126200770Y-71566642D02*
G01*
X126203115Y-71566783D01*
X126205514Y-71567038D01*
X126207972Y-71567407D01*
X126210489Y-71567896D01*
X126213056Y-71568497D01*
X126215683Y-71569215D01*
X126218366Y-71570047D01*
X126221110Y-71570996D01*
X126274223Y-71590331D01*
X126278993Y-71592241D01*
X126281220Y-71593268D01*
X126283339Y-71594348D01*
X126285358Y-71595475D01*
X126287265Y-71596647D01*
X126289073Y-71597875D01*
X126290773Y-71599148D01*
X126292369Y-71600470D01*
X126293854Y-71601844D01*
X126295240Y-71603267D01*
X126296521Y-71604736D01*
X126297689Y-71606258D01*
X126298756Y-71607827D01*
X126299714Y-71609448D01*
X126300568Y-71611115D01*
X126301317Y-71612830D01*
X126301960Y-71614600D01*
X126302492Y-71616417D01*
X126302922Y-71618285D01*
X126303246Y-71620199D01*
X126303464Y-71622166D01*
X126303576Y-71624180D01*
X126303576Y-71626246D01*
X126303469Y-71628358D01*
X126303263Y-71630527D01*
X126302947Y-71632739D01*
X126302520Y-71635007D01*
X126301990Y-71637321D01*
X126301351Y-71639682D01*
X126300605Y-71642100D01*
X126299754Y-71644563D01*
X126277163Y-71706623D01*
X126276971Y-71707177D01*
X126276806Y-71707715D01*
X126276661Y-71708250D01*
X126276540Y-71708774D01*
X126276445Y-71709281D01*
X126276373Y-71709781D01*
X126276325Y-71710268D01*
X126276298Y-71710748D01*
X126276296Y-71711212D01*
X126276318Y-71711666D01*
X126276363Y-71712106D01*
X126276435Y-71712545D01*
X126276528Y-71712964D01*
X126276647Y-71713376D01*
X126276788Y-71713773D01*
X126276952Y-71714159D01*
X126277141Y-71714538D01*
X126277355Y-71714904D01*
X126277590Y-71715258D01*
X126277850Y-71715602D01*
X126278135Y-71715934D01*
X126278445Y-71716256D01*
X126278775Y-71716569D01*
X126279130Y-71716865D01*
X126279513Y-71717154D01*
X126279914Y-71717428D01*
X126280346Y-71717693D01*
X126280799Y-71717947D01*
X126281274Y-71718188D01*
X126281774Y-71718425D01*
X126282295Y-71718645D01*
X126282843Y-71718852D01*
X126297468Y-71724174D01*
X126298024Y-71724366D01*
X126298568Y-71724532D01*
X126299096Y-71724679D01*
X126299620Y-71724798D01*
X126300130Y-71724893D01*
X126300626Y-71724965D01*
X126301114Y-71725013D01*
X126301593Y-71725035D01*
X126302055Y-71725039D01*
X126302511Y-71725012D01*
X126302953Y-71724967D01*
X126303382Y-71724897D01*
X126303802Y-71724796D01*
X126304212Y-71724679D01*
X126304612Y-71724537D01*
X126305002Y-71724363D01*
X126305375Y-71724178D01*
X126305739Y-71723963D01*
X126306094Y-71723724D01*
X126306439Y-71723463D01*
X126306771Y-71723175D01*
X126307086Y-71722866D01*
X126307399Y-71722530D01*
X126307695Y-71722173D01*
X126307983Y-71721793D01*
X126308262Y-71721387D01*
X126308525Y-71720961D01*
X126308776Y-71720502D01*
X126309019Y-71720031D01*
X126309252Y-71719529D01*
X126309472Y-71719007D01*
X126309683Y-71718461D01*
X126344857Y-71621814D01*
X126401848Y-71642557D01*
X126359280Y-71759507D01*
X126358335Y-71761971D01*
X126357338Y-71764324D01*
X126356282Y-71766570D01*
X126355172Y-71768703D01*
X126354008Y-71770723D01*
X126352784Y-71772645D01*
X126351507Y-71774452D01*
X126350176Y-71776149D01*
X126348789Y-71777737D01*
X126347343Y-71779213D01*
X126345844Y-71780581D01*
X126344287Y-71781841D01*
X126342678Y-71782996D01*
X126341010Y-71784033D01*
X126339286Y-71784966D01*
X126337507Y-71785790D01*
X126335671Y-71786498D01*
X126333780Y-71787102D01*
X126331833Y-71787594D01*
X126329825Y-71787978D01*
X126327765Y-71788252D01*
X126325646Y-71788416D01*
X126323474Y-71788470D01*
X126321245Y-71788415D01*
X126318953Y-71788252D01*
X126316611Y-71787976D01*
X126314214Y-71787592D01*
X126311754Y-71787099D01*
X126309240Y-71786497D01*
X126306666Y-71785780D01*
X126304041Y-71784958D01*
X126301357Y-71784025D01*
X126247370Y-71764377D01*
X126244934Y-71763444D01*
X126242608Y-71762460D01*
X126240389Y-71761415D01*
X126238280Y-71760324D01*
X126236274Y-71759179D01*
X126234383Y-71757975D01*
X126232598Y-71756724D01*
X126230920Y-71755414D01*
X126229349Y-71754056D01*
X126227893Y-71752640D01*
X126226538Y-71751176D01*
X126225292Y-71749655D01*
X126224154Y-71748080D01*
X126223121Y-71746457D01*
X126222201Y-71744777D01*
X126221385Y-71743043D01*
X126220675Y-71741259D01*
X126220077Y-71739421D01*
X126219584Y-71737529D01*
X126219196Y-71735588D01*
X126218918Y-71733591D01*
X126218744Y-71731541D01*
X126218684Y-71729437D01*
X126218724Y-71727283D01*
X126218870Y-71725080D01*
X126219124Y-71722815D01*
X126219487Y-71720502D01*
X126219957Y-71718135D01*
X126220527Y-71715716D01*
X126221211Y-71713249D01*
X126221999Y-71710725D01*
X126222892Y-71708151D01*
X126244823Y-71647897D01*
X126245013Y-71647347D01*
X126245182Y-71646802D01*
X126245328Y-71646269D01*
X126245447Y-71645750D01*
X126245543Y-71645244D01*
X126245616Y-71644743D01*
X126245665Y-71644257D01*
X126245689Y-71643782D01*
X126245692Y-71643314D01*
X126245669Y-71642862D01*
X126245621Y-71642419D01*
X126245547Y-71641986D01*
X126245457Y-71641568D01*
X126245342Y-71641158D01*
X126245197Y-71640761D01*
X126245030Y-71640375D01*
X126244842Y-71639998D01*
X126244625Y-71639636D01*
X126244391Y-71639282D01*
X126244128Y-71638939D01*
X126243843Y-71638608D01*
X126243534Y-71638287D01*
X126243202Y-71637979D01*
X126242845Y-71637682D01*
X126242462Y-71637396D01*
X126242062Y-71637119D01*
X126241633Y-71636853D01*
X126241181Y-71636604D01*
X126240703Y-71636360D01*
X126240202Y-71636124D01*
X126239679Y-71635906D01*
X126239131Y-71635700D01*
X126224215Y-71630267D01*
X126223663Y-71630075D01*
X126223119Y-71629909D01*
X126222589Y-71629765D01*
X126222070Y-71629645D01*
X126221555Y-71629546D01*
X126221060Y-71629477D01*
X126220572Y-71629425D01*
X126220100Y-71629401D01*
X126219632Y-71629401D01*
X126219178Y-71629423D01*
X126218738Y-71629471D01*
X126218303Y-71629541D01*
X126217889Y-71629636D01*
X126217474Y-71629749D01*
X126217081Y-71629892D01*
X126216692Y-71630057D01*
X126216315Y-71630246D01*
X126215954Y-71630464D01*
X126215599Y-71630703D01*
X126215257Y-71630962D01*
X126214925Y-71631250D01*
X126214603Y-71631557D01*
X126214296Y-71631889D01*
X126214001Y-71632247D01*
X126213712Y-71632625D01*
X126213435Y-71633028D01*
X126213174Y-71633457D01*
X126212921Y-71633909D01*
X126212675Y-71634390D01*
X126212448Y-71634886D01*
X126212225Y-71635409D01*
X126212014Y-71635957D01*
X126174981Y-71737700D01*
X126117994Y-71716957D01*
X126161219Y-71598199D01*
X126162233Y-71595543D01*
X126163303Y-71593004D01*
X126164428Y-71590584D01*
X126165607Y-71588281D01*
X126166837Y-71586094D01*
X126168128Y-71584021D01*
X126169468Y-71582066D01*
X126170867Y-71580229D01*
X126172323Y-71578507D01*
X126173831Y-71576898D01*
X126175391Y-71575413D01*
X126177010Y-71574039D01*
X126178681Y-71572784D01*
X126180410Y-71571643D01*
X126182197Y-71570620D01*
X126184036Y-71569716D01*
X126185931Y-71568926D01*
X126187886Y-71568247D01*
X126189890Y-71567689D01*
X126191955Y-71567248D01*
X126194076Y-71566924D01*
X126196248Y-71566714D01*
X126198483Y-71566618D01*
X126200770Y-71566642D01*
G37*
G36*
X126603580Y-69927909D02*
G01*
X126584787Y-69979539D01*
X126466351Y-69936428D01*
X126558512Y-70051736D01*
X126540483Y-70101267D01*
X126313745Y-70018741D01*
X126332538Y-69967113D01*
X126452464Y-70010764D01*
X126361096Y-69888656D01*
X126376847Y-69845385D01*
X126603580Y-69927909D01*
G37*
G36*
X125977461Y-71019796D02*
G01*
X125979808Y-71019934D01*
X125982205Y-71020189D01*
X125984666Y-71020561D01*
X125987179Y-71021045D01*
X125989746Y-71021648D01*
X125992371Y-71022370D01*
X125995057Y-71023201D01*
X125997798Y-71024151D01*
X126050912Y-71043480D01*
X126055682Y-71045393D01*
X126057910Y-71046421D01*
X126060029Y-71047500D01*
X126062045Y-71048627D01*
X126063957Y-71049799D01*
X126065763Y-71051030D01*
X126067463Y-71052298D01*
X126069060Y-71053622D01*
X126070544Y-71054998D01*
X126071933Y-71056416D01*
X126073207Y-71057888D01*
X126074379Y-71059410D01*
X126075450Y-71060979D01*
X126076408Y-71062597D01*
X126077259Y-71064266D01*
X126078006Y-71065983D01*
X126078650Y-71067750D01*
X126079184Y-71069572D01*
X126079615Y-71071434D01*
X126079937Y-71073351D01*
X126080153Y-71075321D01*
X126080262Y-71077331D01*
X126080264Y-71079396D01*
X126080160Y-71081514D01*
X126079952Y-71083677D01*
X126079631Y-71085892D01*
X126079212Y-71088159D01*
X126078681Y-71090475D01*
X126078042Y-71092837D01*
X126077298Y-71095249D01*
X126076445Y-71097714D01*
X126053857Y-71159774D01*
X126053665Y-71160329D01*
X126053493Y-71160873D01*
X126053352Y-71161400D01*
X126053231Y-71161924D01*
X126053135Y-71162431D01*
X126053064Y-71162931D01*
X126053017Y-71163416D01*
X126052989Y-71163894D01*
X126052988Y-71164355D01*
X126053008Y-71164812D01*
X126053057Y-71165255D01*
X126053128Y-71165683D01*
X126053221Y-71166105D01*
X126053339Y-71166512D01*
X126053482Y-71166912D01*
X126053650Y-71167300D01*
X126053835Y-71167676D01*
X126054050Y-71168036D01*
X126054289Y-71168392D01*
X126054552Y-71168736D01*
X126054834Y-71169063D01*
X126055144Y-71169385D01*
X126055475Y-71169696D01*
X126055833Y-71169990D01*
X126056216Y-71170276D01*
X126056618Y-71170552D01*
X126057044Y-71170818D01*
X126057498Y-71171074D01*
X126057977Y-71171310D01*
X126058477Y-71171547D01*
X126058996Y-71171768D01*
X126059545Y-71171972D01*
X126074170Y-71177302D01*
X126074726Y-71177491D01*
X126075269Y-71177660D01*
X126075797Y-71177799D01*
X126076319Y-71177922D01*
X126076830Y-71178018D01*
X126077328Y-71178092D01*
X126077815Y-71178141D01*
X126078290Y-71178165D01*
X126078754Y-71178166D01*
X126079212Y-71178146D01*
X126079647Y-71178095D01*
X126080081Y-71178026D01*
X126080499Y-71177932D01*
X126080912Y-71177816D01*
X126081309Y-71177674D01*
X126081695Y-71177507D01*
X126082071Y-71177318D01*
X126082431Y-71177105D01*
X126082787Y-71176867D01*
X126083130Y-71176605D01*
X126083463Y-71176320D01*
X126083780Y-71176012D01*
X126084092Y-71175676D01*
X126084388Y-71175319D01*
X126084677Y-71174942D01*
X126084952Y-71174535D01*
X126085215Y-71174110D01*
X126085470Y-71173657D01*
X126085711Y-71173181D01*
X126085943Y-71172681D01*
X126086163Y-71172156D01*
X126086372Y-71171608D01*
X126121556Y-71074938D01*
X126178548Y-71095676D01*
X126135981Y-71212628D01*
X126135037Y-71215095D01*
X126134040Y-71217450D01*
X126132981Y-71219689D01*
X126131875Y-71221826D01*
X126130709Y-71223848D01*
X126129483Y-71225766D01*
X126128210Y-71227574D01*
X126126880Y-71229271D01*
X126125487Y-71230859D01*
X126124047Y-71232338D01*
X126122546Y-71233711D01*
X126120991Y-71234965D01*
X126119377Y-71236119D01*
X126117712Y-71237156D01*
X126115984Y-71238088D01*
X126114210Y-71238908D01*
X126112370Y-71239622D01*
X126110480Y-71240222D01*
X126108532Y-71240714D01*
X126106527Y-71241104D01*
X126104466Y-71241374D01*
X126102348Y-71241539D01*
X126100174Y-71241592D01*
X126097942Y-71241539D01*
X126095655Y-71241373D01*
X126093312Y-71241100D01*
X126090914Y-71240715D01*
X126088457Y-71240220D01*
X126085942Y-71239619D01*
X126083371Y-71238904D01*
X126080742Y-71238081D01*
X126078059Y-71237148D01*
X126024069Y-71217499D01*
X126021635Y-71216567D01*
X126019309Y-71215578D01*
X126017091Y-71214539D01*
X126014978Y-71213447D01*
X126012976Y-71212301D01*
X126011085Y-71211103D01*
X126009299Y-71209847D01*
X126007622Y-71208541D01*
X126006051Y-71207184D01*
X126004592Y-71205770D01*
X126003238Y-71204308D01*
X126001991Y-71202786D01*
X126000851Y-71201214D01*
X125999817Y-71199593D01*
X125998898Y-71197910D01*
X125998082Y-71196183D01*
X125997372Y-71194398D01*
X125996770Y-71192560D01*
X125996277Y-71190673D01*
X125995889Y-71188728D01*
X125995611Y-71186733D01*
X125995435Y-71184684D01*
X125995373Y-71182585D01*
X125995414Y-71180431D01*
X125995565Y-71178227D01*
X125995817Y-71175966D01*
X125996178Y-71173651D01*
X125996645Y-71171287D01*
X125997219Y-71168868D01*
X125997904Y-71166399D01*
X125998690Y-71163876D01*
X125999584Y-71161304D01*
X126021526Y-71101020D01*
X126021716Y-71100467D01*
X126021886Y-71099924D01*
X126022027Y-71099393D01*
X126022149Y-71098871D01*
X126022242Y-71098362D01*
X126022318Y-71097868D01*
X126022364Y-71097380D01*
X126022388Y-71096902D01*
X126022392Y-71096438D01*
X126022368Y-71095984D01*
X126022321Y-71095542D01*
X126022251Y-71095108D01*
X126022156Y-71094692D01*
X126022040Y-71094281D01*
X126021901Y-71093886D01*
X126021730Y-71093498D01*
X126021540Y-71093124D01*
X126021329Y-71092760D01*
X126021091Y-71092405D01*
X126020829Y-71092062D01*
X126020546Y-71091731D01*
X126020235Y-71091412D01*
X126019903Y-71091103D01*
X126019547Y-71090803D01*
X126019166Y-71090520D01*
X126018761Y-71090240D01*
X126018333Y-71089976D01*
X126017882Y-71089724D01*
X126017405Y-71089481D01*
X126016903Y-71089250D01*
X126016383Y-71089028D01*
X126015834Y-71088820D01*
X126000918Y-71083392D01*
X126000362Y-71083198D01*
X125999819Y-71083031D01*
X125999287Y-71082888D01*
X125998771Y-71082768D01*
X125998256Y-71082671D01*
X125997762Y-71082600D01*
X125997275Y-71082548D01*
X125996803Y-71082527D01*
X125996334Y-71082526D01*
X125995881Y-71082545D01*
X125995438Y-71082590D01*
X125995007Y-71082664D01*
X125994588Y-71082755D01*
X125994175Y-71082877D01*
X125993782Y-71083019D01*
X125993393Y-71083182D01*
X125993017Y-71083371D01*
X125992652Y-71083586D01*
X125992299Y-71083822D01*
X125991958Y-71084082D01*
X125991626Y-71084370D01*
X125991307Y-71084680D01*
X125990999Y-71085011D01*
X125990702Y-71085370D01*
X125990414Y-71085748D01*
X125990137Y-71086155D01*
X125989872Y-71086584D01*
X125989622Y-71087031D01*
X125989379Y-71087511D01*
X125989148Y-71088009D01*
X125988926Y-71088532D01*
X125988715Y-71089081D01*
X125951686Y-71190825D01*
X125894694Y-71170080D01*
X125937909Y-71051351D01*
X125938924Y-71048696D01*
X125939991Y-71046159D01*
X125941115Y-71043737D01*
X125942297Y-71041434D01*
X125943528Y-71039246D01*
X125944815Y-71037175D01*
X125946156Y-71035218D01*
X125947560Y-71033382D01*
X125949011Y-71031660D01*
X125950520Y-71030052D01*
X125952079Y-71028566D01*
X125953698Y-71027194D01*
X125955375Y-71025937D01*
X125957100Y-71024797D01*
X125958888Y-71023776D01*
X125960729Y-71022868D01*
X125962623Y-71022079D01*
X125964573Y-71021403D01*
X125966585Y-71020842D01*
X125968644Y-71020401D01*
X125970763Y-71020075D01*
X125972939Y-71019866D01*
X125975173Y-71019774D01*
X125977461Y-71019796D01*
G37*
G36*
X125743232Y-71589694D02*
G01*
X125743746Y-71590054D01*
X125744280Y-71590405D01*
X125744844Y-71590758D01*
X125745446Y-71591113D01*
X125746096Y-71591480D01*
X125746800Y-71591852D01*
X125747566Y-71592235D01*
X125748405Y-71592630D01*
X125749324Y-71593045D01*
X125750331Y-71593479D01*
X125751436Y-71593934D01*
X125752646Y-71594411D01*
X125753969Y-71594915D01*
X125755413Y-71595450D01*
X125822545Y-71619882D01*
X125825783Y-71621164D01*
X125828786Y-71622571D01*
X125831553Y-71624107D01*
X125834085Y-71625774D01*
X125835265Y-71626657D01*
X125836382Y-71627578D01*
X125837440Y-71628531D01*
X125838441Y-71629518D01*
X125839375Y-71630544D01*
X125840259Y-71631602D01*
X125841075Y-71632702D01*
X125841834Y-71633835D01*
X125842531Y-71635007D01*
X125843170Y-71636216D01*
X125843746Y-71637465D01*
X125844265Y-71638752D01*
X125844722Y-71640077D01*
X125845116Y-71641443D01*
X125845453Y-71642849D01*
X125845730Y-71644293D01*
X125845941Y-71645784D01*
X125846096Y-71647312D01*
X125846182Y-71648884D01*
X125846210Y-71650497D01*
X125846091Y-71653856D01*
X125845717Y-71657387D01*
X125846583Y-71655955D01*
X125847483Y-71654591D01*
X125848414Y-71653293D01*
X125849380Y-71652069D01*
X125850379Y-71650903D01*
X125851412Y-71649810D01*
X125852476Y-71648785D01*
X125853571Y-71647826D01*
X125854702Y-71646937D01*
X125855866Y-71646114D01*
X125857063Y-71645358D01*
X125858296Y-71644670D01*
X125859561Y-71644048D01*
X125860858Y-71643498D01*
X125862189Y-71643012D01*
X125863555Y-71642595D01*
X125864958Y-71642243D01*
X125866390Y-71641964D01*
X125867855Y-71641748D01*
X125869353Y-71641604D01*
X125870889Y-71641525D01*
X125872458Y-71641513D01*
X125874060Y-71641570D01*
X125875698Y-71641694D01*
X125877371Y-71641887D01*
X125879075Y-71642149D01*
X125880815Y-71642476D01*
X125882590Y-71642875D01*
X125884400Y-71643339D01*
X125886244Y-71643871D01*
X125888123Y-71644476D01*
X125890034Y-71645139D01*
X125925842Y-71658172D01*
X125930929Y-71660206D01*
X125933300Y-71661294D01*
X125935567Y-71662440D01*
X125937710Y-71663632D01*
X125939747Y-71664875D01*
X125941670Y-71666166D01*
X125943484Y-71667505D01*
X125945178Y-71668898D01*
X125946764Y-71670339D01*
X125948233Y-71671833D01*
X125949596Y-71673373D01*
X125950840Y-71674965D01*
X125951975Y-71676607D01*
X125952998Y-71678299D01*
X125953906Y-71680038D01*
X125954703Y-71681837D01*
X125955387Y-71683679D01*
X125955964Y-71685572D01*
X125956417Y-71687513D01*
X125956771Y-71689502D01*
X125957006Y-71691555D01*
X125957132Y-71693646D01*
X125957141Y-71695789D01*
X125957043Y-71697983D01*
X125956835Y-71700229D01*
X125956511Y-71702525D01*
X125956074Y-71704869D01*
X125955532Y-71707270D01*
X125954871Y-71709713D01*
X125954102Y-71712214D01*
X125953221Y-71714760D01*
X125908808Y-71836781D01*
X125819594Y-71804311D01*
X125682073Y-71754254D01*
X125682645Y-71752683D01*
X125838385Y-71752683D01*
X125872127Y-71764963D01*
X125891013Y-71713072D01*
X125891203Y-71712516D01*
X125891372Y-71711974D01*
X125891516Y-71711443D01*
X125891636Y-71710923D01*
X125891732Y-71710412D01*
X125891801Y-71709915D01*
X125891848Y-71709428D01*
X125891877Y-71708953D01*
X125891872Y-71708486D01*
X125891849Y-71708029D01*
X125891801Y-71707593D01*
X125891732Y-71707157D01*
X125891635Y-71706736D01*
X125891515Y-71706327D01*
X125891370Y-71705930D01*
X125891206Y-71705544D01*
X125891012Y-71705166D01*
X125890800Y-71704801D01*
X125890560Y-71704448D01*
X125890300Y-71704107D01*
X125890013Y-71703773D01*
X125889703Y-71703453D01*
X125889369Y-71703141D01*
X125889009Y-71702845D01*
X125888628Y-71702560D01*
X125888224Y-71702281D01*
X125887796Y-71702020D01*
X125887342Y-71701765D01*
X125886867Y-71701520D01*
X125886367Y-71701289D01*
X125885843Y-71701069D01*
X125885294Y-71700860D01*
X125869500Y-71695113D01*
X125868948Y-71694918D01*
X125868407Y-71694751D01*
X125867871Y-71694606D01*
X125867353Y-71694487D01*
X125866842Y-71694388D01*
X125866344Y-71694317D01*
X125865856Y-71694269D01*
X125865380Y-71694244D01*
X125864913Y-71694241D01*
X125864459Y-71694266D01*
X125864015Y-71694312D01*
X125863584Y-71694380D01*
X125863161Y-71694476D01*
X125862750Y-71694590D01*
X125862355Y-71694734D01*
X125861965Y-71694902D01*
X125861587Y-71695086D01*
X125861222Y-71695302D01*
X125860865Y-71695536D01*
X125860521Y-71695799D01*
X125860190Y-71696086D01*
X125859870Y-71696393D01*
X125859559Y-71696724D01*
X125859262Y-71697079D01*
X125858974Y-71697461D01*
X125858695Y-71697862D01*
X125858433Y-71698295D01*
X125858175Y-71698742D01*
X125857935Y-71699222D01*
X125857701Y-71699720D01*
X125857484Y-71700245D01*
X125857273Y-71700788D01*
X125838385Y-71752683D01*
X125682645Y-71752683D01*
X125700862Y-71702629D01*
X125790370Y-71735206D01*
X125809257Y-71683312D01*
X125809446Y-71682762D01*
X125809615Y-71682219D01*
X125809760Y-71681685D01*
X125809882Y-71681167D01*
X125809977Y-71680655D01*
X125810047Y-71680159D01*
X125810097Y-71679672D01*
X125810124Y-71679196D01*
X125810123Y-71678728D01*
X125810097Y-71678276D01*
X125810057Y-71677835D01*
X125809984Y-71677406D01*
X125809891Y-71676986D01*
X125809774Y-71676576D01*
X125809632Y-71676179D01*
X125809462Y-71675792D01*
X125809274Y-71675415D01*
X125809062Y-71675050D01*
X125808823Y-71674696D01*
X125808563Y-71674354D01*
X125808276Y-71674025D01*
X125807968Y-71673702D01*
X125807635Y-71673392D01*
X125807279Y-71673098D01*
X125806898Y-71672811D01*
X125806495Y-71672536D01*
X125806067Y-71672271D01*
X125805614Y-71672016D01*
X125805137Y-71671773D01*
X125804636Y-71671545D01*
X125804115Y-71671323D01*
X125803569Y-71671113D01*
X125734926Y-71646132D01*
X125732904Y-71645361D01*
X125731086Y-71644608D01*
X125729458Y-71643865D01*
X125727999Y-71643132D01*
X125726698Y-71642406D01*
X125725531Y-71641692D01*
X125724492Y-71640981D01*
X125723557Y-71640278D01*
X125742230Y-71588967D01*
X125743232Y-71589694D01*
G37*
G36*
X126270639Y-70842661D02*
G01*
X126244359Y-70914858D01*
X126080770Y-70899268D01*
X126215686Y-70993647D01*
X126189513Y-71065553D01*
X125962775Y-70983029D01*
X125982216Y-70929622D01*
X126097972Y-70971755D01*
X125994058Y-70897076D01*
X126013065Y-70844866D01*
X126140540Y-70854801D01*
X126024784Y-70812669D01*
X126043906Y-70760137D01*
X126270639Y-70842661D01*
G37*
G36*
X126462627Y-70315181D02*
G01*
X126443832Y-70366816D01*
X126217097Y-70284289D01*
X126235888Y-70232658D01*
X126462627Y-70315181D01*
G37*
G36*
X141932334Y-131241303D02*
G01*
X141932334Y-131880513D01*
X141292654Y-131880513D01*
X141292654Y-131241302D01*
X141932334Y-131241303D01*
G37*
G36*
X142572014Y-131880513D02*
G01*
X141932334Y-131880513D01*
X141932334Y-131241303D01*
X142572014Y-131241303D01*
X142572014Y-131880513D01*
G37*
G36*
X126298973Y-70764811D02*
G01*
X126280190Y-70816410D01*
X126053462Y-70733885D01*
X126072237Y-70682285D01*
X126298973Y-70764811D01*
G37*
G36*
X125826410Y-71885849D02*
G01*
X125845307Y-71833927D01*
X125902298Y-71854672D01*
X125845828Y-72009821D01*
X125788841Y-71989079D01*
X125807736Y-71937158D01*
X125637990Y-71875373D01*
X125656664Y-71824066D01*
X125826410Y-71885849D01*
G37*
G36*
X126524444Y-71305715D02*
G01*
X126505666Y-71357316D01*
X126278929Y-71274793D01*
X126297711Y-71223189D01*
X126524444Y-71305715D01*
G37*
G36*
X126132786Y-71751558D02*
G01*
X126134952Y-71751762D01*
X126137166Y-71752077D01*
X126139433Y-71752499D01*
X126141749Y-71753028D01*
X126144114Y-71753666D01*
X126148992Y-71755264D01*
X126294585Y-71808254D01*
X126299565Y-71810242D01*
X126301890Y-71811315D01*
X126304099Y-71812431D01*
X126306205Y-71813603D01*
X126308197Y-71814820D01*
X126310078Y-71816081D01*
X126311847Y-71817402D01*
X126313508Y-71818765D01*
X126315055Y-71820181D01*
X126316495Y-71821649D01*
X126317821Y-71823162D01*
X126319043Y-71824730D01*
X126320146Y-71826347D01*
X126321144Y-71828015D01*
X126322029Y-71829732D01*
X126322800Y-71831502D01*
X126323465Y-71833322D01*
X126324017Y-71835193D01*
X126324464Y-71837116D01*
X126324793Y-71839089D01*
X126325018Y-71841114D01*
X126325131Y-71843190D01*
X126325132Y-71845314D01*
X126325020Y-71847498D01*
X126324801Y-71849733D01*
X126324472Y-71852018D01*
X126324031Y-71854350D01*
X126323479Y-71856742D01*
X126322820Y-71859182D01*
X126322049Y-71861675D01*
X126321166Y-71864220D01*
X126291303Y-71946269D01*
X126290351Y-71948761D01*
X126289345Y-71951145D01*
X126288292Y-71953421D01*
X126287185Y-71955585D01*
X126286024Y-71957646D01*
X126284811Y-71959595D01*
X126283551Y-71961437D01*
X126282234Y-71963174D01*
X126280866Y-71964797D01*
X126279445Y-71966317D01*
X126277975Y-71967724D01*
X126276449Y-71969020D01*
X126274874Y-71970214D01*
X126273247Y-71971296D01*
X126271569Y-71972272D01*
X126269833Y-71973130D01*
X126268046Y-71973885D01*
X126266210Y-71974529D01*
X126264318Y-71975065D01*
X126262379Y-71975498D01*
X126260384Y-71975813D01*
X126258338Y-71976019D01*
X126256237Y-71976119D01*
X126254086Y-71976107D01*
X126251878Y-71975984D01*
X126249619Y-71975753D01*
X126247310Y-71975412D01*
X126244946Y-71974962D01*
X126242529Y-71974402D01*
X126240061Y-71973728D01*
X126237542Y-71972948D01*
X126234966Y-71972056D01*
X126210491Y-71963148D01*
X126089371Y-71919065D01*
X126086936Y-71918135D01*
X126084610Y-71917150D01*
X126082388Y-71916114D01*
X126080278Y-71915026D01*
X126078275Y-71913888D01*
X126076378Y-71912696D01*
X126074589Y-71911455D01*
X126072908Y-71910163D01*
X126071331Y-71908817D01*
X126069864Y-71907421D01*
X126068501Y-71905971D01*
X126067251Y-71904474D01*
X126066103Y-71902925D01*
X126065065Y-71901321D01*
X126064132Y-71899666D01*
X126063307Y-71897960D01*
X126062590Y-71896205D01*
X126061975Y-71894397D01*
X126061471Y-71892540D01*
X126061071Y-71890630D01*
X126060782Y-71888672D01*
X126060593Y-71886658D01*
X126060514Y-71884596D01*
X126060543Y-71882481D01*
X126060672Y-71880319D01*
X126060912Y-71878103D01*
X126061259Y-71875836D01*
X126061707Y-71873520D01*
X126062264Y-71871151D01*
X126062881Y-71868912D01*
X126127860Y-71868912D01*
X126127860Y-71869375D01*
X126127883Y-71869827D01*
X126127926Y-71870270D01*
X126128000Y-71870700D01*
X126128093Y-71871122D01*
X126128216Y-71871535D01*
X126128353Y-71871927D01*
X126128517Y-71872314D01*
X126128710Y-71872692D01*
X126128920Y-71873055D01*
X126129160Y-71873408D01*
X126129423Y-71873750D01*
X126129707Y-71874084D01*
X126130014Y-71874402D01*
X126130349Y-71874712D01*
X126130705Y-71875009D01*
X126131084Y-71875296D01*
X126131487Y-71875572D01*
X126131915Y-71875834D01*
X126132369Y-71876091D01*
X126132844Y-71876328D01*
X126133345Y-71876562D01*
X126133871Y-71876783D01*
X126134416Y-71876994D01*
X126229282Y-71911522D01*
X126229834Y-71911713D01*
X126230378Y-71911880D01*
X126230910Y-71912023D01*
X126231429Y-71912146D01*
X126231939Y-71912241D01*
X126232440Y-71912311D01*
X126232926Y-71912366D01*
X126233399Y-71912387D01*
X126233863Y-71912387D01*
X126234319Y-71912367D01*
X126234764Y-71912320D01*
X126235196Y-71912246D01*
X126235609Y-71912156D01*
X126236022Y-71912035D01*
X126236417Y-71911893D01*
X126236805Y-71911729D01*
X126237182Y-71911538D01*
X126237544Y-71911324D01*
X126237900Y-71911085D01*
X126238238Y-71910826D01*
X126238572Y-71910542D01*
X126238889Y-71910234D01*
X126239200Y-71909900D01*
X126239500Y-71909544D01*
X126239787Y-71909164D01*
X126240062Y-71908758D01*
X126240325Y-71908329D01*
X126240578Y-71907874D01*
X126240820Y-71907402D01*
X126241053Y-71906903D01*
X126241272Y-71906378D01*
X126241484Y-71905833D01*
X126257127Y-71862853D01*
X126257319Y-71862301D01*
X126257486Y-71861758D01*
X126257627Y-71861229D01*
X126257748Y-71860707D01*
X126257845Y-71860200D01*
X126257918Y-71859699D01*
X126257965Y-71859213D01*
X126257992Y-71858739D01*
X126257993Y-71858271D01*
X126257970Y-71857820D01*
X126257925Y-71857373D01*
X126257851Y-71856945D01*
X126257760Y-71856524D01*
X126257641Y-71856118D01*
X126257495Y-71855717D01*
X126257330Y-71855333D01*
X126257142Y-71854956D01*
X126256929Y-71854592D01*
X126256692Y-71854235D01*
X126256431Y-71853899D01*
X126256149Y-71853567D01*
X126255839Y-71853246D01*
X126255505Y-71852937D01*
X126255147Y-71852639D01*
X126254765Y-71852355D01*
X126254364Y-71852075D01*
X126253936Y-71851811D01*
X126253480Y-71851558D01*
X126253008Y-71851313D01*
X126252506Y-71851084D01*
X126251983Y-71850867D01*
X126251434Y-71850655D01*
X126156567Y-71816127D01*
X126156015Y-71815935D01*
X126155472Y-71815769D01*
X126154941Y-71815622D01*
X126154421Y-71815504D01*
X126153910Y-71815407D01*
X126153413Y-71815334D01*
X126152924Y-71815285D01*
X126152454Y-71815259D01*
X126151984Y-71815254D01*
X126151533Y-71815279D01*
X126151090Y-71815331D01*
X126150660Y-71815397D01*
X126150238Y-71815495D01*
X126149830Y-71815609D01*
X126149433Y-71815753D01*
X126149046Y-71815920D01*
X126148669Y-71816110D01*
X126148304Y-71816319D01*
X126147947Y-71816559D01*
X126147610Y-71816820D01*
X126147280Y-71817104D01*
X126146960Y-71817415D01*
X126146649Y-71817749D01*
X126146353Y-71818105D01*
X126146063Y-71818485D01*
X126145792Y-71818890D01*
X126145526Y-71819317D01*
X126145271Y-71819774D01*
X126145031Y-71820245D01*
X126144798Y-71820743D01*
X126144578Y-71821270D01*
X126144369Y-71821817D01*
X126128727Y-71864790D01*
X126128534Y-71865345D01*
X126128366Y-71865889D01*
X126128224Y-71866418D01*
X126128102Y-71866940D01*
X126128006Y-71867450D01*
X126127933Y-71867945D01*
X126127883Y-71868433D01*
X126127860Y-71868912D01*
X126062881Y-71868912D01*
X126062929Y-71868736D01*
X126063691Y-71866265D01*
X126064570Y-71863745D01*
X126094433Y-71781697D01*
X126096399Y-71776772D01*
X126097453Y-71774471D01*
X126098554Y-71772288D01*
X126099706Y-71770207D01*
X126100900Y-71768236D01*
X126102145Y-71766380D01*
X126103436Y-71764626D01*
X126104776Y-71762990D01*
X126106164Y-71761457D01*
X126107599Y-71760034D01*
X126109082Y-71758724D01*
X126110614Y-71757520D01*
X126112196Y-71756425D01*
X126113823Y-71755439D01*
X126115500Y-71754560D01*
X126117224Y-71753792D01*
X126119000Y-71753131D01*
X126120825Y-71752582D01*
X126122694Y-71752144D01*
X126124615Y-71751809D01*
X126126584Y-71751582D01*
X126128601Y-71751465D01*
X126130671Y-71751456D01*
X126132786Y-71751558D01*
G37*
G36*
X126231782Y-70321051D02*
G01*
X126234127Y-70321193D01*
X126236529Y-70321449D01*
X126238981Y-70321816D01*
X126241494Y-70322310D01*
X126244064Y-70322909D01*
X126246695Y-70323626D01*
X126249376Y-70324460D01*
X126252119Y-70325411D01*
X126305236Y-70344741D01*
X126310004Y-70346654D01*
X126312228Y-70347684D01*
X126314349Y-70348763D01*
X126316365Y-70349888D01*
X126318278Y-70351062D01*
X126320083Y-70352288D01*
X126321784Y-70353560D01*
X126323375Y-70354883D01*
X126324866Y-70356256D01*
X126326253Y-70357679D01*
X126327526Y-70359147D01*
X126328703Y-70360669D01*
X126329764Y-70362240D01*
X126330724Y-70363859D01*
X126331583Y-70365525D01*
X126332326Y-70367245D01*
X126332968Y-70369015D01*
X126333504Y-70370832D01*
X126333936Y-70372697D01*
X126334259Y-70374610D01*
X126334471Y-70376580D01*
X126334583Y-70378595D01*
X126334586Y-70380656D01*
X126334482Y-70382775D01*
X126334271Y-70384937D01*
X126333953Y-70387155D01*
X126333530Y-70389416D01*
X126333001Y-70391732D01*
X126332361Y-70394094D01*
X126331619Y-70396514D01*
X126330764Y-70398976D01*
X126308175Y-70461036D01*
X126307987Y-70461588D01*
X126307815Y-70462133D01*
X126307671Y-70462667D01*
X126307551Y-70463184D01*
X126307457Y-70463694D01*
X126307381Y-70464190D01*
X126307338Y-70464677D01*
X126307310Y-70465158D01*
X126307311Y-70465619D01*
X126307331Y-70466071D01*
X126307379Y-70466513D01*
X126307447Y-70466946D01*
X126307545Y-70467367D01*
X126307662Y-70467775D01*
X126307802Y-70468171D01*
X126307967Y-70468562D01*
X126308157Y-70468933D01*
X126308372Y-70469298D01*
X126308609Y-70469652D01*
X126308875Y-70469997D01*
X126309157Y-70470327D01*
X126309464Y-70470644D01*
X126309795Y-70470953D01*
X126310153Y-70471255D01*
X126310535Y-70471540D01*
X126310937Y-70471816D01*
X126311368Y-70472079D01*
X126311817Y-70472335D01*
X126312297Y-70472576D01*
X126312794Y-70472805D01*
X126313319Y-70473028D01*
X126313864Y-70473237D01*
X126328490Y-70478558D01*
X126329045Y-70478753D01*
X126329589Y-70478919D01*
X126330121Y-70479066D01*
X126330640Y-70479183D01*
X126331150Y-70479279D01*
X126331649Y-70479354D01*
X126332137Y-70479400D01*
X126332608Y-70479426D01*
X126333076Y-70479427D01*
X126333529Y-70479403D01*
X126333968Y-70479356D01*
X126334400Y-70479290D01*
X126334823Y-70479192D01*
X126335228Y-70479077D01*
X126335627Y-70478934D01*
X126336016Y-70478769D01*
X126336394Y-70478576D01*
X126336755Y-70478362D01*
X126337108Y-70478129D01*
X126337451Y-70477864D01*
X126337781Y-70477579D01*
X126338103Y-70477272D01*
X126338413Y-70476937D01*
X126338712Y-70476582D01*
X126338993Y-70476203D01*
X126339273Y-70475798D01*
X126339535Y-70475368D01*
X126339790Y-70474919D01*
X126340033Y-70474445D01*
X126340262Y-70473942D01*
X126340485Y-70473419D01*
X126340692Y-70472872D01*
X126375878Y-70376200D01*
X126432867Y-70396938D01*
X126390301Y-70513892D01*
X126389359Y-70516355D01*
X126388357Y-70518706D01*
X126387302Y-70520951D01*
X126386193Y-70523085D01*
X126385028Y-70525113D01*
X126383809Y-70527029D01*
X126382530Y-70528832D01*
X126381199Y-70530532D01*
X126379812Y-70532120D01*
X126378364Y-70533602D01*
X126376865Y-70534967D01*
X126375310Y-70536228D01*
X126373696Y-70537375D01*
X126372028Y-70538417D01*
X126370306Y-70539349D01*
X126368528Y-70540169D01*
X126366692Y-70540882D01*
X126364798Y-70541484D01*
X126362852Y-70541978D01*
X126360848Y-70542363D01*
X126358785Y-70542636D01*
X126356669Y-70542799D01*
X126354494Y-70542854D01*
X126352265Y-70542799D01*
X126349974Y-70542635D01*
X126347634Y-70542359D01*
X126345235Y-70541973D01*
X126342774Y-70541481D01*
X126340261Y-70540878D01*
X126337695Y-70540167D01*
X126335064Y-70539341D01*
X126332380Y-70538415D01*
X126278390Y-70518759D01*
X126275952Y-70517827D01*
X126273629Y-70516843D01*
X126271412Y-70515801D01*
X126269297Y-70514708D01*
X126267299Y-70513563D01*
X126265407Y-70512364D01*
X126263618Y-70511109D01*
X126261943Y-70509802D01*
X126260372Y-70508446D01*
X126258909Y-70507034D01*
X126257555Y-70505567D01*
X126256312Y-70504050D01*
X126255174Y-70502476D01*
X126254139Y-70500853D01*
X126253217Y-70499173D01*
X126252401Y-70497442D01*
X126251692Y-70495659D01*
X126251093Y-70493820D01*
X126250597Y-70491933D01*
X126250212Y-70489990D01*
X126249931Y-70487993D01*
X126249761Y-70485945D01*
X126249691Y-70483846D01*
X126249734Y-70481693D01*
X126249884Y-70479484D01*
X126250138Y-70477224D01*
X126250498Y-70474914D01*
X126250965Y-70472546D01*
X126251541Y-70470129D01*
X126252221Y-70467665D01*
X126253011Y-70465140D01*
X126253902Y-70462563D01*
X126275842Y-70402281D01*
X126276037Y-70401726D01*
X126276202Y-70401185D01*
X126276345Y-70400654D01*
X126276470Y-70400135D01*
X126276568Y-70399626D01*
X126276635Y-70399127D01*
X126276689Y-70398638D01*
X126276711Y-70398164D01*
X126276711Y-70397699D01*
X126276688Y-70397247D01*
X126276642Y-70396805D01*
X126276574Y-70396370D01*
X126276479Y-70395953D01*
X126276361Y-70395545D01*
X126276214Y-70395146D01*
X126276051Y-70394757D01*
X126275861Y-70394382D01*
X126275649Y-70394019D01*
X126275410Y-70393665D01*
X126275148Y-70393324D01*
X126274864Y-70392994D01*
X126274556Y-70392672D01*
X126274224Y-70392365D01*
X126273868Y-70392068D01*
X126273487Y-70391778D01*
X126273078Y-70391499D01*
X126272658Y-70391240D01*
X126272201Y-70390982D01*
X126271724Y-70390741D01*
X126271225Y-70390513D01*
X126270703Y-70390294D01*
X126270153Y-70390081D01*
X126255236Y-70384650D01*
X126254686Y-70384460D01*
X126254140Y-70384295D01*
X126253611Y-70384149D01*
X126253092Y-70384028D01*
X126252579Y-70383935D01*
X126252082Y-70383861D01*
X126251593Y-70383810D01*
X126251121Y-70383787D01*
X126250657Y-70383786D01*
X126250198Y-70383810D01*
X126249759Y-70383854D01*
X126249329Y-70383923D01*
X126248908Y-70384018D01*
X126248499Y-70384136D01*
X126248101Y-70384279D01*
X126247715Y-70384446D01*
X126247338Y-70384636D01*
X126246976Y-70384848D01*
X126246623Y-70385083D01*
X126246278Y-70385346D01*
X126245948Y-70385631D01*
X126245627Y-70385940D01*
X126245320Y-70386274D01*
X126245020Y-70386630D01*
X126244732Y-70387009D01*
X126244460Y-70387415D01*
X126244192Y-70387843D01*
X126243941Y-70388296D01*
X126243697Y-70388771D01*
X126243467Y-70389275D01*
X126243245Y-70389795D01*
X126243035Y-70390342D01*
X126206007Y-70492085D01*
X126149014Y-70471343D01*
X126192239Y-70352582D01*
X126193254Y-70349930D01*
X126194322Y-70347392D01*
X126195445Y-70344970D01*
X126196627Y-70342668D01*
X126197858Y-70340476D01*
X126199145Y-70338408D01*
X126200487Y-70336455D01*
X126201887Y-70334618D01*
X126203337Y-70332898D01*
X126204845Y-70331292D01*
X126206410Y-70329806D01*
X126208025Y-70328431D01*
X126209698Y-70327178D01*
X126211427Y-70326040D01*
X126213216Y-70325020D01*
X126215053Y-70324117D01*
X126216950Y-70323324D01*
X126218895Y-70322651D01*
X126220906Y-70322094D01*
X126222974Y-70321654D01*
X126225088Y-70321329D01*
X126227264Y-70321120D01*
X126229495Y-70321026D01*
X126231782Y-70321051D01*
G37*
G36*
X126100601Y-71942061D02*
G01*
X126070741Y-72024108D01*
X126240489Y-72085887D01*
X126221691Y-72137516D01*
X125994959Y-72054988D01*
X126043615Y-71921317D01*
X126100601Y-71942061D01*
G37*
G36*
X128952232Y-62668300D02*
G01*
X128971208Y-62708998D01*
X129612669Y-62942472D01*
X129636625Y-62995399D01*
X129660106Y-63044204D01*
X129605810Y-63193380D01*
X129555797Y-63218930D01*
X129504074Y-63240822D01*
X128862619Y-63007350D01*
X128821923Y-63026323D01*
X128811068Y-63056161D01*
X128778490Y-63145666D01*
X128797463Y-63186361D01*
X129438922Y-63419833D01*
X129462878Y-63472765D01*
X129486363Y-63521570D01*
X129432061Y-63670743D01*
X129382052Y-63696294D01*
X129330330Y-63718183D01*
X128688872Y-63484713D01*
X128648175Y-63503688D01*
X128637319Y-63533527D01*
X128604741Y-63623030D01*
X128623720Y-63663724D01*
X129265174Y-63897198D01*
X129289133Y-63950127D01*
X129312613Y-63998933D01*
X129258319Y-64148109D01*
X129208303Y-64173654D01*
X129156583Y-64195549D01*
X128515123Y-63962077D01*
X128474430Y-63981052D01*
X128463572Y-64010887D01*
X128430994Y-64100395D01*
X128449970Y-64141087D01*
X129091429Y-64374557D01*
X129115388Y-64427493D01*
X129138866Y-64476296D01*
X129084572Y-64625471D01*
X129034559Y-64651019D01*
X128982837Y-64672914D01*
X128341376Y-64439441D01*
X128300686Y-64458415D01*
X128289827Y-64488253D01*
X128257250Y-64577756D01*
X128276224Y-64618452D01*
X128917684Y-64851923D01*
X128941640Y-64904857D01*
X128965122Y-64953659D01*
X128910828Y-65102836D01*
X128860812Y-65128383D01*
X128809094Y-65150274D01*
X128167633Y-64916804D01*
X128126939Y-64935781D01*
X128116082Y-64965615D01*
X128083502Y-65055122D01*
X128102481Y-65095816D01*
X128743938Y-65329289D01*
X128767894Y-65382221D01*
X128791376Y-65431024D01*
X128737080Y-65580198D01*
X128687065Y-65605747D01*
X128635344Y-65627641D01*
X127993886Y-65394164D01*
X127953193Y-65413146D01*
X127942333Y-65442982D01*
X127909754Y-65532483D01*
X127928730Y-65573180D01*
X128570189Y-65806651D01*
X128594150Y-65859582D01*
X128617629Y-65908388D01*
X128563334Y-66057565D01*
X128513321Y-66083113D01*
X128461596Y-66105004D01*
X127820139Y-65871530D01*
X127779446Y-65890508D01*
X127768588Y-65920339D01*
X127736009Y-66009850D01*
X127754982Y-66050543D01*
X128396448Y-66284013D01*
X128420404Y-66336947D01*
X128443886Y-66385754D01*
X128389588Y-66534927D01*
X128339573Y-66560476D01*
X128287852Y-66582369D01*
X127646394Y-66348897D01*
X127605701Y-66367871D01*
X127594842Y-66397708D01*
X127562264Y-66487214D01*
X127581240Y-66527906D01*
X128222697Y-66761377D01*
X128246655Y-66814312D01*
X128270138Y-66863115D01*
X128215845Y-67012293D01*
X128165826Y-67037840D01*
X128114106Y-67059729D01*
X127472650Y-66826259D01*
X127431954Y-66845239D01*
X127421093Y-66875073D01*
X127388518Y-66964579D01*
X127407494Y-67005270D01*
X128048951Y-67238743D01*
X128072908Y-67291679D01*
X128096388Y-67340478D01*
X128042096Y-67489657D01*
X127992079Y-67515203D01*
X127940360Y-67537098D01*
X127298901Y-67303624D01*
X127258207Y-67322599D01*
X127247349Y-67352439D01*
X127214772Y-67441941D01*
X127233745Y-67482636D01*
X127875205Y-67716108D01*
X127899162Y-67769042D01*
X127922643Y-67817845D01*
X127868347Y-67967018D01*
X127818334Y-67992568D01*
X127766613Y-68014460D01*
X127125156Y-67780988D01*
X127084462Y-67799963D01*
X127073601Y-67829800D01*
X127041028Y-67919303D01*
X127060000Y-67960000D01*
X127701461Y-68193470D01*
X127725416Y-68246403D01*
X127748898Y-68295209D01*
X127694603Y-68444383D01*
X127644587Y-68469931D01*
X127592866Y-68491824D01*
X126951407Y-68258353D01*
X126910716Y-68277327D01*
X126899853Y-68307164D01*
X126867279Y-68396669D01*
X126886256Y-68437362D01*
X127527712Y-68670836D01*
X127551671Y-68723770D01*
X127575152Y-68772571D01*
X127520857Y-68921746D01*
X127470839Y-68947295D01*
X127419121Y-68969185D01*
X126777663Y-68735716D01*
X126736969Y-68754691D01*
X126726110Y-68784529D01*
X126693528Y-68874033D01*
X126497659Y-69410918D01*
X126498096Y-69411080D01*
X126422085Y-69619924D01*
X126437002Y-69625354D01*
X126466837Y-69636213D01*
X126507529Y-69617238D01*
X126741001Y-68975777D01*
X126791017Y-68950233D01*
X126842738Y-68928340D01*
X126991916Y-68982635D01*
X127014203Y-69031995D01*
X127039354Y-69084371D01*
X126822171Y-69681076D01*
X126767877Y-69830253D01*
X125920852Y-72157430D01*
X126076849Y-72214209D01*
X126083560Y-72216773D01*
X126089983Y-72219472D01*
X126096119Y-72222315D01*
X126101958Y-72225289D01*
X126107499Y-72228404D01*
X126112754Y-72231652D01*
X126117718Y-72235036D01*
X126122386Y-72238556D01*
X126126763Y-72242212D01*
X126130847Y-72246007D01*
X126134636Y-72249940D01*
X126138137Y-72254005D01*
X126141341Y-72258212D01*
X126144257Y-72262549D01*
X126146880Y-72267029D01*
X126149210Y-72271638D01*
X126151244Y-72276390D01*
X126152986Y-72281274D01*
X126154437Y-72286299D01*
X126155598Y-72291453D01*
X126156467Y-72296752D01*
X126157043Y-72302182D01*
X126157322Y-72307750D01*
X126157311Y-72313450D01*
X126157007Y-72319291D01*
X126156413Y-72325265D01*
X126155522Y-72331381D01*
X126154339Y-72337627D01*
X126152866Y-72344018D01*
X126151099Y-72350535D01*
X126149040Y-72357194D01*
X126146690Y-72363988D01*
X126116577Y-72446734D01*
X125964599Y-72391421D01*
X125975607Y-72361177D01*
X125976117Y-72359699D01*
X125976565Y-72358253D01*
X125976952Y-72356837D01*
X125977272Y-72355446D01*
X125977528Y-72354090D01*
X125977720Y-72352762D01*
X125977851Y-72351466D01*
X125977917Y-72350194D01*
X125977918Y-72348953D01*
X125977859Y-72347746D01*
X125977736Y-72346566D01*
X125977546Y-72345417D01*
X125977295Y-72344297D01*
X125976980Y-72343202D01*
X125976600Y-72342143D01*
X125976157Y-72341110D01*
X125975653Y-72340108D01*
X125975082Y-72339134D01*
X125974452Y-72338192D01*
X125973752Y-72337278D01*
X125972992Y-72336394D01*
X125972168Y-72335543D01*
X125971281Y-72334715D01*
X125970331Y-72333923D01*
X125969313Y-72333157D01*
X125968238Y-72332421D01*
X125967093Y-72331713D01*
X125965888Y-72331040D01*
X125964619Y-72330394D01*
X125963287Y-72329776D01*
X125961889Y-72329190D01*
X125960431Y-72328631D01*
X125652320Y-72216486D01*
X125617569Y-72311967D01*
X125648799Y-72323333D01*
X125539337Y-72624076D01*
X125589453Y-72642316D01*
X125593394Y-72643613D01*
X125595301Y-72644136D01*
X125597164Y-72644574D01*
X125598988Y-72644928D01*
X125600764Y-72645198D01*
X125602501Y-72645385D01*
X125604194Y-72645486D01*
X125605848Y-72645505D01*
X125607461Y-72645436D01*
X125609034Y-72645287D01*
X125610559Y-72645055D01*
X125612044Y-72644737D01*
X125613490Y-72644340D01*
X125614893Y-72643852D01*
X125616257Y-72643281D01*
X125617577Y-72642630D01*
X125618859Y-72641897D01*
X125620101Y-72641080D01*
X125621295Y-72640180D01*
X125622458Y-72639194D01*
X125623577Y-72638125D01*
X125624658Y-72636974D01*
X125625696Y-72635740D01*
X125626699Y-72634423D01*
X125627658Y-72633021D01*
X125628580Y-72631538D01*
X125629457Y-72629972D01*
X125630301Y-72628323D01*
X125631105Y-72626590D01*
X125632593Y-72622876D01*
X125690219Y-72464549D01*
X125695520Y-72451255D01*
X125698366Y-72445042D01*
X125701335Y-72439118D01*
X125704430Y-72433485D01*
X125707656Y-72428143D01*
X125711007Y-72423088D01*
X125714487Y-72418326D01*
X125718093Y-72413852D01*
X125721831Y-72409667D01*
X125725693Y-72405780D01*
X125729684Y-72402179D01*
X125733803Y-72398874D01*
X125738050Y-72395856D01*
X125742426Y-72393131D01*
X125746930Y-72390699D01*
X125751566Y-72388559D01*
X125756324Y-72386713D01*
X125761217Y-72385157D01*
X125766235Y-72383894D01*
X125771384Y-72382924D01*
X125776659Y-72382248D01*
X125782067Y-72381871D01*
X125787604Y-72381779D01*
X125793266Y-72381984D01*
X125799061Y-72382485D01*
X125804985Y-72383276D01*
X125811040Y-72384366D01*
X125817224Y-72385754D01*
X125823539Y-72387430D01*
X125829979Y-72389402D01*
X125836550Y-72391670D01*
X125986134Y-72446112D01*
X125999996Y-72451635D01*
X126006469Y-72454584D01*
X126012643Y-72457665D01*
X126018505Y-72460865D01*
X126024066Y-72464198D01*
X126029322Y-72467662D01*
X126034274Y-72471247D01*
X126038925Y-72474964D01*
X126043269Y-72478810D01*
X126047311Y-72482783D01*
X126051047Y-72486886D01*
X126054482Y-72491116D01*
X126057608Y-72495476D01*
X126060437Y-72499968D01*
X126062963Y-72504586D01*
X126065180Y-72509337D01*
X126067098Y-72514213D01*
X126068709Y-72519223D01*
X126070022Y-72524362D01*
X126071028Y-72529633D01*
X126071731Y-72535035D01*
X126072135Y-72540570D01*
X126072233Y-72546232D01*
X126072031Y-72552027D01*
X126071525Y-72557953D01*
X126070713Y-72564012D01*
X126069607Y-72570204D01*
X126068192Y-72576526D01*
X126066478Y-72582982D01*
X126064459Y-72589568D01*
X126062139Y-72596293D01*
X125946305Y-72914542D01*
X125909886Y-72901286D01*
X125888455Y-72960171D01*
X125924874Y-72973424D01*
X125828159Y-73239146D01*
X125825482Y-73246130D01*
X125822650Y-73252799D01*
X125819668Y-73259145D01*
X125816533Y-73265171D01*
X125813245Y-73270875D01*
X125809796Y-73276260D01*
X125806203Y-73281328D01*
X125802449Y-73286075D01*
X125798544Y-73290498D01*
X125794487Y-73294599D01*
X125790272Y-73298384D01*
X125785905Y-73301844D01*
X125781384Y-73304982D01*
X125776708Y-73307798D01*
X125771878Y-73310294D01*
X125766892Y-73312468D01*
X125729861Y-73414212D01*
X125760396Y-73425325D01*
X125646884Y-73737197D01*
X125644365Y-73743763D01*
X125641703Y-73750042D01*
X125638892Y-73756027D01*
X125635931Y-73761715D01*
X125632823Y-73767121D01*
X125629565Y-73772227D01*
X125626160Y-73777049D01*
X125622607Y-73781574D01*
X125618903Y-73785809D01*
X125615053Y-73789750D01*
X125611053Y-73793405D01*
X125606905Y-73796765D01*
X125602605Y-73799829D01*
X125598163Y-73802606D01*
X125593565Y-73805092D01*
X125588818Y-73807282D01*
X125583921Y-73809182D01*
X125578877Y-73810790D01*
X125573678Y-73812106D01*
X125568333Y-73813129D01*
X125562838Y-73813861D01*
X125557193Y-73814297D01*
X125551391Y-73814447D01*
X125545444Y-73814299D01*
X125539345Y-73813856D01*
X125533097Y-73813126D01*
X125526697Y-73812105D01*
X125520144Y-73810788D01*
X125513440Y-73809179D01*
X125506583Y-73807280D01*
X125499577Y-73805083D01*
X125492418Y-73802595D01*
X125348427Y-73750188D01*
X125341935Y-73747702D01*
X125335729Y-73745073D01*
X125329811Y-73742301D01*
X125324187Y-73739384D01*
X125318850Y-73736328D01*
X125313800Y-73733128D01*
X125309037Y-73729789D01*
X125304567Y-73726303D01*
X125300380Y-73722680D01*
X125296482Y-73718912D01*
X125292875Y-73715001D01*
X125289553Y-73710950D01*
X125286513Y-73706759D01*
X125283764Y-73702429D01*
X125281306Y-73697950D01*
X125279125Y-73693339D01*
X125277241Y-73688574D01*
X125275638Y-73683677D01*
X125274321Y-73678638D01*
X125273290Y-73673455D01*
X125272541Y-73668133D01*
X125272084Y-73662671D01*
X125271912Y-73657071D01*
X125272020Y-73651326D01*
X125272412Y-73645440D01*
X125273090Y-73639415D01*
X125274056Y-73633248D01*
X125275303Y-73626945D01*
X125276838Y-73620496D01*
X125278652Y-73613906D01*
X125280750Y-73607187D01*
X125283136Y-73600317D01*
X125341629Y-73439601D01*
X125342142Y-73438128D01*
X125342591Y-73436678D01*
X125342974Y-73435260D01*
X125343294Y-73433870D01*
X125343553Y-73432513D01*
X125343746Y-73431183D01*
X125343876Y-73429883D01*
X125343943Y-73428612D01*
X125343945Y-73427371D01*
X125343886Y-73426163D01*
X125343761Y-73424980D01*
X125343573Y-73423831D01*
X125343319Y-73422706D01*
X125343006Y-73421616D01*
X125342628Y-73420551D01*
X125342184Y-73419520D01*
X125341678Y-73418513D01*
X125341113Y-73417543D01*
X125340481Y-73416597D01*
X125339786Y-73415682D01*
X125339023Y-73414794D01*
X125338200Y-73413943D01*
X125337312Y-73413117D01*
X125336363Y-73412319D01*
X125335348Y-73411555D01*
X125334272Y-73410817D01*
X125333127Y-73410112D01*
X125331926Y-73409434D01*
X125330653Y-73408787D01*
X125329320Y-73408171D01*
X125327923Y-73407580D01*
X125326462Y-73407023D01*
X125286669Y-73392540D01*
X125285189Y-73392027D01*
X125283740Y-73391581D01*
X125282323Y-73391198D01*
X125280939Y-73390876D01*
X125279573Y-73390619D01*
X125278247Y-73390428D01*
X125276949Y-73390302D01*
X125275678Y-73390232D01*
X125274439Y-73390234D01*
X125273230Y-73390297D01*
X125272052Y-73390422D01*
X125270896Y-73390610D01*
X125269776Y-73390863D01*
X125268684Y-73391180D01*
X125267622Y-73391562D01*
X125266592Y-73392004D01*
X125265587Y-73392513D01*
X125264616Y-73393083D01*
X125263672Y-73393715D01*
X125262756Y-73394412D01*
X125261871Y-73395176D01*
X125261018Y-73396002D01*
X125260193Y-73396892D01*
X125259399Y-73397837D01*
X125258633Y-73398857D01*
X125257898Y-73399935D01*
X125257192Y-73401081D01*
X125256514Y-73402284D01*
X125255867Y-73403558D01*
X125255252Y-73404886D01*
X125254661Y-73406284D01*
X125254108Y-73407746D01*
X125155367Y-73679029D01*
X125124134Y-73667665D01*
X125104726Y-73720983D01*
X125135962Y-73732353D01*
X125048217Y-73973422D01*
X125137316Y-74005846D01*
X125212610Y-73798986D01*
X125340720Y-73845612D01*
X125265426Y-74052476D01*
X125351349Y-74083752D01*
X125438519Y-73844251D01*
X125588103Y-73898699D01*
X125450549Y-74276621D01*
X125184741Y-74179875D01*
X125093883Y-74429512D01*
X124860411Y-75070968D01*
X124807476Y-75094925D01*
X124758675Y-75118408D01*
X124609493Y-75064114D01*
X124583951Y-75014095D01*
X124562055Y-74962376D01*
X124795528Y-74320919D01*
X124776555Y-74280227D01*
X124746718Y-74269364D01*
X124731800Y-74263936D01*
X124655788Y-74472782D01*
X124655350Y-74472623D01*
X124460304Y-75009776D01*
X124427723Y-75099284D01*
X124416867Y-75129121D01*
X124435844Y-75169810D01*
X125077298Y-75403288D01*
X125102851Y-75453299D01*
X125124741Y-75505019D01*
X125070446Y-75654196D01*
X125021089Y-75676486D01*
X124968709Y-75701640D01*
X124327250Y-75468167D01*
X124286560Y-75487140D01*
X124253979Y-75576646D01*
X124243120Y-75606482D01*
X124262096Y-75647178D01*
X124903553Y-75880648D01*
X124929106Y-75930662D01*
X124950995Y-75982387D01*
X124896700Y-76131560D01*
X124847340Y-76153851D01*
X124794965Y-76179000D01*
X124153504Y-75945529D01*
X124112810Y-75964503D01*
X124080235Y-76054012D01*
X124069374Y-76083845D01*
X124088349Y-76124542D01*
X124729809Y-76358013D01*
X124755355Y-76408028D01*
X124777249Y-76459751D01*
X124722953Y-76608925D01*
X124673597Y-76631215D01*
X124621218Y-76656367D01*
X123979759Y-76422893D01*
X123939065Y-76441871D01*
X123906487Y-76531374D01*
X123895630Y-76561211D01*
X123914602Y-76601904D01*
X124556062Y-76835378D01*
X124581610Y-76885390D01*
X124603503Y-76937112D01*
X124549207Y-77086288D01*
X124499850Y-77108577D01*
X124447469Y-77133729D01*
X123806014Y-76900257D01*
X123765317Y-76919232D01*
X123732739Y-77008738D01*
X123721880Y-77038577D01*
X123740858Y-77079267D01*
X124382317Y-77312739D01*
X124407865Y-77362755D01*
X124429756Y-77414475D01*
X124375462Y-77563652D01*
X124326101Y-77585942D01*
X124273725Y-77611091D01*
X123632268Y-77377620D01*
X123591573Y-77396598D01*
X123558995Y-77486102D01*
X123548135Y-77515935D01*
X123567113Y-77556632D01*
X124208570Y-77790104D01*
X124234120Y-77840122D01*
X124256008Y-77891842D01*
X124201717Y-78041012D01*
X124152356Y-78063307D01*
X124099977Y-78088458D01*
X123458518Y-77854985D01*
X123417832Y-77873962D01*
X123385252Y-77963468D01*
X123374389Y-77993301D01*
X123393366Y-78033999D01*
X124034826Y-78267467D01*
X124060373Y-78317484D01*
X124082265Y-78369202D01*
X124027969Y-78518380D01*
X123978611Y-78540669D01*
X123926231Y-78565820D01*
X123284773Y-78332347D01*
X123244078Y-78351325D01*
X123211505Y-78440829D01*
X123200644Y-78470665D01*
X123219618Y-78511359D01*
X123861076Y-78744832D01*
X123886627Y-78794847D01*
X123908516Y-78846567D01*
X123854223Y-78995743D01*
X123804864Y-79018035D01*
X123752486Y-79043186D01*
X123111031Y-78809711D01*
X123070332Y-78828687D01*
X123037752Y-78918193D01*
X123026899Y-78948029D01*
X123045874Y-78988721D01*
X123687332Y-79222198D01*
X123712880Y-79272212D01*
X123734772Y-79323931D01*
X123680475Y-79473110D01*
X123631118Y-79495399D01*
X123578737Y-79520547D01*
X122937281Y-79287076D01*
X122896591Y-79306053D01*
X122864012Y-79395559D01*
X122853152Y-79425395D01*
X122872125Y-79466085D01*
X123513584Y-79699562D01*
X123539134Y-79749575D01*
X123561027Y-79801293D01*
X123506730Y-79950474D01*
X123457373Y-79972761D01*
X123404995Y-79997909D01*
X122763537Y-79764439D01*
X122722840Y-79783415D01*
X122690266Y-79872925D01*
X122679406Y-79902758D01*
X122698381Y-79943450D01*
X123339836Y-80176925D01*
X123365387Y-80226939D01*
X123387275Y-80278657D01*
X123332984Y-80427836D01*
X123283628Y-80450128D01*
X123231249Y-80475277D01*
X122589791Y-80241803D01*
X122549093Y-80260779D01*
X122516517Y-80350288D01*
X122505658Y-80380121D01*
X122524635Y-80420815D01*
X123166092Y-80654287D01*
X123191643Y-80704300D01*
X123213533Y-80756023D01*
X123159236Y-80905199D01*
X123109882Y-80927487D01*
X123057499Y-80952641D01*
X122416042Y-80719168D01*
X122375350Y-80738141D01*
X122342772Y-80827651D01*
X122331912Y-80857484D01*
X122350885Y-80898178D01*
X122992349Y-81131651D01*
X123017893Y-81181667D01*
X123039786Y-81233387D01*
X122985490Y-81382561D01*
X122936131Y-81404852D01*
X122883756Y-81430001D01*
X122242296Y-81196531D01*
X122201602Y-81215505D01*
X122127012Y-81188363D01*
X122137873Y-81158524D01*
X122239609Y-81111085D01*
X122880745Y-81344440D01*
X122921762Y-81325578D01*
X122954339Y-81236075D01*
X122935363Y-81195380D01*
X122293905Y-80961909D01*
X122268298Y-80911508D01*
X122246466Y-80860172D01*
X122268184Y-80800501D01*
X122300764Y-80710996D01*
X122311620Y-80681165D01*
X122413359Y-80633721D01*
X123054494Y-80867076D01*
X123095508Y-80848216D01*
X123128087Y-80758710D01*
X123109112Y-80718013D01*
X122467650Y-80484544D01*
X122442045Y-80434145D01*
X122420212Y-80382809D01*
X122441928Y-80323137D01*
X122474509Y-80233634D01*
X122485368Y-80203796D01*
X122587104Y-80156359D01*
X123228241Y-80389713D01*
X123269255Y-80370850D01*
X123301830Y-80281346D01*
X123282856Y-80240651D01*
X122641399Y-80007177D01*
X122615794Y-79956783D01*
X122593957Y-79905444D01*
X122615675Y-79845778D01*
X122648252Y-79756268D01*
X122659114Y-79726432D01*
X122760849Y-79678990D01*
X123401983Y-79912348D01*
X123443003Y-79893487D01*
X123475579Y-79803982D01*
X123456599Y-79763288D01*
X122815146Y-79529815D01*
X122789537Y-79479417D01*
X122767703Y-79428081D01*
X122789423Y-79368413D01*
X122822001Y-79278902D01*
X122832859Y-79249070D01*
X122934592Y-79201628D01*
X123575733Y-79434984D01*
X123616747Y-79416123D01*
X123649325Y-79326618D01*
X123630349Y-79285926D01*
X122988890Y-79052453D01*
X122963281Y-79002053D01*
X122941453Y-78950719D01*
X122963168Y-78891047D01*
X122995747Y-78801541D01*
X123006603Y-78771705D01*
X123108341Y-78724264D01*
X123749478Y-78957620D01*
X123790493Y-78938761D01*
X123823067Y-78849254D01*
X123804094Y-78808560D01*
X123162637Y-78575089D01*
X123137032Y-78524687D01*
X123115197Y-78473353D01*
X123136914Y-78413685D01*
X123169492Y-78324173D01*
X123180352Y-78294343D01*
X123282088Y-78246900D01*
X123923222Y-78480259D01*
X123964237Y-78461397D01*
X123996818Y-78371891D01*
X123977838Y-78331196D01*
X123336384Y-78097724D01*
X123310779Y-78047326D01*
X123288945Y-77995990D01*
X123310660Y-77936319D01*
X123343240Y-77846812D01*
X123354098Y-77816977D01*
X123455832Y-77769538D01*
X124096970Y-78002889D01*
X124137987Y-77984030D01*
X124170567Y-77894526D01*
X124151587Y-77853831D01*
X123510128Y-77620363D01*
X123484521Y-77569961D01*
X123462688Y-77518624D01*
X123484408Y-77458953D01*
X123516984Y-77369450D01*
X123527844Y-77339613D01*
X123629579Y-77292173D01*
X124270717Y-77525525D01*
X124311729Y-77506670D01*
X124344308Y-77417164D01*
X124325333Y-77376471D01*
X123683875Y-77142996D01*
X123658268Y-77092599D01*
X123636434Y-77041261D01*
X123658152Y-76981590D01*
X123690731Y-76892087D01*
X123701588Y-76862251D01*
X123803326Y-76814812D01*
X124444462Y-77048161D01*
X124485479Y-77029307D01*
X124518054Y-76939800D01*
X124499081Y-76899106D01*
X123857621Y-76665634D01*
X123832016Y-76615235D01*
X123810181Y-76563898D01*
X123831898Y-76504227D01*
X123864480Y-76414722D01*
X123875336Y-76384889D01*
X123977070Y-76337446D01*
X124618207Y-76570801D01*
X124659228Y-76551943D01*
X124691803Y-76462437D01*
X124672828Y-76421743D01*
X124031369Y-76188272D01*
X124005761Y-76137870D01*
X123983927Y-76086533D01*
X124005645Y-76026864D01*
X124038220Y-75937359D01*
X124049086Y-75907525D01*
X124150821Y-75860083D01*
X124791955Y-76093437D01*
X124832970Y-76074578D01*
X124865549Y-75985073D01*
X124846570Y-75944374D01*
X124205111Y-75710908D01*
X124179510Y-75660508D01*
X124157672Y-75609170D01*
X124179392Y-75549498D01*
X124211970Y-75459996D01*
X124222830Y-75430160D01*
X124324565Y-75382718D01*
X124965704Y-75616070D01*
X125006716Y-75597215D01*
X125039293Y-75507705D01*
X125020317Y-75467014D01*
X124378860Y-75233545D01*
X124353251Y-75183141D01*
X124331419Y-75131806D01*
X124353141Y-75072135D01*
X124385716Y-74982630D01*
X124587236Y-74428959D01*
X124587264Y-74428972D01*
X124668073Y-74206953D01*
X124684360Y-74162201D01*
X124773867Y-74194779D01*
X124833535Y-74216497D01*
X124858830Y-74266220D01*
X124880975Y-74318230D01*
X124647508Y-74959687D01*
X124666481Y-75000382D01*
X124755988Y-75032961D01*
X124796796Y-75013665D01*
X125030152Y-74372527D01*
X125110153Y-74152726D01*
X124845861Y-74056530D01*
X124983988Y-73677038D01*
X125015225Y-73688403D01*
X125034629Y-73635084D01*
X125003392Y-73623718D01*
X125118642Y-73307066D01*
X125121351Y-73299988D01*
X125124203Y-73293218D01*
X125127198Y-73286763D01*
X125130342Y-73280620D01*
X125133631Y-73274786D01*
X125137067Y-73269265D01*
X125140653Y-73264051D01*
X125144381Y-73259154D01*
X125148258Y-73254563D01*
X125152278Y-73250284D01*
X125156447Y-73246314D01*
X125160764Y-73242658D01*
X125165230Y-73239314D01*
X125169845Y-73236276D01*
X125174608Y-73233551D01*
X125179515Y-73231132D01*
X125184577Y-73229031D01*
X125189781Y-73227232D01*
X125195138Y-73225748D01*
X125200640Y-73224568D01*
X125206298Y-73223703D01*
X125212101Y-73223144D01*
X125218053Y-73222895D01*
X125224154Y-73222958D01*
X125230406Y-73223330D01*
X125236812Y-73224012D01*
X125243363Y-73225003D01*
X125250071Y-73226298D01*
X125256924Y-73227908D01*
X125263929Y-73229825D01*
X125271087Y-73232046D01*
X125278396Y-73234581D01*
X125419997Y-73286120D01*
X125432714Y-73291214D01*
X125438651Y-73293958D01*
X125444310Y-73296828D01*
X125449690Y-73299833D01*
X125454785Y-73302968D01*
X125459604Y-73306231D01*
X125464140Y-73309628D01*
X125468394Y-73313156D01*
X125472367Y-73316815D01*
X125476060Y-73320607D01*
X125479468Y-73324531D01*
X125482593Y-73328585D01*
X125485441Y-73332768D01*
X125488002Y-73337084D01*
X125490282Y-73341535D01*
X125492281Y-73346115D01*
X125493987Y-73350829D01*
X125495418Y-73355671D01*
X125496567Y-73360650D01*
X125497429Y-73365762D01*
X125498007Y-73370999D01*
X125498305Y-73376374D01*
X125498312Y-73381884D01*
X125498036Y-73387521D01*
X125497478Y-73393295D01*
X125496635Y-73399202D01*
X125495505Y-73405239D01*
X125494090Y-73411412D01*
X125492388Y-73417715D01*
X125490403Y-73424154D01*
X125488126Y-73430726D01*
X125427897Y-73596219D01*
X125427384Y-73597693D01*
X125426938Y-73599141D01*
X125426554Y-73600562D01*
X125426232Y-73601950D01*
X125425975Y-73603308D01*
X125425778Y-73604633D01*
X125425654Y-73605934D01*
X125425587Y-73607205D01*
X125425583Y-73608443D01*
X125425645Y-73609651D01*
X125425767Y-73610828D01*
X125425955Y-73611981D01*
X125426207Y-73613102D01*
X125426524Y-73614193D01*
X125426904Y-73615252D01*
X125427347Y-73616288D01*
X125427850Y-73617289D01*
X125428422Y-73618262D01*
X125429051Y-73619206D01*
X125429750Y-73620119D01*
X125430511Y-73621002D01*
X125431335Y-73621857D01*
X125432220Y-73622681D01*
X125433172Y-73623476D01*
X125434188Y-73624241D01*
X125435265Y-73624974D01*
X125436407Y-73625683D01*
X125437615Y-73626357D01*
X125438882Y-73627006D01*
X125440219Y-73627621D01*
X125441612Y-73628207D01*
X125443071Y-73628767D01*
X125482056Y-73642956D01*
X125483534Y-73643466D01*
X125484976Y-73643913D01*
X125486397Y-73644300D01*
X125487787Y-73644620D01*
X125489143Y-73644875D01*
X125490473Y-73645068D01*
X125491771Y-73645197D01*
X125493042Y-73645263D01*
X125494277Y-73645269D01*
X125495490Y-73645207D01*
X125496670Y-73645080D01*
X125497816Y-73644893D01*
X125498943Y-73644641D01*
X125500030Y-73644325D01*
X125501094Y-73643946D01*
X125502125Y-73643506D01*
X125503129Y-73642997D01*
X125504098Y-73642428D01*
X125505041Y-73641795D01*
X125505956Y-73641098D01*
X125506840Y-73640337D01*
X125507690Y-73639517D01*
X125508516Y-73638626D01*
X125509313Y-73637674D01*
X125510076Y-73636660D01*
X125510813Y-73635582D01*
X125511519Y-73634442D01*
X125512194Y-73633233D01*
X125512841Y-73631966D01*
X125513463Y-73630635D01*
X125514045Y-73629238D01*
X125514603Y-73627776D01*
X125608423Y-73370012D01*
X125634468Y-73379492D01*
X125662562Y-73302311D01*
X125289622Y-73166573D01*
X125283126Y-73164088D01*
X125276920Y-73161465D01*
X125271000Y-73158703D01*
X125265367Y-73155803D01*
X125260025Y-73152764D01*
X125254963Y-73149591D01*
X125250191Y-73146283D01*
X125245709Y-73142830D01*
X125241508Y-73139247D01*
X125237595Y-73135522D01*
X125233967Y-73131661D01*
X125230625Y-73127662D01*
X125227571Y-73123526D01*
X125224799Y-73119255D01*
X125222313Y-73114843D01*
X125220111Y-73110302D01*
X125218196Y-73105621D01*
X125216562Y-73100801D01*
X125215216Y-73095845D01*
X125214149Y-73090755D01*
X125213372Y-73085527D01*
X125212874Y-73080162D01*
X125212661Y-73074664D01*
X125212730Y-73069026D01*
X125213085Y-73063259D01*
X125213725Y-73057345D01*
X125214644Y-73051306D01*
X125215843Y-73045127D01*
X125217327Y-73038812D01*
X125219094Y-73032362D01*
X125221141Y-73025781D01*
X125223475Y-73019058D01*
X125320770Y-72751735D01*
X125472740Y-72807049D01*
X125394557Y-73021868D01*
X125394045Y-73023347D01*
X125393599Y-73024798D01*
X125393210Y-73026210D01*
X125392890Y-73027597D01*
X125392634Y-73028954D01*
X125392442Y-73030283D01*
X125392313Y-73031583D01*
X125392244Y-73032853D01*
X125392242Y-73034094D01*
X125392306Y-73035300D01*
X125392426Y-73036481D01*
X125392619Y-73037633D01*
X125392869Y-73038753D01*
X125393183Y-73039842D01*
X125393557Y-73040910D01*
X125394005Y-73041936D01*
X125394509Y-73042942D01*
X125395079Y-73043911D01*
X125395711Y-73044856D01*
X125396410Y-73045769D01*
X125397170Y-73046650D01*
X125397993Y-73047506D01*
X125398882Y-73048331D01*
X125399832Y-73049123D01*
X125400849Y-73049891D01*
X125401926Y-73050628D01*
X125403066Y-73051331D01*
X125404275Y-73052007D01*
X125405541Y-73052655D01*
X125406874Y-73053273D01*
X125408270Y-73053859D01*
X125409731Y-73054414D01*
X125662748Y-73146505D01*
X125664224Y-73147018D01*
X125665673Y-73147467D01*
X125667090Y-73147849D01*
X125668476Y-73148170D01*
X125669836Y-73148429D01*
X125671165Y-73148623D01*
X125672463Y-73148748D01*
X125673734Y-73148820D01*
X125674971Y-73148820D01*
X125676181Y-73148759D01*
X125677362Y-73148631D01*
X125678509Y-73148446D01*
X125679630Y-73148195D01*
X125680727Y-73147878D01*
X125681783Y-73147501D01*
X125682815Y-73147058D01*
X125683821Y-73146554D01*
X125684795Y-73145980D01*
X125685731Y-73145348D01*
X125686647Y-73144650D01*
X125687529Y-73143892D01*
X125688385Y-73143067D01*
X125689212Y-73142180D01*
X125690006Y-73141229D01*
X125690771Y-73140214D01*
X125691505Y-73139134D01*
X125692208Y-73137995D01*
X125692888Y-73136790D01*
X125693536Y-73135520D01*
X125694149Y-73134188D01*
X125694740Y-73132791D01*
X125695295Y-73131326D01*
X125772899Y-72918109D01*
X125798946Y-72927594D01*
X125820378Y-72868708D01*
X125794333Y-72859230D01*
X125887864Y-72602247D01*
X125888552Y-72600254D01*
X125889151Y-72598304D01*
X125889666Y-72596397D01*
X125890089Y-72594527D01*
X125890428Y-72592699D01*
X125890674Y-72590914D01*
X125890836Y-72589170D01*
X125890911Y-72587465D01*
X125890896Y-72585805D01*
X125890802Y-72584181D01*
X125890620Y-72582600D01*
X125890351Y-72581064D01*
X125890000Y-72579564D01*
X125889561Y-72578111D01*
X125889040Y-72576694D01*
X125888437Y-72575317D01*
X125887749Y-72573987D01*
X125886975Y-72572691D01*
X125886121Y-72571439D01*
X125885186Y-72570229D01*
X125884162Y-72569058D01*
X125883065Y-72567929D01*
X125881880Y-72566841D01*
X125880618Y-72565786D01*
X125879275Y-72564778D01*
X125877849Y-72563813D01*
X125876342Y-72562884D01*
X125874760Y-72562000D01*
X125873094Y-72561151D01*
X125871354Y-72560343D01*
X125867628Y-72558854D01*
X125850120Y-72552480D01*
X125846174Y-72551182D01*
X125844268Y-72550663D01*
X125842407Y-72550222D01*
X125840586Y-72549868D01*
X125838807Y-72549602D01*
X125837070Y-72549420D01*
X125835377Y-72549321D01*
X125833721Y-72549310D01*
X125832112Y-72549384D01*
X125830540Y-72549538D01*
X125829009Y-72549780D01*
X125827517Y-72550111D01*
X125826072Y-72550526D01*
X125824664Y-72551024D01*
X125823292Y-72551605D01*
X125821973Y-72552281D01*
X125820680Y-72553040D01*
X125819432Y-72553882D01*
X125818226Y-72554810D01*
X125817053Y-72555827D01*
X125815923Y-72556927D01*
X125814832Y-72558115D01*
X125813781Y-72559389D01*
X125812766Y-72560753D01*
X125811783Y-72562203D01*
X125810851Y-72563734D01*
X125809948Y-72565356D01*
X125809083Y-72567068D01*
X125808262Y-72568862D01*
X125806720Y-72572717D01*
X125747940Y-72734217D01*
X125745458Y-72740710D01*
X125742841Y-72746921D01*
X125740091Y-72752845D01*
X125737210Y-72758484D01*
X125734193Y-72763835D01*
X125731045Y-72768905D01*
X125727763Y-72773687D01*
X125724350Y-72778188D01*
X125720805Y-72782400D01*
X125717124Y-72786329D01*
X125713313Y-72789969D01*
X125709368Y-72793336D01*
X125705290Y-72796415D01*
X125701083Y-72799209D01*
X125696740Y-72801718D01*
X125692266Y-72803943D01*
X125687661Y-72805889D01*
X125682926Y-72807548D01*
X125678055Y-72808930D01*
X125673055Y-72810026D01*
X125667924Y-72810841D01*
X125662661Y-72811375D01*
X125657265Y-72811624D01*
X125651739Y-72811594D01*
X125646080Y-72811282D01*
X125640292Y-72810688D01*
X125634376Y-72809815D01*
X125628326Y-72808661D01*
X125622144Y-72807224D01*
X125615832Y-72805508D01*
X125609389Y-72803513D01*
X125602813Y-72801234D01*
X125337853Y-72704797D01*
X125496827Y-72268022D01*
X125528059Y-72279389D01*
X125562812Y-72183911D01*
X125531580Y-72172543D01*
X125581971Y-72034085D01*
X125846264Y-72130280D01*
X126720434Y-69728514D01*
X126747584Y-69653927D01*
X126953788Y-69087378D01*
X126934931Y-69046364D01*
X126845426Y-69013787D01*
X126804730Y-69032765D01*
X126571259Y-69674223D01*
X126520859Y-69699826D01*
X126469525Y-69721661D01*
X126409850Y-69699942D01*
X126320349Y-69667367D01*
X126336634Y-69622612D01*
X126347493Y-69592774D01*
X126417443Y-69400595D01*
X126417416Y-69400583D01*
X126618943Y-68846885D01*
X126651521Y-68757378D01*
X126673241Y-68697708D01*
X126722967Y-68672419D01*
X126774974Y-68650270D01*
X127416434Y-68883740D01*
X127457126Y-68864763D01*
X127489703Y-68775255D01*
X127470408Y-68734446D01*
X126829272Y-68501092D01*
X126781829Y-68399355D01*
X126792691Y-68369521D01*
X126825267Y-68280010D01*
X126846986Y-68220346D01*
X126896711Y-68195054D01*
X126948718Y-68172903D01*
X127590178Y-68406376D01*
X127630873Y-68387402D01*
X127663453Y-68297893D01*
X127644154Y-68257082D01*
X127003015Y-68023730D01*
X126955576Y-67921991D01*
X126966435Y-67892156D01*
X126999012Y-67802648D01*
X127020735Y-67742983D01*
X127070456Y-67717690D01*
X127122467Y-67695539D01*
X127763925Y-67929011D01*
X127804619Y-67910035D01*
X127837194Y-67820528D01*
X127817900Y-67779721D01*
X127176763Y-67546365D01*
X127129319Y-67444627D01*
X127140182Y-67414793D01*
X127172758Y-67325285D01*
X127194476Y-67265616D01*
X127244205Y-67240326D01*
X127296215Y-67218177D01*
X127937674Y-67451647D01*
X127978364Y-67432673D01*
X128010943Y-67343164D01*
X127991646Y-67302356D01*
X127350510Y-67069003D01*
X127303069Y-66967262D01*
X127313927Y-66937430D01*
X127346507Y-66847922D01*
X127368221Y-66788254D01*
X127417948Y-66762961D01*
X127469959Y-66740810D01*
X128111418Y-66974285D01*
X128152110Y-66955311D01*
X128184689Y-66865802D01*
X128165390Y-66824990D01*
X127524257Y-66591639D01*
X127476814Y-66489902D01*
X127487675Y-66460069D01*
X127520253Y-66370562D01*
X127541969Y-66310890D01*
X127591695Y-66285599D01*
X127643707Y-66263449D01*
X128285162Y-66496921D01*
X128325859Y-66477945D01*
X128358436Y-66388436D01*
X128339134Y-66347628D01*
X127698000Y-66114273D01*
X127650562Y-66012533D01*
X127661420Y-65982702D01*
X127694000Y-65893195D01*
X127715715Y-65833526D01*
X127765441Y-65808231D01*
X127817452Y-65786086D01*
X128458909Y-66019558D01*
X128499606Y-66000578D01*
X128532184Y-65911073D01*
X128512884Y-65870263D01*
X127871747Y-65636909D01*
X127824307Y-65535175D01*
X127835166Y-65505336D01*
X127867742Y-65415832D01*
X127889462Y-65356160D01*
X127939187Y-65330871D01*
X127991198Y-65308722D01*
X128632658Y-65542193D01*
X128673351Y-65523213D01*
X128705927Y-65433708D01*
X128686632Y-65392899D01*
X128045493Y-65159541D01*
X127998053Y-65057809D01*
X128008916Y-65027974D01*
X128041489Y-64938468D01*
X128063212Y-64878796D01*
X128112935Y-64853505D01*
X128164945Y-64831356D01*
X128806401Y-65064827D01*
X128847093Y-65045850D01*
X128879676Y-64956345D01*
X128860380Y-64915535D01*
X128219240Y-64682176D01*
X128171799Y-64580444D01*
X128182661Y-64550607D01*
X128215238Y-64461104D01*
X128236956Y-64401436D01*
X128286680Y-64376141D01*
X128338690Y-64353994D01*
X128980148Y-64587463D01*
X129020843Y-64568488D01*
X129053421Y-64478980D01*
X129034121Y-64438171D01*
X128392986Y-64204816D01*
X128345544Y-64103080D01*
X128356405Y-64073247D01*
X128388981Y-63983738D01*
X128410700Y-63924069D01*
X128460423Y-63898778D01*
X128512438Y-63876630D01*
X129153896Y-64110100D01*
X129194589Y-64091123D01*
X129227165Y-64001620D01*
X129207869Y-63960807D01*
X128566732Y-63727450D01*
X128519291Y-63625716D01*
X128530151Y-63595882D01*
X128562730Y-63506378D01*
X128584446Y-63446706D01*
X128634171Y-63421414D01*
X128686181Y-63399265D01*
X129327642Y-63632734D01*
X129368335Y-63613760D01*
X129400913Y-63524256D01*
X129381619Y-63483443D01*
X128740481Y-63250086D01*
X128693041Y-63148352D01*
X128703899Y-63118517D01*
X128736476Y-63029008D01*
X128758195Y-62969343D01*
X128807918Y-62944052D01*
X128859924Y-62921900D01*
X129501386Y-63155372D01*
X129542080Y-63136394D01*
X129574660Y-63046891D01*
X129555363Y-63006080D01*
X128914226Y-62772729D01*
X128866783Y-62670988D01*
X128877644Y-62641154D01*
X128952232Y-62668300D01*
G37*
G36*
X126597100Y-71106101D02*
G01*
X126578304Y-71157733D01*
X126459868Y-71114626D01*
X126552027Y-71229932D01*
X126534011Y-71279433D01*
X126307277Y-71196910D01*
X126326058Y-71145313D01*
X126445982Y-71188961D01*
X126354614Y-71066847D01*
X126370362Y-71023579D01*
X126597100Y-71106101D01*
G37*
G36*
X126112312Y-71277659D02*
G01*
X126093520Y-71329292D01*
X125975082Y-71286182D01*
X126067242Y-71401492D01*
X126049213Y-71451023D01*
X125822480Y-71368496D01*
X125841270Y-71316871D01*
X125961195Y-71360516D01*
X125869826Y-71238405D01*
X125885573Y-71195136D01*
X126112312Y-71277659D01*
G37*
G36*
X142571861Y-133158926D02*
G01*
X141932182Y-133158926D01*
X141932182Y-132519712D01*
X142571864Y-132519712D01*
X142571861Y-133158926D01*
G37*
G36*
X126164132Y-70506919D02*
G01*
X126166479Y-70507051D01*
X126168880Y-70507306D01*
X126171338Y-70507680D01*
X126173850Y-70508167D01*
X126176417Y-70508767D01*
X126179049Y-70509485D01*
X126181731Y-70510319D01*
X126184472Y-70511267D01*
X126237587Y-70530601D01*
X126242352Y-70532512D01*
X126244585Y-70533541D01*
X126246703Y-70534622D01*
X126248718Y-70535750D01*
X126250630Y-70536918D01*
X126252437Y-70538144D01*
X126254135Y-70539421D01*
X126255728Y-70540740D01*
X126257218Y-70542115D01*
X126258605Y-70543536D01*
X126259884Y-70545009D01*
X126261052Y-70546525D01*
X126262120Y-70548097D01*
X126263079Y-70549718D01*
X126263933Y-70551384D01*
X126264682Y-70553100D01*
X126265323Y-70554874D01*
X126265860Y-70556688D01*
X126266288Y-70558551D01*
X126266609Y-70560471D01*
X126266827Y-70562438D01*
X126266936Y-70564451D01*
X126266937Y-70566516D01*
X126266838Y-70568633D01*
X126266625Y-70570797D01*
X126266307Y-70573012D01*
X126265884Y-70575273D01*
X126265354Y-70577592D01*
X126264714Y-70579958D01*
X126263968Y-70582370D01*
X126263117Y-70584834D01*
X126240530Y-70646899D01*
X126240340Y-70647447D01*
X126240170Y-70647991D01*
X126240028Y-70648523D01*
X126239905Y-70649045D01*
X126239809Y-70649551D01*
X126239737Y-70650052D01*
X126239687Y-70650536D01*
X126239667Y-70651016D01*
X126239664Y-70651479D01*
X126239684Y-70651929D01*
X126239733Y-70652374D01*
X126239801Y-70652803D01*
X126239897Y-70653225D01*
X126240016Y-70653635D01*
X126240154Y-70654031D01*
X126240325Y-70654416D01*
X126240513Y-70654792D01*
X126240725Y-70655159D01*
X126240963Y-70655514D01*
X126241224Y-70655855D01*
X126241508Y-70656183D01*
X126241818Y-70656506D01*
X126242149Y-70656816D01*
X126242508Y-70657110D01*
X126242887Y-70657396D01*
X126243291Y-70657674D01*
X126243721Y-70657936D01*
X126244171Y-70658194D01*
X126244648Y-70658433D01*
X126245150Y-70658665D01*
X126245668Y-70658887D01*
X126246219Y-70659094D01*
X126260844Y-70664419D01*
X126261398Y-70664611D01*
X126261943Y-70664775D01*
X126262472Y-70664922D01*
X126262989Y-70665043D01*
X126263501Y-70665137D01*
X126264000Y-70665212D01*
X126264489Y-70665263D01*
X126264962Y-70665284D01*
X126265427Y-70665285D01*
X126265881Y-70665263D01*
X126266326Y-70665217D01*
X126266756Y-70665146D01*
X126267173Y-70665051D01*
X126267584Y-70664932D01*
X126267981Y-70664790D01*
X126268368Y-70664624D01*
X126268743Y-70664436D01*
X126269107Y-70664221D01*
X126269459Y-70663987D01*
X126269802Y-70663725D01*
X126270135Y-70663439D01*
X126270455Y-70663130D01*
X126270764Y-70662798D01*
X126271062Y-70662439D01*
X126271348Y-70662059D01*
X126271624Y-70661658D01*
X126271891Y-70661225D01*
X126272141Y-70660775D01*
X126272385Y-70660302D01*
X126272618Y-70659799D01*
X126272836Y-70659276D01*
X126273045Y-70658731D01*
X126308234Y-70562053D01*
X126365219Y-70582798D01*
X126322651Y-70699751D01*
X126321707Y-70702216D01*
X126320711Y-70704567D01*
X126319658Y-70706814D01*
X126318547Y-70708949D01*
X126317377Y-70710973D01*
X126316157Y-70712888D01*
X126314879Y-70714698D01*
X126313549Y-70716395D01*
X126312163Y-70717985D01*
X126310715Y-70719463D01*
X126309215Y-70720833D01*
X126307661Y-70722095D01*
X126306049Y-70723247D01*
X126304380Y-70724288D01*
X126302653Y-70725221D01*
X126300876Y-70726042D01*
X126299042Y-70726755D01*
X126297145Y-70727361D01*
X126295198Y-70727854D01*
X126293195Y-70728239D01*
X126291132Y-70728516D01*
X126289012Y-70728685D01*
X126286839Y-70728736D01*
X126284608Y-70728683D01*
X126282320Y-70728518D01*
X126279978Y-70728245D01*
X126277577Y-70727864D01*
X126275120Y-70727368D01*
X126272606Y-70726766D01*
X126270031Y-70726052D01*
X126267403Y-70725231D01*
X126264719Y-70724301D01*
X126210732Y-70704650D01*
X126208297Y-70703717D01*
X126205974Y-70702729D01*
X126203752Y-70701687D01*
X126201643Y-70700593D01*
X126199643Y-70699446D01*
X126197751Y-70698251D01*
X126195962Y-70696992D01*
X126194287Y-70695687D01*
X126192714Y-70694325D01*
X126191256Y-70692910D01*
X126189901Y-70691446D01*
X126188657Y-70689925D01*
X126187520Y-70688355D01*
X126186490Y-70686725D01*
X126185564Y-70685046D01*
X126184750Y-70683315D01*
X126184045Y-70681528D01*
X126183440Y-70679692D01*
X126182946Y-70677802D01*
X126182562Y-70675854D01*
X126182281Y-70673862D01*
X126182113Y-70671814D01*
X126182044Y-70669712D01*
X126182086Y-70667557D01*
X126182233Y-70665347D01*
X126182488Y-70663085D01*
X126182851Y-70660772D01*
X126183317Y-70658406D01*
X126183893Y-70655990D01*
X126184577Y-70653521D01*
X126185362Y-70650997D01*
X126186256Y-70648424D01*
X126208184Y-70588168D01*
X126208381Y-70587616D01*
X126208549Y-70587070D01*
X126208691Y-70586541D01*
X126208813Y-70586018D01*
X126208908Y-70585513D01*
X126208981Y-70585012D01*
X126209032Y-70584528D01*
X126209055Y-70584050D01*
X126209054Y-70583585D01*
X126209034Y-70583127D01*
X126208988Y-70582685D01*
X126208918Y-70582249D01*
X126208824Y-70581829D01*
X126208706Y-70581419D01*
X126208567Y-70581020D01*
X126208400Y-70580631D01*
X126208215Y-70580254D01*
X126207999Y-70579889D01*
X126207760Y-70579538D01*
X126207498Y-70579192D01*
X126207216Y-70578857D01*
X126206905Y-70578538D01*
X126206575Y-70578228D01*
X126206220Y-70577930D01*
X126205838Y-70577639D01*
X126205433Y-70577363D01*
X126205007Y-70577101D01*
X126204556Y-70576843D01*
X126204078Y-70576602D01*
X126203576Y-70576371D01*
X126203056Y-70576151D01*
X126202505Y-70575940D01*
X126187593Y-70570509D01*
X126187038Y-70570316D01*
X126186490Y-70570152D01*
X126185961Y-70570009D01*
X126185442Y-70569888D01*
X126184932Y-70569793D01*
X126184434Y-70569721D01*
X126183946Y-70569670D01*
X126183470Y-70569648D01*
X126183006Y-70569651D01*
X126182552Y-70569671D01*
X126182106Y-70569721D01*
X126181675Y-70569792D01*
X126181258Y-70569888D01*
X126180846Y-70570008D01*
X126180452Y-70570151D01*
X126180062Y-70570318D01*
X126179685Y-70570509D01*
X126179319Y-70570723D01*
X126178964Y-70570962D01*
X126178625Y-70571226D01*
X126178293Y-70571512D01*
X126177970Y-70571821D01*
X126177661Y-70572154D01*
X126177364Y-70572513D01*
X126177077Y-70572894D01*
X126176798Y-70573297D01*
X126176537Y-70573728D01*
X126176283Y-70574179D01*
X126176040Y-70574660D01*
X126175810Y-70575160D01*
X126175588Y-70575681D01*
X126175379Y-70576229D01*
X126138349Y-70677971D01*
X126081356Y-70657227D01*
X126124582Y-70538471D01*
X126125595Y-70535815D01*
X126126667Y-70533279D01*
X126127788Y-70530856D01*
X126128968Y-70528553D01*
X126130203Y-70526363D01*
X126131488Y-70524296D01*
X126132832Y-70522338D01*
X126134235Y-70520501D01*
X126135685Y-70518778D01*
X126137191Y-70517175D01*
X126138753Y-70515683D01*
X126140374Y-70514311D01*
X126142044Y-70513055D01*
X126143776Y-70511916D01*
X126145561Y-70510896D01*
X126147399Y-70509984D01*
X126149298Y-70509198D01*
X126151248Y-70508520D01*
X126153255Y-70507965D01*
X126155320Y-70507520D01*
X126157439Y-70507195D01*
X126159613Y-70506984D01*
X126161845Y-70506893D01*
X126164132Y-70506919D01*
G37*
G36*
X126390465Y-71496499D02*
G01*
X126409365Y-71444578D01*
X126466354Y-71465325D01*
X126409885Y-71620471D01*
X126352893Y-71599727D01*
X126371792Y-71547809D01*
X126202050Y-71486026D01*
X126220719Y-71434716D01*
X126390465Y-71496499D01*
G37*
G36*
X143211693Y-132519729D02*
G01*
X142572014Y-132519729D01*
X142572014Y-131880513D01*
X143211693Y-131880513D01*
X143211693Y-132519729D01*
G37*
G36*
X143211693Y-131880513D02*
G01*
X142572014Y-131880513D01*
X142572014Y-131241303D01*
X143211696Y-131241302D01*
X143211693Y-131880513D01*
G37*
G36*
X126000082Y-71462539D02*
G01*
X126002517Y-71463471D01*
X126004843Y-71464455D01*
X126007062Y-71465497D01*
X126009170Y-71466590D01*
X126011176Y-71467735D01*
X126013066Y-71468935D01*
X126014851Y-71470188D01*
X126016531Y-71471495D01*
X126018100Y-71472854D01*
X126019564Y-71474265D01*
X126020915Y-71475733D01*
X126022160Y-71477248D01*
X126023301Y-71478824D01*
X126024333Y-71480449D01*
X126025256Y-71482127D01*
X126026068Y-71483856D01*
X126026776Y-71485638D01*
X126027379Y-71487477D01*
X126027875Y-71489367D01*
X126028261Y-71491309D01*
X126028539Y-71493304D01*
X126028713Y-71495349D01*
X126028775Y-71497454D01*
X126028739Y-71499607D01*
X126028588Y-71501814D01*
X126028334Y-71504075D01*
X126027973Y-71506385D01*
X126027505Y-71508750D01*
X126026932Y-71511164D01*
X126026250Y-71513635D01*
X126025465Y-71516156D01*
X126024571Y-71518734D01*
X125992533Y-71606754D01*
X125990545Y-71611738D01*
X125989479Y-71614072D01*
X125988363Y-71616291D01*
X125987203Y-71618407D01*
X125985992Y-71620407D01*
X125984734Y-71622304D01*
X125983428Y-71624092D01*
X125982075Y-71625766D01*
X125980677Y-71627334D01*
X125979225Y-71628795D01*
X125977730Y-71630143D01*
X125976180Y-71631387D01*
X125974589Y-71632516D01*
X125972946Y-71633537D01*
X125971258Y-71634453D01*
X125969523Y-71635256D01*
X125967730Y-71635950D01*
X125965899Y-71636527D01*
X125964017Y-71637005D01*
X125962086Y-71637366D01*
X125960104Y-71637622D01*
X125958077Y-71637764D01*
X125955999Y-71637797D01*
X125953878Y-71637721D01*
X125951700Y-71637534D01*
X125949483Y-71637239D01*
X125947210Y-71636831D01*
X125944893Y-71636311D01*
X125942524Y-71635684D01*
X125940107Y-71634945D01*
X125937644Y-71634092D01*
X125912875Y-71625078D01*
X125750591Y-71566015D01*
X125750624Y-71565924D01*
X125910088Y-71565924D01*
X125931562Y-71573741D01*
X125932118Y-71573932D01*
X125932659Y-71574099D01*
X125933193Y-71574245D01*
X125933713Y-71574361D01*
X125934221Y-71574460D01*
X125934716Y-71574533D01*
X125935209Y-71574583D01*
X125935685Y-71574612D01*
X125936149Y-71574611D01*
X125936605Y-71574588D01*
X125937045Y-71574540D01*
X125937480Y-71574472D01*
X125937903Y-71574378D01*
X125938314Y-71574258D01*
X125938711Y-71574119D01*
X125939102Y-71573951D01*
X125939476Y-71573762D01*
X125939842Y-71573552D01*
X125940197Y-71573317D01*
X125940540Y-71573053D01*
X125940872Y-71572768D01*
X125941195Y-71572459D01*
X125941503Y-71572128D01*
X125941805Y-71571770D01*
X125942090Y-71571393D01*
X125942366Y-71570986D01*
X125942635Y-71570558D01*
X125942885Y-71570108D01*
X125943131Y-71569630D01*
X125943362Y-71569131D01*
X125943580Y-71568607D01*
X125943789Y-71568059D01*
X125962256Y-71517336D01*
X125962448Y-71516780D01*
X125962614Y-71516240D01*
X125962757Y-71515708D01*
X125962878Y-71515187D01*
X125962972Y-71514676D01*
X125963046Y-71514178D01*
X125963092Y-71513691D01*
X125963118Y-71513215D01*
X125963117Y-71512749D01*
X125963091Y-71512294D01*
X125963042Y-71511852D01*
X125962977Y-71511423D01*
X125962876Y-71511002D01*
X125962759Y-71510591D01*
X125962613Y-71510193D01*
X125962446Y-71509809D01*
X125962257Y-71509431D01*
X125962045Y-71509065D01*
X125961800Y-71508711D01*
X125961541Y-71508371D01*
X125961254Y-71508037D01*
X125960945Y-71507716D01*
X125960608Y-71507405D01*
X125960251Y-71507112D01*
X125959869Y-71506823D01*
X125959465Y-71506546D01*
X125959037Y-71506284D01*
X125958582Y-71506029D01*
X125958107Y-71505787D01*
X125957606Y-71505553D01*
X125957082Y-71505331D01*
X125956533Y-71505127D01*
X125935062Y-71497309D01*
X125910088Y-71565924D01*
X125750624Y-71565924D01*
X125769275Y-71514672D01*
X125862359Y-71548554D01*
X125887336Y-71479937D01*
X125794246Y-71446057D01*
X125813028Y-71394453D01*
X126000082Y-71462539D01*
G37*
G36*
X154167018Y-84687850D02*
G01*
X154697421Y-84766739D01*
X154703630Y-84768688D01*
X154709693Y-84770932D01*
X154715598Y-84773460D01*
X154721334Y-84776262D01*
X154726891Y-84779332D01*
X154732259Y-84782659D01*
X154737425Y-84786234D01*
X154742378Y-84790049D01*
X154747108Y-84794095D01*
X154751604Y-84798363D01*
X154755855Y-84802844D01*
X154759850Y-84807530D01*
X154763575Y-84812409D01*
X154767024Y-84817476D01*
X154770183Y-84822718D01*
X154773042Y-84828131D01*
X154775234Y-84833176D01*
X154778476Y-84841477D01*
X154787493Y-84866079D01*
X154798837Y-84898430D01*
X154811256Y-84935022D01*
X155117037Y-85843118D01*
X155392420Y-86660197D01*
X155376153Y-86722395D01*
X155359885Y-86784595D01*
X154711045Y-87367644D01*
X154062204Y-87950693D01*
X154032571Y-87965331D01*
X154030927Y-87966143D01*
X154002939Y-87979969D01*
X153414615Y-88101413D01*
X152870182Y-88213799D01*
X152826293Y-88222858D01*
X152761965Y-88190681D01*
X152697638Y-88158505D01*
X152118744Y-86931997D01*
X151829457Y-86318725D01*
X151652461Y-85942417D01*
X151572653Y-85770983D01*
X151830946Y-85770983D01*
X152870183Y-87972805D01*
X153343345Y-87876339D01*
X153820248Y-87777107D01*
X153808543Y-87741663D01*
X153754556Y-87600544D01*
X153434325Y-86780754D01*
X153158634Y-86077532D01*
X153092771Y-85910573D01*
X153042762Y-85783804D01*
X152886298Y-85780844D01*
X152435969Y-85776276D01*
X151830946Y-85770983D01*
X151572653Y-85770983D01*
X151563734Y-85751824D01*
X151548976Y-85719060D01*
X153273338Y-85719060D01*
X154030927Y-87658347D01*
X154037327Y-87653905D01*
X154057115Y-87637195D01*
X154146175Y-87558658D01*
X154587507Y-87163046D01*
X155143761Y-86663004D01*
X154600834Y-85049561D01*
X154410055Y-85144118D01*
X153936925Y-85382748D01*
X153273338Y-85719060D01*
X151548976Y-85719060D01*
X151544965Y-85710156D01*
X151540663Y-85699926D01*
X151539253Y-85695697D01*
X151539102Y-85693682D01*
X151538904Y-85691707D01*
X151538666Y-85689824D01*
X151538397Y-85688081D01*
X151538254Y-85687279D01*
X151538105Y-85686529D01*
X151537953Y-85685841D01*
X151537799Y-85685219D01*
X151537644Y-85684670D01*
X151537488Y-85684199D01*
X151537333Y-85683814D01*
X151537179Y-85683520D01*
X151537020Y-85683207D01*
X151536849Y-85682770D01*
X151536473Y-85681550D01*
X151536066Y-85679921D01*
X151535640Y-85677951D01*
X151535208Y-85675700D01*
X151534784Y-85673233D01*
X151534381Y-85670616D01*
X151534009Y-85667912D01*
X151533308Y-85660686D01*
X151533050Y-85653453D01*
X151533226Y-85646240D01*
X151533825Y-85639072D01*
X151534840Y-85631975D01*
X151536260Y-85624977D01*
X151538075Y-85618101D01*
X151540279Y-85611374D01*
X151542858Y-85604820D01*
X151545807Y-85598469D01*
X151549114Y-85592343D01*
X151552771Y-85586470D01*
X151556768Y-85580877D01*
X151561096Y-85575586D01*
X151565746Y-85570625D01*
X151570708Y-85566021D01*
X151576084Y-85561315D01*
X151581468Y-85556499D01*
X151586234Y-85552136D01*
X151588190Y-85550300D01*
X151589758Y-85548792D01*
X151616099Y-85536212D01*
X152165017Y-85536212D01*
X152187792Y-85537590D01*
X152268783Y-85539006D01*
X152660970Y-85542683D01*
X153092771Y-85546147D01*
X153687806Y-85244818D01*
X154107354Y-85031623D01*
X154234441Y-84966472D01*
X154280473Y-84942192D01*
X154184831Y-84927715D01*
X153958210Y-84894729D01*
X153638316Y-84848563D01*
X152901993Y-85192115D01*
X152165017Y-85536212D01*
X151616099Y-85536212D01*
X151824371Y-85436743D01*
X152583713Y-85081668D01*
X153571138Y-84620958D01*
X153600079Y-84616595D01*
X153606055Y-84615717D01*
X153611945Y-84614901D01*
X153617597Y-84614160D01*
X153622857Y-84613512D01*
X153627577Y-84612978D01*
X153631605Y-84612575D01*
X153634790Y-84612319D01*
X153636979Y-84612230D01*
X154167018Y-84687850D01*
G37*
G36*
X126328107Y-70054535D02*
G01*
X126330271Y-70054741D01*
X126332489Y-70055056D01*
X126334751Y-70055481D01*
X126337068Y-70056008D01*
X126339433Y-70056645D01*
X126344314Y-70058244D01*
X126489903Y-70111235D01*
X126494884Y-70113228D01*
X126497207Y-70114295D01*
X126499422Y-70115415D01*
X126501524Y-70116579D01*
X126503516Y-70117800D01*
X126505399Y-70119065D01*
X126507168Y-70120381D01*
X126508829Y-70121750D01*
X126510377Y-70123163D01*
X126511813Y-70124627D01*
X126513143Y-70126143D01*
X126514359Y-70127710D01*
X126515464Y-70129328D01*
X126516461Y-70130996D01*
X126517347Y-70132712D01*
X126518119Y-70134482D01*
X126518783Y-70136304D01*
X126519337Y-70138174D01*
X126519781Y-70140097D01*
X126520112Y-70142067D01*
X126520334Y-70144093D01*
X126520450Y-70146171D01*
X126520450Y-70148298D01*
X126520340Y-70150477D01*
X126520122Y-70152711D01*
X126519789Y-70154995D01*
X126519353Y-70157332D01*
X126518799Y-70159722D01*
X126518138Y-70162160D01*
X126517369Y-70164655D01*
X126516482Y-70167203D01*
X126486623Y-70249248D01*
X126485674Y-70251742D01*
X126484666Y-70254125D01*
X126483607Y-70256401D01*
X126482505Y-70258566D01*
X126481343Y-70260627D01*
X126480134Y-70262577D01*
X126478868Y-70264419D01*
X126477552Y-70266152D01*
X126476184Y-70267778D01*
X126474766Y-70269296D01*
X126473295Y-70270706D01*
X126471770Y-70272004D01*
X126470194Y-70273194D01*
X126468564Y-70274275D01*
X126466889Y-70275248D01*
X126465153Y-70276114D01*
X126463369Y-70276864D01*
X126461531Y-70277510D01*
X126459639Y-70278049D01*
X126457697Y-70278476D01*
X126455700Y-70278793D01*
X126453654Y-70278998D01*
X126451556Y-70279100D01*
X126449405Y-70279084D01*
X126447198Y-70278963D01*
X126444942Y-70278736D01*
X126442632Y-70278395D01*
X126440264Y-70277942D01*
X126437849Y-70277383D01*
X126435378Y-70276708D01*
X126432858Y-70275927D01*
X126430285Y-70275039D01*
X126405810Y-70266127D01*
X126284693Y-70222045D01*
X126282254Y-70221112D01*
X126279930Y-70220129D01*
X126277709Y-70219093D01*
X126275598Y-70218007D01*
X126273595Y-70216869D01*
X126271696Y-70215680D01*
X126269905Y-70214438D01*
X126268225Y-70213143D01*
X126266649Y-70211795D01*
X126265184Y-70210397D01*
X126263822Y-70208950D01*
X126262571Y-70207454D01*
X126261420Y-70205903D01*
X126260386Y-70204300D01*
X126259453Y-70202647D01*
X126258625Y-70200941D01*
X126257908Y-70199189D01*
X126257294Y-70197381D01*
X126256789Y-70195523D01*
X126256388Y-70193611D01*
X126256101Y-70191650D01*
X126255914Y-70189638D01*
X126255832Y-70187578D01*
X126255859Y-70185465D01*
X126255992Y-70183302D01*
X126256230Y-70181084D01*
X126256575Y-70178818D01*
X126257027Y-70176501D01*
X126257583Y-70174133D01*
X126258071Y-70172355D01*
X126323176Y-70172355D01*
X126323200Y-70172808D01*
X126323246Y-70173252D01*
X126323318Y-70173682D01*
X126323411Y-70174104D01*
X126323533Y-70174512D01*
X126323672Y-70174904D01*
X126323838Y-70175296D01*
X126324030Y-70175671D01*
X126324243Y-70176037D01*
X126324477Y-70176389D01*
X126324740Y-70176729D01*
X126325027Y-70177059D01*
X126325334Y-70177381D01*
X126325665Y-70177693D01*
X126326022Y-70177991D01*
X126326406Y-70178276D01*
X126326807Y-70178548D01*
X126327234Y-70178812D01*
X126327690Y-70179067D01*
X126328165Y-70179314D01*
X126328663Y-70179545D01*
X126329188Y-70179761D01*
X126329735Y-70179969D01*
X126424600Y-70214499D01*
X126425154Y-70214689D01*
X126425696Y-70214860D01*
X126426227Y-70215005D01*
X126426749Y-70215122D01*
X126427257Y-70215222D01*
X126427759Y-70215294D01*
X126428245Y-70215342D01*
X126428718Y-70215366D01*
X126429185Y-70215369D01*
X126429641Y-70215344D01*
X126430081Y-70215299D01*
X126430511Y-70215228D01*
X126430928Y-70215134D01*
X126431341Y-70215015D01*
X126431737Y-70214871D01*
X126432126Y-70214707D01*
X126432499Y-70214519D01*
X126432865Y-70214306D01*
X126433217Y-70214066D01*
X126433561Y-70213808D01*
X126433892Y-70213524D01*
X126434210Y-70213215D01*
X126434522Y-70212883D01*
X126434819Y-70212521D01*
X126435105Y-70212145D01*
X126435381Y-70211737D01*
X126435646Y-70211309D01*
X126435898Y-70210857D01*
X126436139Y-70210385D01*
X126436375Y-70209880D01*
X126436591Y-70209359D01*
X126436801Y-70208813D01*
X126452434Y-70165867D01*
X126452625Y-70165312D01*
X126452793Y-70164769D01*
X126452935Y-70164238D01*
X126453058Y-70163715D01*
X126453154Y-70163207D01*
X126453225Y-70162709D01*
X126453275Y-70162220D01*
X126453299Y-70161743D01*
X126453305Y-70161276D01*
X126453279Y-70160823D01*
X126453234Y-70160379D01*
X126453163Y-70159947D01*
X126453070Y-70159527D01*
X126452952Y-70159113D01*
X126452812Y-70158713D01*
X126452647Y-70158331D01*
X126452456Y-70157953D01*
X126452246Y-70157584D01*
X126452006Y-70157230D01*
X126451749Y-70156886D01*
X126451462Y-70156552D01*
X126451154Y-70156235D01*
X126450820Y-70155922D01*
X126450464Y-70155626D01*
X126450084Y-70155334D01*
X126449678Y-70155059D01*
X126449252Y-70154792D01*
X126448798Y-70154542D01*
X126448325Y-70154293D01*
X126447827Y-70154063D01*
X126447303Y-70153846D01*
X126446755Y-70153635D01*
X126351889Y-70119107D01*
X126351336Y-70118915D01*
X126350791Y-70118750D01*
X126350258Y-70118606D01*
X126349738Y-70118487D01*
X126349233Y-70118386D01*
X126348731Y-70118317D01*
X126348245Y-70118268D01*
X126347766Y-70118247D01*
X126347302Y-70118244D01*
X126346849Y-70118269D01*
X126346409Y-70118317D01*
X126345975Y-70118391D01*
X126345552Y-70118484D01*
X126345145Y-70118603D01*
X126344745Y-70118749D01*
X126344359Y-70118914D01*
X126343983Y-70119105D01*
X126343616Y-70119320D01*
X126343265Y-70119558D01*
X126342925Y-70119820D01*
X126342593Y-70120106D01*
X126342269Y-70120415D01*
X126341960Y-70120752D01*
X126341663Y-70121109D01*
X126341376Y-70121491D01*
X126341100Y-70121896D01*
X126340834Y-70122326D01*
X126340578Y-70122776D01*
X126340336Y-70123256D01*
X126340107Y-70123754D01*
X126339886Y-70124276D01*
X126339676Y-70124826D01*
X126324048Y-70167772D01*
X126323853Y-70168321D01*
X126323683Y-70168868D01*
X126323542Y-70169400D01*
X126323420Y-70169918D01*
X126323326Y-70170430D01*
X126323252Y-70170928D01*
X126323200Y-70171416D01*
X126323180Y-70171890D01*
X126323176Y-70172355D01*
X126258071Y-70172355D01*
X126258246Y-70171715D01*
X126259012Y-70169243D01*
X126259888Y-70166726D01*
X126289751Y-70084677D01*
X126291719Y-70079754D01*
X126292772Y-70077454D01*
X126293873Y-70075262D01*
X126295023Y-70073188D01*
X126296218Y-70071217D01*
X126297464Y-70069359D01*
X126298754Y-70067607D01*
X126300094Y-70065967D01*
X126301482Y-70064436D01*
X126302918Y-70063018D01*
X126304402Y-70061704D01*
X126305934Y-70060501D01*
X126307515Y-70059407D01*
X126309143Y-70058419D01*
X126310816Y-70057542D01*
X126312543Y-70056776D01*
X126314318Y-70056118D01*
X126316143Y-70055564D01*
X126318013Y-70055123D01*
X126319933Y-70054789D01*
X126321900Y-70054564D01*
X126323918Y-70054445D01*
X126325990Y-70054437D01*
X126328107Y-70054535D01*
G37*
G04 #@! TO.C,J2*
G36*
X129930000Y-110350000D02*
G01*
X128430000Y-110350000D01*
X128430000Y-108850000D01*
X129930000Y-108850000D01*
X129930000Y-110350000D01*
G37*
G04 #@! TD*
D11*
G04 #@! TO.C,NT1*
X122700000Y-93390000D03*
G04 #@! TD*
D12*
G04 #@! TO.C,LED25*
X142229668Y-120680000D03*
X141389668Y-120680000D03*
X142229668Y-121520000D03*
X141389668Y-121520000D03*
G04 #@! TD*
D13*
G04 #@! TO.C,R7*
X127370001Y-88180000D03*
X128389999Y-88180000D03*
G04 #@! TD*
D12*
G04 #@! TO.C,LED32*
X132780000Y-141575698D03*
X133620000Y-141575698D03*
X132780000Y-140735698D03*
X133620000Y-140735698D03*
G04 #@! TD*
D14*
G04 #@! TO.C,TP9*
X136064000Y-62900000D03*
G04 #@! TD*
D15*
G04 #@! TO.C,C31*
X148896000Y-104722000D03*
X148896000Y-103762000D03*
G04 #@! TD*
D16*
G04 #@! TO.C,U1*
X138140000Y-94200000D03*
X138140000Y-93700000D03*
X138140000Y-93200000D03*
X138140000Y-92700000D03*
D17*
X138770000Y-92570000D03*
X139270000Y-92570000D03*
D16*
X139900000Y-92700000D03*
X139900000Y-93200000D03*
X139900000Y-93700000D03*
X139900000Y-94200000D03*
D17*
X139270000Y-94330000D03*
X138770000Y-94330000D03*
G04 #@! TD*
D15*
G04 #@! TO.C,C20*
X140921000Y-93502000D03*
X140921000Y-92542000D03*
G04 #@! TD*
D12*
G04 #@! TO.C,LED10*
X157200000Y-88345099D03*
X157200000Y-87505099D03*
X156360000Y-88345099D03*
X156360000Y-87505099D03*
G04 #@! TD*
D18*
G04 #@! TO.C,Y1*
X130800000Y-98300000D03*
X132200000Y-98300000D03*
X132200000Y-99400000D03*
X130800000Y-99400000D03*
G04 #@! TD*
D19*
G04 #@! TO.C,C25*
X140820000Y-84420000D03*
X141780000Y-84420000D03*
G04 #@! TD*
D12*
G04 #@! TO.C,LED42*
X136160000Y-96000000D03*
X137000000Y-96000000D03*
X136160000Y-95160000D03*
X137000000Y-95160000D03*
G04 #@! TD*
G04 #@! TO.C,LED1*
X127991079Y-75300000D03*
X127151079Y-75300000D03*
X127991079Y-76140000D03*
X127151079Y-76140000D03*
G04 #@! TD*
G04 #@! TO.C,LED28*
X133620000Y-135068698D03*
X132780000Y-135068698D03*
X133620000Y-135908698D03*
X132780000Y-135908698D03*
G04 #@! TD*
D19*
G04 #@! TO.C,C8*
X145811000Y-103961000D03*
X146771000Y-103961000D03*
G04 #@! TD*
D12*
G04 #@! TO.C,LED23*
X130929668Y-120680000D03*
X130089668Y-120680000D03*
X130929668Y-121520000D03*
X130089668Y-121520000D03*
G04 #@! TD*
D19*
G04 #@! TO.C,C21*
X140840000Y-94600000D03*
X141800000Y-94600000D03*
G04 #@! TD*
D12*
G04 #@! TO.C,LED20*
X138503001Y-117500000D03*
X139343001Y-117500000D03*
X138503001Y-116660000D03*
X139343001Y-116660000D03*
G04 #@! TD*
D20*
G04 #@! TO.C,C16*
X136580000Y-89500000D03*
X135620000Y-89500000D03*
G04 #@! TD*
D15*
G04 #@! TO.C,C18*
X133400000Y-99730000D03*
X133400000Y-98770000D03*
G04 #@! TD*
D21*
G04 #@! TO.C,R18*
X136820667Y-107284999D03*
X136820667Y-105634999D03*
G04 #@! TD*
D12*
G04 #@! TO.C,LED30*
X135780000Y-138720000D03*
X136620000Y-138720000D03*
X135780000Y-137880000D03*
X136620000Y-137880000D03*
G04 #@! TD*
G04 #@! TO.C,LED18*
X165260000Y-99678432D03*
X165260000Y-98838432D03*
X164420000Y-99678432D03*
X164420000Y-98838432D03*
G04 #@! TD*
D15*
G04 #@! TO.C,C28*
X128298000Y-94869500D03*
X128298000Y-93909500D03*
G04 #@! TD*
D22*
G04 #@! TO.C,R11*
X143938000Y-105729001D03*
X143938000Y-106748999D03*
G04 #@! TD*
D12*
G04 #@! TO.C,LED13*
X157200000Y-105345099D03*
X157200000Y-104505099D03*
X156360000Y-105345099D03*
X156360000Y-104505099D03*
G04 #@! TD*
G04 #@! TO.C,LED27*
X132836335Y-125540000D03*
X133676335Y-125540000D03*
X132836335Y-124700000D03*
X133676335Y-124700000D03*
G04 #@! TD*
G04 #@! TO.C,LED19*
X144169668Y-117500000D03*
X145009668Y-117500000D03*
X144169668Y-116660000D03*
X145009668Y-116660000D03*
G04 #@! TD*
D23*
G04 #@! TO.C,L4*
X131200000Y-96785000D03*
X131200000Y-95815000D03*
G04 #@! TD*
D24*
G04 #@! TO.C,Q2*
X141800000Y-106600000D03*
X141800000Y-105800000D03*
X142949999Y-106200000D03*
G04 #@! TD*
D13*
G04 #@! TO.C,R21*
X143547001Y-103939000D03*
X144566999Y-103939000D03*
G04 #@! TD*
D25*
G04 #@! TO.C,L1*
X125435000Y-92140000D03*
X126405000Y-92140000D03*
G04 #@! TD*
D22*
G04 #@! TO.C,R6*
X138720000Y-100020001D03*
X138720000Y-101039999D03*
G04 #@! TD*
D26*
G04 #@! TO.C,TP1*
X125650000Y-103980000D03*
G04 #@! TD*
D27*
G04 #@! TO.C,C27*
X122659500Y-100692500D03*
X122659500Y-101652500D03*
G04 #@! TD*
D28*
G04 #@! TO.C,R14*
X142109999Y-88900000D03*
X141090001Y-88900000D03*
G04 #@! TD*
D12*
G04 #@! TO.C,LED7*
X129931079Y-72120000D03*
X130771079Y-72120000D03*
X129931079Y-71280000D03*
X130771079Y-71280000D03*
G04 #@! TD*
D29*
G04 #@! TO.C,TP5*
X102530000Y-96440000D03*
G04 #@! TD*
D30*
G04 #@! TO.C,ANT2*
X122673999Y-95133500D03*
D31*
X122474000Y-94673500D03*
X122474000Y-94363500D03*
D30*
X122673999Y-93913500D03*
D31*
X122873998Y-94373500D03*
X122873998Y-94673500D03*
G04 #@! TD*
D27*
G04 #@! TO.C,C6*
X130200000Y-95820000D03*
X130200000Y-96780000D03*
G04 #@! TD*
D12*
G04 #@! TO.C,LED15*
X160380000Y-95935099D03*
X160380000Y-96775099D03*
X161220000Y-95935099D03*
X161220000Y-96775099D03*
G04 #@! TD*
D20*
G04 #@! TO.C,C17*
X144537000Y-101659667D03*
X143577000Y-101659667D03*
G04 #@! TD*
D19*
G04 #@! TO.C,C32*
X138150000Y-83330001D03*
X139110000Y-83330001D03*
G04 #@! TD*
D12*
G04 #@! TO.C,LED9*
X139324412Y-67240000D03*
X138484412Y-67240000D03*
X139324412Y-68080000D03*
X138484412Y-68080000D03*
G04 #@! TD*
D22*
G04 #@! TO.C,R1*
X135270000Y-101400001D03*
X135270000Y-102419999D03*
G04 #@! TD*
D32*
G04 #@! TO.C,U5*
X143007067Y-86758488D03*
D33*
X140427068Y-85678488D03*
X141077068Y-85678488D03*
X141727068Y-85678488D03*
D34*
X142307069Y-86758488D03*
D35*
X143707068Y-86758488D03*
D33*
X141727068Y-87818488D03*
X141077068Y-87818488D03*
X140427068Y-87818488D03*
G04 #@! TD*
D36*
G04 #@! TO.C,C1*
X149023995Y-83451005D03*
X146478411Y-85996589D03*
G04 #@! TD*
D12*
G04 #@! TO.C,LED39*
X111820000Y-102583686D03*
X111820000Y-101743686D03*
X110980000Y-102583686D03*
X110980000Y-101743686D03*
G04 #@! TD*
D37*
G04 #@! TO.C,TP4*
X136121079Y-79300000D03*
G04 #@! TD*
D12*
G04 #@! TO.C,LED8*
X133657746Y-67240000D03*
X132817746Y-67240000D03*
X133657746Y-68080000D03*
X132817746Y-68080000D03*
G04 #@! TD*
D15*
G04 #@! TO.C,C22*
X129600000Y-99730000D03*
X129600000Y-98770000D03*
G04 #@! TD*
D22*
G04 #@! TO.C,R2*
X134270000Y-101400001D03*
X134270000Y-102419999D03*
G04 #@! TD*
D12*
G04 #@! TO.C,LED4*
X144991079Y-75300000D03*
X144151079Y-75300000D03*
X144991079Y-76140000D03*
X144151079Y-76140000D03*
G04 #@! TD*
D27*
G04 #@! TO.C,C24*
X128200000Y-86090000D03*
X128200000Y-87050000D03*
G04 #@! TD*
D12*
G04 #@! TO.C,LED21*
X132836335Y-117500000D03*
X133676335Y-117500000D03*
X132836335Y-116660000D03*
X133676335Y-116660000D03*
G04 #@! TD*
G04 #@! TO.C,LED29*
X139620000Y-135046500D03*
X138780000Y-135046500D03*
X139620000Y-135886500D03*
X138780000Y-135886500D03*
G04 #@! TD*
D21*
G04 #@! TO.C,R19*
X135247333Y-107284999D03*
X135247333Y-105634999D03*
G04 #@! TD*
D15*
G04 #@! TO.C,C7*
X129760000Y-87870000D03*
X129760000Y-86910000D03*
G04 #@! TD*
G04 #@! TO.C,C14*
X127400000Y-92100000D03*
X127400000Y-91140000D03*
G04 #@! TD*
D12*
G04 #@! TO.C,LED11*
X157200000Y-94011766D03*
X157200000Y-93171766D03*
X156360000Y-94011766D03*
X156360000Y-93171766D03*
G04 #@! TD*
D38*
G04 #@! TO.C,TP3*
X118900000Y-96393686D03*
G04 #@! TD*
D22*
G04 #@! TO.C,R10*
X133580000Y-86290001D03*
X133580000Y-87309999D03*
G04 #@! TD*
D19*
G04 #@! TO.C,C26*
X140810000Y-83350000D03*
X141770000Y-83350000D03*
G04 #@! TD*
D12*
G04 #@! TO.C,LED5*
X141231079Y-72120000D03*
X142071079Y-72120000D03*
X141231079Y-71280000D03*
X142071079Y-71280000D03*
G04 #@! TD*
D21*
G04 #@! TO.C,R17*
X138394000Y-107285000D03*
X138394000Y-105635000D03*
G04 #@! TD*
D39*
G04 #@! TO.C,C9*
X142301000Y-102326000D03*
X142301000Y-103876000D03*
G04 #@! TD*
D40*
G04 #@! TO.C,C4*
X123127208Y-109397792D03*
X125672792Y-106852208D03*
G04 #@! TD*
D12*
G04 #@! TO.C,LED14*
X160380000Y-101585099D03*
X160380000Y-102425099D03*
X161220000Y-101585099D03*
X161220000Y-102425099D03*
G04 #@! TD*
G04 #@! TO.C,LED40*
X106960000Y-98857019D03*
X106960000Y-99697019D03*
X107800000Y-98857019D03*
X107800000Y-99697019D03*
G04 #@! TD*
G04 #@! TO.C,LED6*
X135581079Y-72120000D03*
X136421079Y-72120000D03*
X135581079Y-71280000D03*
X136421079Y-71280000D03*
G04 #@! TD*
G04 #@! TO.C,LED2*
X133657746Y-75300000D03*
X132817746Y-75300000D03*
X133657746Y-76140000D03*
X132817746Y-76140000D03*
G04 #@! TD*
D41*
G04 #@! TO.C,R25*
X133050000Y-83465000D03*
X133050000Y-85115000D03*
G04 #@! TD*
D42*
G04 #@! TO.C,Q1*
X143600000Y-108000000D03*
X143600000Y-109900000D03*
X141724999Y-108950000D03*
G04 #@! TD*
D12*
G04 #@! TO.C,LED12*
X157200000Y-99678432D03*
X157200000Y-98838432D03*
X156360000Y-99678432D03*
X156360000Y-98838432D03*
G04 #@! TD*
D13*
G04 #@! TO.C,R8*
X126790000Y-89500000D03*
X127810000Y-89500000D03*
G04 #@! TD*
D12*
G04 #@! TO.C,LED36*
X115000000Y-87523686D03*
X115000000Y-88363686D03*
X115840000Y-87523686D03*
X115840000Y-88363686D03*
G04 #@! TD*
D43*
G04 #@! TO.C,U2*
X140011000Y-98185000D03*
X140961000Y-98185000D03*
X141911000Y-98185000D03*
X141911000Y-100785000D03*
X140011000Y-100785000D03*
G04 #@! TD*
D12*
G04 #@! TO.C,LED26*
X138503001Y-125540000D03*
X139343001Y-125540000D03*
X138503001Y-124700000D03*
X139343001Y-124700000D03*
G04 #@! TD*
D44*
G04 #@! TO.C,C11*
X142536000Y-96589000D03*
X140986000Y-96589000D03*
G04 #@! TD*
D22*
G04 #@! TO.C,R9*
X132520000Y-86290001D03*
X132520000Y-87309999D03*
G04 #@! TD*
D12*
G04 #@! TO.C,LED37*
X111820000Y-91283686D03*
X111820000Y-90443686D03*
X110980000Y-91283686D03*
X110980000Y-90443686D03*
G04 #@! TD*
G04 #@! TO.C,LED17*
X165260000Y-94011766D03*
X165260000Y-93171766D03*
X164420000Y-94011766D03*
X164420000Y-93171766D03*
G04 #@! TD*
G04 #@! TO.C,LED41*
X106960000Y-93190353D03*
X106960000Y-94030353D03*
X107800000Y-93190353D03*
X107800000Y-94030353D03*
G04 #@! TD*
D20*
G04 #@! TO.C,C23*
X136580000Y-91500000D03*
X135620000Y-91500000D03*
G04 #@! TD*
D15*
G04 #@! TO.C,C13*
X124440000Y-92080000D03*
X124440000Y-91120000D03*
G04 #@! TD*
D45*
G04 #@! TO.C,C2*
X123123330Y-83501026D03*
X125668914Y-86046610D03*
G04 #@! TD*
D12*
G04 #@! TO.C,LED35*
X115000000Y-93190353D03*
X115000000Y-94030353D03*
X115840000Y-93190353D03*
X115840000Y-94030353D03*
G04 #@! TD*
D46*
G04 #@! TO.C,U4*
X145857000Y-102669000D03*
X145857000Y-101719000D03*
X145857000Y-100769000D03*
X148457000Y-100769000D03*
X148457000Y-102669000D03*
G04 #@! TD*
D12*
G04 #@! TO.C,LED22*
X127169668Y-117500000D03*
X128009668Y-117500000D03*
X127169668Y-116660000D03*
X128009668Y-116660000D03*
G04 #@! TD*
D13*
G04 #@! TO.C,R23*
X143547001Y-102794333D03*
X144566999Y-102794333D03*
G04 #@! TD*
G04 #@! TO.C,R4*
X133900000Y-88400000D03*
X134919998Y-88400000D03*
G04 #@! TD*
D47*
G04 #@! TO.C,R13*
X140275000Y-90200000D03*
X141925000Y-90200000D03*
G04 #@! TD*
D48*
G04 #@! TO.C,U3*
X129582500Y-93907500D03*
X129582500Y-93407500D03*
X129582500Y-92907500D03*
X129582500Y-92407500D03*
X129582500Y-91907500D03*
X129582500Y-91407500D03*
X129582500Y-90907500D03*
X129582500Y-90407500D03*
D49*
X130270000Y-89720000D03*
X130770000Y-89720000D03*
X131270000Y-89720000D03*
X131770000Y-89720000D03*
X132270000Y-89720000D03*
X132770000Y-89720000D03*
X133270000Y-89720000D03*
X133770000Y-89720000D03*
D48*
X134457500Y-90407500D03*
X134457500Y-90907500D03*
X134457500Y-91407500D03*
X134457500Y-91907500D03*
X134457500Y-92407500D03*
X134457500Y-92907500D03*
X134457500Y-93407500D03*
X134457500Y-93907500D03*
D49*
X133770000Y-94595000D03*
X133270000Y-94595000D03*
X132770000Y-94595000D03*
X132270000Y-94595000D03*
X131770000Y-94595000D03*
X131270000Y-94595000D03*
X130770000Y-94595000D03*
X130270000Y-94595000D03*
D50*
X132020000Y-92157500D03*
G04 #@! TD*
D27*
G04 #@! TO.C,C10*
X143030000Y-98600000D03*
X143030000Y-99560000D03*
G04 #@! TD*
D51*
G04 #@! TO.C,SW1*
X148850000Y-94200000D03*
X148850000Y-97200000D03*
D52*
X146600000Y-93450000D03*
X146600000Y-96450001D03*
X146600000Y-97950000D03*
D53*
X150000000Y-92100000D03*
X147700000Y-92100001D03*
X147700000Y-99299999D03*
X150000000Y-99300000D03*
G04 #@! TD*
D29*
G04 #@! TO.C,TP10*
X169620000Y-96420000D03*
G04 #@! TD*
D12*
G04 #@! TO.C,LED38*
X111820000Y-96933686D03*
X111820000Y-96093686D03*
X110980000Y-96933686D03*
X110980000Y-96093686D03*
G04 #@! TD*
D54*
G04 #@! TO.C,J2*
X127880000Y-109600000D03*
D55*
X129180000Y-109600000D03*
D56*
X130480000Y-109600000D03*
G04 #@! TD*
D57*
G04 #@! TO.C,C12*
X123150000Y-91705000D03*
X123150000Y-90155000D03*
G04 #@! TD*
D26*
G04 #@! TO.C,TP2*
X129700000Y-103980000D03*
G04 #@! TD*
D57*
G04 #@! TO.C,C19*
X142200000Y-93275000D03*
X142200000Y-91725000D03*
G04 #@! TD*
D12*
G04 #@! TO.C,LED34*
X115000000Y-98857019D03*
X115000000Y-99697019D03*
X115840000Y-98857019D03*
X115840000Y-99697019D03*
G04 #@! TD*
D22*
G04 #@! TO.C,R3*
X129985000Y-84386001D03*
X129985000Y-85405999D03*
G04 #@! TD*
D12*
G04 #@! TO.C,LED16*
X160380000Y-90285099D03*
X160380000Y-91125099D03*
X161220000Y-90285099D03*
X161220000Y-91125099D03*
G04 #@! TD*
G04 #@! TO.C,LED33*
X115000000Y-104523687D03*
X115000000Y-105363687D03*
X115840000Y-104523687D03*
X115840000Y-105363687D03*
G04 #@! TD*
D22*
G04 #@! TO.C,R5*
X131100000Y-84390001D03*
X131100000Y-85409999D03*
G04 #@! TD*
D58*
G04 #@! TO.C,C3*
X149048995Y-109385584D03*
X146503411Y-106840000D03*
G04 #@! TD*
D12*
G04 #@! TO.C,LED24*
X136579668Y-120680000D03*
X135739668Y-120680000D03*
X136579668Y-121520000D03*
X135739668Y-121520000D03*
G04 #@! TD*
D15*
G04 #@! TO.C,C5*
X129200000Y-96780000D03*
X129200000Y-95820000D03*
G04 #@! TD*
D12*
G04 #@! TO.C,LED3*
X139324412Y-75300000D03*
X138484412Y-75300000D03*
X139324412Y-76140000D03*
X138484412Y-76140000D03*
G04 #@! TD*
D13*
G04 #@! TO.C,R16*
X143547001Y-100525000D03*
X144566999Y-100525000D03*
G04 #@! TD*
D21*
G04 #@! TO.C,R20*
X133674000Y-107285000D03*
X133674000Y-105635000D03*
G04 #@! TD*
D12*
G04 #@! TO.C,LED31*
X138780000Y-141575698D03*
X139620000Y-141575698D03*
X138780000Y-140735698D03*
X139620000Y-140735698D03*
G04 #@! TD*
D19*
G04 #@! TO.C,C15*
X135620000Y-90500000D03*
X136580000Y-90500000D03*
G04 #@! TD*
M02*
