%TF.GenerationSoftware,KiCad,Pcbnew,9.0.3*%
%TF.CreationDate,2025-08-05T11:28:11+01:00*%
%TF.ProjectId,Badge ESC 2025,42616467-6520-4455-9343-20323032352e,rev?*%
%TF.SameCoordinates,Original*%
%TF.FileFunction,Drillmap*%
%TF.FilePolarity,Positive*%
%FSLAX45Y45*%
G04 Gerber Fmt 4.5, Leading zero omitted, Abs format (unit mm)*
G04 Created by KiCad (PCBNEW 9.0.3) date 2025-08-05 11:28:11*
%MOMM*%
%LPD*%
G01*
G04 APERTURE LIST*
%ADD10C,0.100000*%
%ADD11C,0.050000*%
%ADD12C,0.200000*%
G04 APERTURE END LIST*
D10*
X15106746Y-8175107D02*
G75*
G02*
X15111461Y-8174451I2964J-4033D01*
G01*
D11*
X13164000Y-10416000D02*
G75*
G02*
X13214000Y-10366000I50000J0D01*
G01*
X13994000Y-10365000D02*
G75*
G02*
X14044000Y-10415000I0J-50000D01*
G01*
D10*
X15076608Y-8173100D02*
X15078860Y-8174588D01*
X12141042Y-11116103D02*
X12139468Y-11113779D01*
X10205942Y-8888282D02*
X10185790Y-8899263D01*
D11*
X13164000Y-10815000D02*
X13164000Y-10416000D01*
D10*
X12141588Y-11118823D02*
X12141042Y-11116103D01*
X10206901Y-10402904D02*
X12104614Y-11112430D01*
D11*
X14044000Y-11479000D02*
G75*
G02*
X13994000Y-11529000I-50000J0D01*
G01*
X13874000Y-11483000D02*
X13335000Y-11483000D01*
D10*
X12137214Y-11112292D02*
X12134512Y-11111756D01*
X17399514Y-9264409D02*
X17029340Y-8894929D01*
D11*
X13235000Y-10366000D02*
G75*
G02*
X13285000Y-10416000I0J-50000D01*
G01*
X13295000Y-11529000D02*
X13295000Y-11530000D01*
D10*
X12109330Y-11111772D02*
G75*
G02*
X12104616Y-11112426I-2960J4022D01*
G01*
X15113321Y-11110524D02*
X17010133Y-10398595D01*
X9801452Y-9304586D02*
G75*
G02*
X9816083Y-9269209I49998J36D01*
G01*
X12139186Y-8172617D02*
X12139720Y-8169915D01*
X12909728Y-14630920D02*
X12909293Y-14630919D01*
X12908858Y-14630916D01*
X12908428Y-14630911D01*
X12907999Y-14630905D01*
X12907574Y-14630896D01*
X12907150Y-14630885D01*
X12906731Y-14630873D01*
X12906312Y-14630858D01*
X12905898Y-14630842D01*
X12905484Y-14630823D01*
X12905076Y-14630803D01*
X12904667Y-14630781D01*
X12904264Y-14630757D01*
X12903860Y-14630731D01*
X12903462Y-14630703D01*
X12903063Y-14630673D01*
X12902670Y-14630642D01*
X12902277Y-14630608D01*
X12901888Y-14630573D01*
X12901500Y-14630536D01*
X12901116Y-14630497D01*
X12900733Y-14630457D01*
X12900354Y-14630414D01*
X12899975Y-14630370D01*
X12899601Y-14630325D01*
X12899228Y-14630277D01*
X12898858Y-14630228D01*
X12898489Y-14630177D01*
X12898125Y-14630124D01*
X12897761Y-14630069D01*
X12897401Y-14630013D01*
X12897041Y-14629955D01*
X12896686Y-14629896D01*
X12896331Y-14629835D01*
X12895980Y-14629772D01*
X12895630Y-14629708D01*
X12895283Y-14629642D01*
X12894938Y-14629574D01*
X12894596Y-14629505D01*
X12894254Y-14629434D01*
X12893917Y-14629361D01*
X12893580Y-14629287D01*
X12893247Y-14629212D01*
X12892914Y-14629134D01*
X12892585Y-14629056D01*
X12892257Y-14628975D01*
X12891932Y-14628893D01*
X12891608Y-14628810D01*
X12891288Y-14628725D01*
X12890968Y-14628638D01*
X12890652Y-14628550D01*
X12890336Y-14628460D01*
X12890024Y-14628370D01*
X12889713Y-14628277D01*
X12889405Y-14628183D01*
X12889097Y-14628087D01*
X12888793Y-14627990D01*
X12888490Y-14627892D01*
X12888190Y-14627792D01*
X12887891Y-14627690D01*
X12887594Y-14627588D01*
X12887299Y-14627483D01*
X12887007Y-14627377D01*
X12886715Y-14627270D01*
X12886481Y-14627182D01*
X12102756Y-8176354D02*
X10205942Y-8888282D01*
X14361741Y-13059984D02*
X15077028Y-11146863D01*
X13229007Y-5851964D02*
X12859527Y-6222138D01*
X12139705Y-8144733D02*
G75*
G02*
X12139049Y-8140015I4025J2963D01*
G01*
D11*
X13974000Y-10365000D02*
X13994000Y-10365000D01*
X14044000Y-10814000D02*
X14044000Y-11479000D01*
D10*
X15078377Y-11112009D02*
X15076889Y-11114262D01*
D11*
X13164000Y-11480000D02*
X13164000Y-10815000D01*
D10*
X17399514Y-9264409D02*
G75*
G02*
X17414192Y-9299766I-35304J-35381D01*
G01*
X12141588Y-11118823D02*
X12141603Y-11144005D01*
X13946889Y-5836853D02*
X13264364Y-5837286D01*
X15076889Y-11114262D02*
X15076355Y-11116964D01*
X15113321Y-11110524D02*
G75*
G02*
X15108605Y-11109872I-1761J4644D01*
G01*
X12132654Y-8176989D02*
X12135373Y-8176443D01*
X9801452Y-9304586D02*
X9802113Y-10347390D01*
X15075123Y-8138156D02*
G75*
G02*
X15074471Y-8142872I-4694J-1754D01*
G01*
X14339229Y-14624918D02*
X14327159Y-14628752D01*
X14350874Y-14616566D02*
X14350502Y-14616956D01*
X14350124Y-14617340D01*
X14349741Y-14617718D01*
X14349351Y-14618090D01*
X14348956Y-14618457D01*
X14348556Y-14618819D01*
X14348149Y-14619175D01*
X14347737Y-14619525D01*
X14347319Y-14619870D01*
X14346895Y-14620209D01*
X14346465Y-14620543D01*
X14346029Y-14620872D01*
X14345587Y-14621195D01*
X14345139Y-14621512D01*
X14344684Y-14621825D01*
X14344224Y-14622132D01*
X14343757Y-14622433D01*
X14343283Y-14622729D01*
X14342804Y-14623020D01*
X14342317Y-14623305D01*
X14341824Y-14623585D01*
X14341325Y-14623860D01*
X14340818Y-14624129D01*
X14340305Y-14624393D01*
X14339785Y-14624651D01*
X14339259Y-14624904D01*
X14339229Y-14624918D01*
X12140952Y-11148721D02*
G75*
G02*
X12141605Y-11144007I4698J1751D01*
G01*
X12135373Y-8176443D02*
X12137697Y-8174871D01*
X15076371Y-11142147D02*
X15076355Y-11116964D01*
X17414852Y-10342569D02*
G75*
G02*
X17364883Y-10392602I-49992J-41D01*
G01*
D11*
X13924000Y-11433000D02*
G75*
G02*
X13874000Y-11483000I-50000J0D01*
G01*
D10*
X17030288Y-10392812D02*
X17364883Y-10392600D01*
X14362777Y-14580000D02*
X14361741Y-13059984D01*
X15106746Y-8175107D02*
X15081562Y-8175123D01*
X13946889Y-5836853D02*
G75*
G02*
X13982268Y-5851485I51J-49967D01*
G01*
X14327159Y-14628752D02*
X14312810Y-14630030D01*
X14363194Y-6241344D02*
X14352213Y-6221193D01*
X12858662Y-13060935D02*
X12859697Y-14580000D01*
X12139468Y-11113779D02*
X12137214Y-11112292D01*
D11*
X13924000Y-10415000D02*
G75*
G02*
X13974000Y-10365000I50000J0D01*
G01*
X13335000Y-11483000D02*
G75*
G02*
X13285000Y-11433000I0J50000D01*
G01*
D10*
X9852144Y-10397358D02*
G75*
G02*
X9802112Y-10347390I-44J49988D01*
G01*
X12864809Y-14607370D02*
X12860975Y-14595301D01*
X13229007Y-5851964D02*
G75*
G02*
X13264364Y-5837287I35373J-35286D01*
G01*
X9852144Y-10397358D02*
X10186739Y-10397145D01*
X12860975Y-14595301D02*
X12859697Y-14580951D01*
X12137697Y-8174871D02*
X12139186Y-8172617D01*
D11*
X13924000Y-11433000D02*
X13924000Y-10415000D01*
D10*
X17029340Y-8894929D02*
X17009173Y-8883975D01*
X15083422Y-11109889D02*
X15080701Y-11110435D01*
X15075123Y-8138156D02*
X14363194Y-6241344D01*
X15074488Y-8168057D02*
X15074472Y-8142873D01*
X12102756Y-8176354D02*
G75*
G02*
X12107471Y-8177007I1754J-4686D01*
G01*
X15080701Y-11110435D02*
X15078377Y-11112009D01*
X12873161Y-14619016D02*
X12872772Y-14618644D01*
X12872388Y-14618266D01*
X12872010Y-14617883D01*
X12871638Y-14617494D01*
X12871271Y-14617099D01*
X12870909Y-14616699D01*
X12870554Y-14616293D01*
X12870203Y-14615881D01*
X12869859Y-14615463D01*
X12869519Y-14615039D01*
X12869186Y-14614610D01*
X12868857Y-14614174D01*
X12868534Y-14613732D01*
X12868216Y-14613284D01*
X12867904Y-14612830D01*
X12867598Y-14612369D01*
X12867296Y-14611903D01*
X12867000Y-14611430D01*
X12866710Y-14610950D01*
X12866424Y-14610464D01*
X12866145Y-14609971D01*
X12865870Y-14609472D01*
X12865601Y-14608966D01*
X12865338Y-14608453D01*
X12865080Y-14607934D01*
X12864827Y-14607407D01*
X12864809Y-14607370D01*
D11*
X13214000Y-11530000D02*
G75*
G02*
X13164000Y-11480000I0J50000D01*
G01*
D10*
X10186739Y-10397145D02*
X10206901Y-10402904D01*
X17414852Y-10342569D02*
X17414191Y-9299766D01*
X12859527Y-6222138D02*
X12848573Y-6242303D01*
X15074488Y-8168057D02*
X15075034Y-8170775D01*
X15076371Y-11142147D02*
G75*
G02*
X15077027Y-11146863I-4021J-2963D01*
G01*
X12909728Y-14630920D02*
X14312810Y-14630030D01*
X15075034Y-8170775D02*
X15076608Y-8173100D01*
X10185790Y-8899263D02*
X9816085Y-9269211D01*
X15078860Y-8174588D02*
X15081562Y-8175123D01*
D11*
X13214000Y-10366000D02*
X13235000Y-10366000D01*
X13285000Y-10416000D02*
X13285000Y-11433000D01*
D10*
X12109330Y-11111772D02*
X12134512Y-11111756D01*
X12132654Y-8176989D02*
X12107473Y-8177005D01*
X14352213Y-6221193D02*
X13982266Y-5851487D01*
X12848573Y-6242303D02*
X12139047Y-8140015D01*
X15083422Y-11109889D02*
X15108604Y-11109873D01*
D11*
X14044000Y-10415000D02*
X14044000Y-10814000D01*
X13295000Y-11530000D02*
X13214000Y-11530000D01*
D10*
X12140952Y-11148721D02*
X12858662Y-13060935D01*
X12886481Y-14627182D02*
X12886194Y-14627072D01*
X12885908Y-14626961D01*
X12885625Y-14626848D01*
X12885343Y-14626734D01*
X12885064Y-14626619D01*
X12884785Y-14626502D01*
X12884510Y-14626384D01*
X12884235Y-14626264D01*
X12883963Y-14626143D01*
X12883693Y-14626020D01*
X12883424Y-14625897D01*
X12883157Y-14625771D01*
X12882892Y-14625645D01*
X12882629Y-14625517D01*
X12882367Y-14625388D01*
X12882107Y-14625257D01*
X12881850Y-14625125D01*
X12881593Y-14624991D01*
X12881339Y-14624856D01*
X12881086Y-14624720D01*
X12880835Y-14624583D01*
X12880585Y-14624444D01*
X12880338Y-14624304D01*
X12880091Y-14624162D01*
X12879847Y-14624019D01*
X12879604Y-14623875D01*
X12879363Y-14623729D01*
X12879124Y-14623582D01*
X12878886Y-14623434D01*
X12878650Y-14623284D01*
X12878415Y-14623133D01*
X12878182Y-14622980D01*
X12877951Y-14622827D01*
X12877721Y-14622671D01*
X12877493Y-14622515D01*
X12877266Y-14622357D01*
X12877042Y-14622198D01*
X12876818Y-14622037D01*
X12876596Y-14621876D01*
X12876376Y-14621712D01*
X12876157Y-14621548D01*
X12875939Y-14621382D01*
X12875724Y-14621215D01*
X12875509Y-14621046D01*
X12875297Y-14620876D01*
X12875085Y-14620704D01*
X12874876Y-14620532D01*
X12874667Y-14620357D01*
X12874461Y-14620182D01*
X12874255Y-14620005D01*
X12874052Y-14619827D01*
X12873849Y-14619647D01*
X12873648Y-14619466D01*
X12873449Y-14619283D01*
X12873161Y-14619016D01*
X14359039Y-14603247D02*
X14358929Y-14603534D01*
X14358818Y-14603819D01*
X14358706Y-14604102D01*
X14358592Y-14604384D01*
X14358477Y-14604663D01*
X14358360Y-14604941D01*
X14358242Y-14605216D01*
X14358122Y-14605491D01*
X14358001Y-14605763D01*
X14357879Y-14606033D01*
X14357755Y-14606302D01*
X14357630Y-14606569D01*
X14357503Y-14606833D01*
X14357375Y-14607097D01*
X14357246Y-14607358D01*
X14357115Y-14607618D01*
X14356984Y-14607876D01*
X14356850Y-14608132D01*
X14356716Y-14608386D01*
X14356579Y-14608640D01*
X14356442Y-14608890D01*
X14356303Y-14609140D01*
X14356163Y-14609388D01*
X14356021Y-14609634D01*
X14355879Y-14609878D01*
X14355734Y-14610121D01*
X14355589Y-14610362D01*
X14355442Y-14610601D01*
X14355293Y-14610839D01*
X14355144Y-14611075D01*
X14354993Y-14611310D01*
X14354840Y-14611543D01*
X14354687Y-14611774D01*
X14354531Y-14612004D01*
X14354375Y-14612232D01*
X14354217Y-14612459D01*
X14354058Y-14612683D01*
X14353898Y-14612907D01*
X14353736Y-14613129D01*
X14353573Y-14613349D01*
X14353408Y-14613568D01*
X14353242Y-14613785D01*
X14353075Y-14614001D01*
X14352906Y-14614215D01*
X14352737Y-14614428D01*
X14352565Y-14614639D01*
X14352393Y-14614849D01*
X14352218Y-14615057D01*
X14352043Y-14615264D01*
X14351866Y-14615469D01*
X14351688Y-14615673D01*
X14351508Y-14615875D01*
X14351327Y-14616076D01*
X14351145Y-14616276D01*
X14350874Y-14616566D01*
D11*
X13994000Y-11529000D02*
X13295000Y-11529000D01*
D10*
X17009173Y-8883975D02*
X15111461Y-8174450D01*
X17010133Y-10398595D02*
X17030288Y-10392812D01*
X14362777Y-14580000D02*
X14362776Y-14580436D01*
X14362773Y-14580872D01*
X14362769Y-14581302D01*
X14362762Y-14581733D01*
X14362753Y-14582158D01*
X14362742Y-14582583D01*
X14362730Y-14583002D01*
X14362715Y-14583422D01*
X14362699Y-14583836D01*
X14362680Y-14584251D01*
X14362660Y-14584660D01*
X14362637Y-14585069D01*
X14362613Y-14585472D01*
X14362587Y-14585876D01*
X14362560Y-14586275D01*
X14362530Y-14586674D01*
X14362498Y-14587067D01*
X14362465Y-14587461D01*
X14362430Y-14587849D01*
X14362393Y-14588238D01*
X14362354Y-14588621D01*
X14362313Y-14589005D01*
X14362271Y-14589384D01*
X14362227Y-14589762D01*
X14362181Y-14590136D01*
X14362133Y-14590510D01*
X14362084Y-14590879D01*
X14362033Y-14591248D01*
X14361981Y-14591612D01*
X14361926Y-14591976D01*
X14361870Y-14592336D01*
X14361812Y-14592695D01*
X14361753Y-14593050D01*
X14361692Y-14593405D01*
X14361629Y-14593756D01*
X14361564Y-14594106D01*
X14361499Y-14594452D01*
X14361431Y-14594797D01*
X14361362Y-14595139D01*
X14361291Y-14595480D01*
X14361218Y-14595817D01*
X14361144Y-14596154D01*
X14361069Y-14596486D01*
X14360991Y-14596819D01*
X14360913Y-14597147D01*
X14360832Y-14597475D01*
X14360750Y-14597799D01*
X14360667Y-14598123D01*
X14360582Y-14598443D01*
X14360495Y-14598762D01*
X14360408Y-14599078D01*
X14360318Y-14599393D01*
X14360227Y-14599705D01*
X14360134Y-14600016D01*
X14360041Y-14600324D01*
X14359945Y-14600631D01*
X14359848Y-14600934D01*
X14359749Y-14601237D01*
X14359650Y-14601537D01*
X14359548Y-14601836D01*
X14359446Y-14602131D01*
X14359341Y-14602426D01*
X14359236Y-14602718D01*
X14359128Y-14603009D01*
X14359039Y-14603247D01*
X12139705Y-8144733D02*
X12139720Y-8169915D01*
D12*
D10*
X10585000Y-9885000D02*
X10615000Y-9915000D01*
X10615000Y-9885000D02*
X10585000Y-9915000D01*
X10645000Y-9485000D02*
X10675000Y-9515000D01*
X10675000Y-9485000D02*
X10645000Y-9515000D01*
X11245000Y-8945000D02*
X11275000Y-8975000D01*
X11275000Y-8945000D02*
X11245000Y-8975000D01*
X11245000Y-9515000D02*
X11275000Y-9545000D01*
X11275000Y-9515000D02*
X11245000Y-9545000D01*
X11245000Y-10085000D02*
X11275000Y-10115000D01*
X11275000Y-10085000D02*
X11245000Y-10115000D01*
X11385000Y-10475000D02*
X11415000Y-10505000D01*
X11415000Y-10475000D02*
X11385000Y-10505000D01*
X11395000Y-9355000D02*
X11425000Y-9385000D01*
X11425000Y-9355000D02*
X11395000Y-9385000D01*
X11395000Y-9925000D02*
X11425000Y-9955000D01*
X11425000Y-9925000D02*
X11395000Y-9955000D01*
X11407000Y-8802369D02*
X11437000Y-8832369D01*
X11437000Y-8802369D02*
X11407000Y-8832369D01*
X11875000Y-8765000D02*
X11905000Y-8795000D01*
X11905000Y-8765000D02*
X11875000Y-8795000D01*
X12205000Y-10235000D02*
X12235000Y-10265000D01*
X12235000Y-10235000D02*
X12205000Y-10265000D01*
X12250950Y-9764350D02*
X12280950Y-9794350D01*
X12280950Y-9764350D02*
X12250950Y-9794350D01*
X12250950Y-9864350D02*
X12280950Y-9894350D01*
X12280950Y-9864350D02*
X12250950Y-9894350D01*
X12250950Y-9964250D02*
X12280950Y-9994250D01*
X12280950Y-9964250D02*
X12250950Y-9994250D01*
X12270286Y-10231000D02*
X12300286Y-10261000D01*
X12300286Y-10231000D02*
X12270286Y-10261000D01*
X12335000Y-10150000D02*
X12365000Y-10180000D01*
X12365000Y-10150000D02*
X12335000Y-10180000D01*
X12336571Y-10231000D02*
X12366571Y-10261000D01*
X12366571Y-10231000D02*
X12336571Y-10261000D01*
X12364571Y-9284000D02*
X12394571Y-9314000D01*
X12394571Y-9284000D02*
X12364571Y-9314000D01*
X12402857Y-10150000D02*
X12432857Y-10180000D01*
X12432857Y-10150000D02*
X12402857Y-10180000D01*
X12402857Y-10231000D02*
X12432857Y-10261000D01*
X12432857Y-10231000D02*
X12402857Y-10261000D01*
X12405000Y-8275000D02*
X12435000Y-8305000D01*
X12435000Y-8275000D02*
X12405000Y-8305000D01*
X12429143Y-9284000D02*
X12459143Y-9314000D01*
X12459143Y-9284000D02*
X12429143Y-9314000D01*
X12470714Y-10150000D02*
X12500714Y-10180000D01*
X12500714Y-10150000D02*
X12470714Y-10180000D01*
X12493714Y-9284000D02*
X12523714Y-9314000D01*
X12523714Y-9284000D02*
X12493714Y-9314000D01*
X12538571Y-10150000D02*
X12568571Y-10180000D01*
X12568571Y-10150000D02*
X12538571Y-10180000D01*
X12558286Y-9284000D02*
X12588286Y-9314000D01*
X12588286Y-9284000D02*
X12558286Y-9314000D01*
X12606429Y-10150000D02*
X12636429Y-10180000D01*
X12636429Y-10150000D02*
X12606429Y-10180000D01*
X12622857Y-9284000D02*
X12652857Y-9314000D01*
X12652857Y-9284000D02*
X12622857Y-9314000D01*
X12649679Y-8218365D02*
X12679679Y-8248365D01*
X12679679Y-8218365D02*
X12649679Y-8248365D01*
X12674286Y-10150000D02*
X12704286Y-10180000D01*
X12704286Y-10150000D02*
X12674286Y-10180000D01*
X12701000Y-10532000D02*
X12731000Y-10562000D01*
X12731000Y-10532000D02*
X12701000Y-10562000D01*
X12725000Y-7915000D02*
X12755000Y-7945000D01*
X12755000Y-7915000D02*
X12725000Y-7945000D01*
X12742143Y-10150000D02*
X12772143Y-10180000D01*
X12772143Y-10150000D02*
X12742143Y-10180000D01*
X12747380Y-7415380D02*
X12777380Y-7445380D01*
X12777380Y-7415380D02*
X12747380Y-7445380D01*
X12788000Y-11816000D02*
X12818000Y-11846000D01*
X12818000Y-11816000D02*
X12788000Y-11846000D01*
X12801832Y-9526197D02*
X12831832Y-9556197D01*
X12831832Y-9526197D02*
X12801832Y-9556197D01*
X12808000Y-9727000D02*
X12838000Y-9757000D01*
X12838000Y-9727000D02*
X12808000Y-9757000D01*
X12808000Y-9797500D02*
X12838000Y-9827500D01*
X12838000Y-9797500D02*
X12808000Y-9827500D01*
X12808000Y-9868000D02*
X12838000Y-9898000D01*
X12838000Y-9868000D02*
X12808000Y-9898000D01*
X12808000Y-9938500D02*
X12838000Y-9968500D01*
X12838000Y-9938500D02*
X12808000Y-9968500D01*
X12808000Y-10009000D02*
X12838000Y-10039000D01*
X12838000Y-10009000D02*
X12808000Y-10039000D01*
X12808000Y-10079500D02*
X12838000Y-10109500D01*
X12838000Y-10079500D02*
X12808000Y-10109500D01*
X12808000Y-10150000D02*
X12838000Y-10180000D01*
X12838000Y-10150000D02*
X12808000Y-10180000D01*
X12809522Y-9233227D02*
X12839522Y-9263227D01*
X12839522Y-9233227D02*
X12809522Y-9263227D01*
X12810055Y-9148229D02*
X12840055Y-9178229D01*
X12840055Y-9148229D02*
X12810055Y-9178229D01*
X12830133Y-9606348D02*
X12860133Y-9636348D01*
X12860133Y-9606348D02*
X12830133Y-9636348D01*
X12893000Y-8395000D02*
X12923000Y-8425000D01*
X12923000Y-8395000D02*
X12893000Y-8425000D01*
X12901897Y-8493978D02*
X12931897Y-8523978D01*
X12931897Y-8493978D02*
X12901897Y-8523978D01*
X12907878Y-8955981D02*
X12937878Y-8985981D01*
X12937878Y-8955981D02*
X12907878Y-8985981D01*
X12910000Y-11974000D02*
X12940000Y-12004000D01*
X12940000Y-11974000D02*
X12910000Y-12004000D01*
X12923891Y-8868891D02*
X12953891Y-8898891D01*
X12953891Y-8868891D02*
X12923891Y-8898891D01*
X12935000Y-8575000D02*
X12965000Y-8605000D01*
X12965000Y-8575000D02*
X12935000Y-8605000D01*
X12961000Y-9745000D02*
X12991000Y-9775000D01*
X12991000Y-9745000D02*
X12961000Y-9775000D01*
X13003548Y-8621229D02*
X13033548Y-8651229D01*
X13033548Y-8621229D02*
X13003548Y-8651229D01*
X13027500Y-8842500D02*
X13057500Y-8872500D01*
X13057500Y-8842500D02*
X13027500Y-8872500D01*
X13075000Y-9085000D02*
X13105000Y-9115000D01*
X13105000Y-9085000D02*
X13075000Y-9115000D01*
X13075000Y-9195000D02*
X13105000Y-9225000D01*
X13105000Y-9195000D02*
X13075000Y-9225000D01*
X13075000Y-9315000D02*
X13105000Y-9345000D01*
X13105000Y-9315000D02*
X13075000Y-9345000D01*
X13137380Y-7275380D02*
X13167380Y-7305380D01*
X13167380Y-7275380D02*
X13137380Y-7305380D01*
X13167500Y-8485500D02*
X13197500Y-8515500D01*
X13197500Y-8485500D02*
X13167500Y-8515500D01*
X13185000Y-9085000D02*
X13215000Y-9115000D01*
X13215000Y-9085000D02*
X13185000Y-9115000D01*
X13185000Y-9195000D02*
X13215000Y-9225000D01*
X13215000Y-9195000D02*
X13185000Y-9225000D01*
X13185000Y-9315000D02*
X13215000Y-9345000D01*
X13215000Y-9315000D02*
X13185000Y-9345000D01*
X13190000Y-13365000D02*
X13220000Y-13395000D01*
X13220000Y-13365000D02*
X13190000Y-13395000D01*
X13293500Y-9613500D02*
X13323500Y-9643500D01*
X13323500Y-9613500D02*
X13293500Y-9643500D01*
X13295000Y-9085000D02*
X13325000Y-9115000D01*
X13325000Y-9085000D02*
X13295000Y-9115000D01*
X13295000Y-9195000D02*
X13325000Y-9225000D01*
X13325000Y-9195000D02*
X13295000Y-9225000D01*
X13295000Y-9315000D02*
X13325000Y-9345000D01*
X13325000Y-9315000D02*
X13295000Y-9345000D01*
X13297380Y-7425380D02*
X13327380Y-7455380D01*
X13327380Y-7425380D02*
X13297380Y-7455380D01*
X13320000Y-11824000D02*
X13350000Y-11854000D01*
X13350000Y-11824000D02*
X13320000Y-11854000D01*
X13323529Y-10203992D02*
X13353529Y-10233992D01*
X13353529Y-10203992D02*
X13323529Y-10233992D01*
X13337380Y-6615380D02*
X13367380Y-6645380D01*
X13367380Y-6615380D02*
X13337380Y-6645380D01*
X13426000Y-8692000D02*
X13456000Y-8722000D01*
X13456000Y-8692000D02*
X13426000Y-8722000D01*
X13438000Y-9496000D02*
X13468000Y-9526000D01*
X13468000Y-9496000D02*
X13438000Y-9526000D01*
X13442000Y-8923000D02*
X13472000Y-8953000D01*
X13472000Y-8923000D02*
X13442000Y-8953000D01*
X13450000Y-12574000D02*
X13480000Y-12604000D01*
X13480000Y-12574000D02*
X13450000Y-12604000D01*
X13480000Y-11974000D02*
X13510000Y-12004000D01*
X13510000Y-11974000D02*
X13480000Y-12004000D01*
X13483933Y-10308679D02*
X13513933Y-10338679D01*
X13513933Y-10308679D02*
X13483933Y-10338679D01*
X13497000Y-13707000D02*
X13527000Y-13737000D01*
X13527000Y-13707000D02*
X13497000Y-13737000D01*
X13506000Y-9563000D02*
X13536000Y-9593000D01*
X13536000Y-9563000D02*
X13506000Y-9593000D01*
X13553000Y-9331000D02*
X13583000Y-9361000D01*
X13583000Y-9331000D02*
X13553000Y-9361000D01*
X13558000Y-13921000D02*
X13588000Y-13951000D01*
X13588000Y-13921000D02*
X13558000Y-13951000D01*
X13567000Y-8735000D02*
X13597000Y-8765000D01*
X13597000Y-8735000D02*
X13567000Y-8765000D01*
X13569500Y-10353849D02*
X13599500Y-10383849D01*
X13599500Y-10353849D02*
X13569500Y-10383849D01*
X13588000Y-11206000D02*
X13618000Y-11236000D01*
X13618000Y-11206000D02*
X13588000Y-11236000D01*
X13651000Y-8736000D02*
X13681000Y-8766000D01*
X13681000Y-8736000D02*
X13651000Y-8766000D01*
X13651000Y-10309000D02*
X13681000Y-10339000D01*
X13681000Y-10309000D02*
X13651000Y-10339000D01*
X13679038Y-10023962D02*
X13709038Y-10053962D01*
X13709038Y-10023962D02*
X13679038Y-10053962D01*
X13689900Y-8524953D02*
X13719900Y-8554953D01*
X13719900Y-8524953D02*
X13689900Y-8554953D01*
X13705000Y-8972462D02*
X13735000Y-9002462D01*
X13735000Y-8972462D02*
X13705000Y-9002462D01*
X13705000Y-9035000D02*
X13735000Y-9065000D01*
X13735000Y-9035000D02*
X13705000Y-9065000D01*
X13706514Y-8840112D02*
X13736514Y-8870112D01*
X13736514Y-8840112D02*
X13706514Y-8870112D01*
X13707380Y-7275380D02*
X13737380Y-7305380D01*
X13737380Y-7275380D02*
X13707380Y-7305380D01*
X13719194Y-9339194D02*
X13749194Y-9369194D01*
X13749194Y-9339194D02*
X13719194Y-9369194D01*
X13737000Y-13857000D02*
X13767000Y-13887000D01*
X13767000Y-13857000D02*
X13737000Y-13887000D01*
X13737380Y-6675380D02*
X13767380Y-6705380D01*
X13767380Y-6675380D02*
X13737380Y-6705380D01*
X13750000Y-9821000D02*
X13780000Y-9851000D01*
X13780000Y-9821000D02*
X13750000Y-9851000D01*
X13773010Y-8596087D02*
X13803010Y-8626087D01*
X13803010Y-8596087D02*
X13773010Y-8626087D01*
X13811760Y-8473267D02*
X13841760Y-8503267D01*
X13841760Y-8473267D02*
X13811760Y-8503267D01*
X13824486Y-9878278D02*
X13854486Y-9908278D01*
X13854486Y-9878278D02*
X13824486Y-9908278D01*
X13842900Y-8552100D02*
X13872900Y-8582100D01*
X13872900Y-8552100D02*
X13842900Y-8582100D01*
X13850000Y-12634000D02*
X13880000Y-12664000D01*
X13880000Y-12634000D02*
X13850000Y-12664000D01*
X13867380Y-7425380D02*
X13897380Y-7455380D01*
X13897380Y-7425380D02*
X13867380Y-7455380D01*
X13890000Y-11824000D02*
X13920000Y-11854000D01*
X13920000Y-11824000D02*
X13890000Y-11854000D01*
X13906100Y-9909500D02*
X13936100Y-9939500D01*
X13936100Y-9909500D02*
X13906100Y-9939500D01*
X13936800Y-9709300D02*
X13966800Y-9739300D01*
X13966800Y-9709300D02*
X13936800Y-9739300D01*
X13937000Y-8799000D02*
X13967000Y-8829000D01*
X13967000Y-8799000D02*
X13937000Y-8829000D01*
X13937000Y-9102000D02*
X13967000Y-9132000D01*
X13967000Y-9102000D02*
X13937000Y-9132000D01*
X13980000Y-8318000D02*
X14010000Y-8348000D01*
X14010000Y-8318000D02*
X13980000Y-8348000D01*
X13986000Y-8411000D02*
X14016000Y-8441000D01*
X14016000Y-8411000D02*
X13986000Y-8441000D01*
X14012143Y-8898796D02*
X14042143Y-8928796D01*
X14042143Y-8898796D02*
X14012143Y-8928796D01*
X14022000Y-9139000D02*
X14052000Y-9169000D01*
X14052000Y-9139000D02*
X14022000Y-9169000D01*
X14050000Y-11974000D02*
X14080000Y-12004000D01*
X14080000Y-11974000D02*
X14050000Y-12004000D01*
X14102330Y-9142471D02*
X14132330Y-9172471D01*
X14132330Y-9142471D02*
X14102330Y-9172471D01*
X14136000Y-8656000D02*
X14166000Y-8686000D01*
X14166000Y-8656000D02*
X14136000Y-8686000D01*
X14172000Y-10729000D02*
X14202000Y-10759000D01*
X14202000Y-10729000D02*
X14172000Y-10759000D01*
X14183800Y-10478500D02*
X14213800Y-10508500D01*
X14213800Y-10478500D02*
X14183800Y-10508500D01*
X14250300Y-9508800D02*
X14280300Y-9538800D01*
X14280300Y-9508800D02*
X14250300Y-9538800D01*
X14263700Y-10480000D02*
X14293700Y-10510000D01*
X14293700Y-10480000D02*
X14263700Y-10510000D01*
X14264600Y-10104200D02*
X14294600Y-10134200D01*
X14294600Y-10104200D02*
X14264600Y-10134200D01*
X14272968Y-10701271D02*
X14302968Y-10731271D01*
X14302968Y-10701271D02*
X14272968Y-10731271D01*
X14277380Y-7275380D02*
X14307380Y-7305380D01*
X14307380Y-7275380D02*
X14277380Y-7305380D01*
X14280000Y-9049000D02*
X14310000Y-9079000D01*
X14310000Y-9049000D02*
X14280000Y-9079000D01*
X14284000Y-8450000D02*
X14314000Y-8480000D01*
X14314000Y-8450000D02*
X14284000Y-8480000D01*
X14292000Y-8876000D02*
X14322000Y-8906000D01*
X14322000Y-8876000D02*
X14292000Y-8906000D01*
X14304000Y-8319000D02*
X14334000Y-8349000D01*
X14334000Y-8319000D02*
X14304000Y-8349000D01*
X14365000Y-9493100D02*
X14395000Y-9523100D01*
X14395000Y-9493100D02*
X14365000Y-9523100D01*
X14393000Y-9856000D02*
X14423000Y-9886000D01*
X14423000Y-9856000D02*
X14393000Y-9886000D01*
X14397000Y-7422000D02*
X14427000Y-7452000D01*
X14427000Y-7422000D02*
X14397000Y-7452000D01*
X14407287Y-10475995D02*
X14437287Y-10505995D01*
X14437287Y-10475995D02*
X14407287Y-10505995D01*
X14439000Y-9941000D02*
X14469000Y-9971000D01*
X14469000Y-9941000D02*
X14439000Y-9971000D01*
X14440000Y-11834000D02*
X14470000Y-11864000D01*
X14470000Y-11834000D02*
X14440000Y-11864000D01*
X14586000Y-9425000D02*
X14616000Y-9455000D01*
X14616000Y-9425000D02*
X14586000Y-9455000D01*
X14614500Y-9898900D02*
X14644500Y-9928900D01*
X14644500Y-9898900D02*
X14614500Y-9928900D01*
X14688000Y-9424000D02*
X14718000Y-9454000D01*
X14718000Y-9424000D02*
X14688000Y-9454000D01*
X14702600Y-10063800D02*
X14732600Y-10093800D01*
X14732600Y-10063800D02*
X14702600Y-10093800D01*
X14702600Y-10251600D02*
X14732600Y-10281600D01*
X14732600Y-10251600D02*
X14702600Y-10281600D01*
X14742900Y-10385300D02*
X14772900Y-10415300D01*
X14772900Y-10385300D02*
X14742900Y-10415300D01*
X14775000Y-9785000D02*
X14805000Y-9815000D01*
X14805000Y-9785000D02*
X14775000Y-9815000D01*
X14790000Y-9325000D02*
X14820000Y-9355000D01*
X14820000Y-9325000D02*
X14790000Y-9355000D01*
X15795000Y-10425000D02*
X15825000Y-10455000D01*
X15825000Y-10425000D02*
X15795000Y-10455000D01*
X15796000Y-9901000D02*
X15826000Y-9931000D01*
X15826000Y-9901000D02*
X15796000Y-9931000D01*
X15796000Y-9331000D02*
X15826000Y-9361000D01*
X15826000Y-9331000D02*
X15796000Y-9361000D01*
X15806000Y-8781000D02*
X15836000Y-8811000D01*
X15836000Y-8781000D02*
X15806000Y-8811000D01*
X15931000Y-10282000D02*
X15961000Y-10312000D01*
X15961000Y-10282000D02*
X15931000Y-10312000D01*
X15946000Y-9171000D02*
X15976000Y-9201000D01*
X15976000Y-9171000D02*
X15946000Y-9201000D01*
X15946000Y-9741000D02*
X15976000Y-9771000D01*
X15976000Y-9741000D02*
X15946000Y-9771000D01*
X16546000Y-9771000D02*
X16576000Y-9801000D01*
X16576000Y-9771000D02*
X16546000Y-9801000D01*
X16606000Y-9371000D02*
X16636000Y-9401000D01*
X16636000Y-9371000D02*
X16606000Y-9401000D01*
X12285000Y-9339000D02*
G75*
G02*
X12255000Y-9339000I-15000J0D01*
G01*
X12255000Y-9339000D02*
G75*
G02*
X12285000Y-9339000I15000J0D01*
G01*
X12230000Y-8450000D02*
X12230000Y-8490000D01*
X12210000Y-8470000D02*
X12250000Y-8470000D01*
X12230000Y-8570000D02*
X12230000Y-8610000D01*
X12210000Y-8590000D02*
X12250000Y-8590000D01*
X12230000Y-8680000D02*
X12230000Y-8720000D01*
X12210000Y-8700000D02*
X12250000Y-8700000D01*
X12250000Y-10557000D02*
X12250000Y-10597000D01*
X12230000Y-10577000D02*
X12270000Y-10577000D01*
X12330000Y-8880000D02*
X12330000Y-8920000D01*
X12310000Y-8900000D02*
X12350000Y-8900000D01*
X12420000Y-10620000D02*
X12420000Y-10660000D01*
X12400000Y-10640000D02*
X12440000Y-10640000D01*
X12435000Y-10999000D02*
X12435000Y-11039000D01*
X12415000Y-11019000D02*
X12455000Y-11019000D01*
X12450000Y-8990000D02*
X12450000Y-9030000D01*
X12430000Y-9010000D02*
X12470000Y-9010000D01*
X12471000Y-8676000D02*
X12471000Y-8716000D01*
X12451000Y-8696000D02*
X12491000Y-8696000D01*
X12510000Y-10919779D02*
X12510000Y-10959779D01*
X12490000Y-10939779D02*
X12530000Y-10939779D01*
X12530000Y-8380000D02*
X12530000Y-8420000D01*
X12510000Y-8400000D02*
X12550000Y-8400000D01*
X12544000Y-9096000D02*
X12544000Y-9136000D01*
X12524000Y-9116000D02*
X12564000Y-9116000D01*
X12628000Y-9099000D02*
X12628000Y-9139000D01*
X12608000Y-9119000D02*
X12648000Y-9119000D01*
X12630000Y-10960000D02*
X12630000Y-11000000D01*
X12610000Y-10980000D02*
X12650000Y-10980000D01*
X12640000Y-8830000D02*
X12640000Y-8870000D01*
X12620000Y-8850000D02*
X12660000Y-8850000D01*
X12645000Y-8515000D02*
X12645000Y-8555000D01*
X12625000Y-8535000D02*
X12665000Y-8535000D01*
X12707000Y-10819000D02*
X12707000Y-10859000D01*
X12687000Y-10839000D02*
X12727000Y-10839000D01*
X13055000Y-10660000D02*
X13055000Y-10700000D01*
X13035000Y-10680000D02*
X13075000Y-10680000D01*
X13262000Y-10250000D02*
X13262000Y-10290000D01*
X13242000Y-10270000D02*
X13282000Y-10270000D01*
X13733000Y-10133000D02*
X13733000Y-10173000D01*
X13713000Y-10153000D02*
X13753000Y-10153000D01*
X13869000Y-10291000D02*
X13869000Y-10331000D01*
X13849000Y-10311000D02*
X13889000Y-10311000D01*
X13902000Y-9325000D02*
X13902000Y-9365000D01*
X13882000Y-9345000D02*
X13922000Y-9345000D01*
X13980300Y-9564800D02*
X13980300Y-9604800D01*
X13960300Y-9584800D02*
X14000300Y-9584800D01*
X13995100Y-9935600D02*
X13995100Y-9975600D01*
X13975100Y-9955600D02*
X14015100Y-9955600D01*
X14094600Y-10175400D02*
X14094600Y-10215400D01*
X14074600Y-10195400D02*
X14114600Y-10195400D01*
X14134000Y-10970000D02*
X14134000Y-11010000D01*
X14114000Y-10990000D02*
X14154000Y-10990000D01*
X14203000Y-9928000D02*
X14203000Y-9968000D01*
X14183000Y-9948000D02*
X14223000Y-9948000D01*
X14204000Y-11011000D02*
X14204000Y-11051000D01*
X14184000Y-11031000D02*
X14224000Y-11031000D01*
X14404400Y-9730300D02*
X14404400Y-9770300D01*
X14384400Y-9750300D02*
X14424400Y-9750300D01*
X14430000Y-8220000D02*
X14430000Y-8260000D01*
X14410000Y-8240000D02*
X14450000Y-8240000D01*
X14498800Y-10723500D02*
X14498800Y-10763500D01*
X14478800Y-10743500D02*
X14518800Y-10743500D01*
X14510000Y-8720000D02*
X14510000Y-8760000D01*
X14490000Y-8740000D02*
X14530000Y-8740000D01*
X14559200Y-10476900D02*
X14559200Y-10516900D01*
X14539200Y-10496900D02*
X14579200Y-10496900D01*
X14576000Y-9517000D02*
X14576000Y-9557000D01*
X14556000Y-9537000D02*
X14596000Y-9537000D01*
X14665000Y-8375000D02*
X14665000Y-8415000D01*
X14645000Y-8395000D02*
X14685000Y-8395000D01*
X14680900Y-10474600D02*
X14680900Y-10514600D01*
X14660900Y-10494600D02*
X14700900Y-10494600D01*
X14717600Y-10150100D02*
X14717600Y-10190100D01*
X14697600Y-10170100D02*
X14737600Y-10170100D01*
X14722100Y-10562300D02*
X14722100Y-10602300D01*
X14702100Y-10582300D02*
X14742100Y-10582300D01*
X14782380Y-8240380D02*
X14782380Y-8280380D01*
X14762380Y-8260380D02*
X14802380Y-8260380D01*
X14794500Y-10462700D02*
X14794500Y-10502700D01*
X14774500Y-10482700D02*
X14814500Y-10482700D01*
X14863500Y-10708300D02*
X14863500Y-10748300D01*
X14843500Y-10728300D02*
X14883500Y-10728300D01*
X14870000Y-8540000D02*
X14870000Y-8580000D01*
X14850000Y-8560000D02*
X14890000Y-8560000D01*
X14919000Y-10151600D02*
X14919000Y-10191600D01*
X14899000Y-10171600D02*
X14939000Y-10171600D01*
X14980000Y-10500000D02*
X14980000Y-10540000D01*
X14960000Y-10520000D02*
X15000000Y-10520000D01*
X14991000Y-10796000D02*
X14991000Y-10836000D01*
X14971000Y-10816000D02*
X15011000Y-10816000D01*
X14318384Y-8693527D02*
X14318384Y-8658171D01*
X14283029Y-8658171D01*
X14283029Y-8693527D01*
X14318384Y-8693527D01*
X14885000Y-9465000D02*
X14930000Y-9420000D01*
X14885000Y-9375000D01*
X14840000Y-9420000D01*
X14885000Y-9465000D01*
X14885000Y-9765000D02*
X14930000Y-9720000D01*
X14885000Y-9675000D01*
X14840000Y-9720000D01*
X14885000Y-9765000D01*
D12*
X10057228Y-14947403D02*
X10057228Y-14747403D01*
X10057228Y-14747403D02*
X10104847Y-14747403D01*
X10104847Y-14747403D02*
X10133419Y-14756927D01*
X10133419Y-14756927D02*
X10152467Y-14775975D01*
X10152467Y-14775975D02*
X10161990Y-14795022D01*
X10161990Y-14795022D02*
X10171514Y-14833118D01*
X10171514Y-14833118D02*
X10171514Y-14861689D01*
X10171514Y-14861689D02*
X10161990Y-14899784D01*
X10161990Y-14899784D02*
X10152467Y-14918832D01*
X10152467Y-14918832D02*
X10133419Y-14937880D01*
X10133419Y-14937880D02*
X10104847Y-14947403D01*
X10104847Y-14947403D02*
X10057228Y-14947403D01*
X10257228Y-14947403D02*
X10257228Y-14814070D01*
X10257228Y-14852165D02*
X10266752Y-14833118D01*
X10266752Y-14833118D02*
X10276276Y-14823594D01*
X10276276Y-14823594D02*
X10295324Y-14814070D01*
X10295324Y-14814070D02*
X10314371Y-14814070D01*
X10381038Y-14947403D02*
X10381038Y-14814070D01*
X10381038Y-14747403D02*
X10371514Y-14756927D01*
X10371514Y-14756927D02*
X10381038Y-14766451D01*
X10381038Y-14766451D02*
X10390562Y-14756927D01*
X10390562Y-14756927D02*
X10381038Y-14747403D01*
X10381038Y-14747403D02*
X10381038Y-14766451D01*
X10504847Y-14947403D02*
X10485800Y-14937880D01*
X10485800Y-14937880D02*
X10476276Y-14918832D01*
X10476276Y-14918832D02*
X10476276Y-14747403D01*
X10609609Y-14947403D02*
X10590562Y-14937880D01*
X10590562Y-14937880D02*
X10581038Y-14918832D01*
X10581038Y-14918832D02*
X10581038Y-14747403D01*
X10838181Y-14947403D02*
X10838181Y-14747403D01*
X10838181Y-14747403D02*
X10904848Y-14890261D01*
X10904848Y-14890261D02*
X10971514Y-14747403D01*
X10971514Y-14747403D02*
X10971514Y-14947403D01*
X11152467Y-14947403D02*
X11152467Y-14842642D01*
X11152467Y-14842642D02*
X11142943Y-14823594D01*
X11142943Y-14823594D02*
X11123895Y-14814070D01*
X11123895Y-14814070D02*
X11085800Y-14814070D01*
X11085800Y-14814070D02*
X11066752Y-14823594D01*
X11152467Y-14937880D02*
X11133419Y-14947403D01*
X11133419Y-14947403D02*
X11085800Y-14947403D01*
X11085800Y-14947403D02*
X11066752Y-14937880D01*
X11066752Y-14937880D02*
X11057228Y-14918832D01*
X11057228Y-14918832D02*
X11057228Y-14899784D01*
X11057228Y-14899784D02*
X11066752Y-14880737D01*
X11066752Y-14880737D02*
X11085800Y-14871213D01*
X11085800Y-14871213D02*
X11133419Y-14871213D01*
X11133419Y-14871213D02*
X11152467Y-14861689D01*
X11247705Y-14814070D02*
X11247705Y-15014070D01*
X11247705Y-14823594D02*
X11266752Y-14814070D01*
X11266752Y-14814070D02*
X11304847Y-14814070D01*
X11304847Y-14814070D02*
X11323895Y-14823594D01*
X11323895Y-14823594D02*
X11333419Y-14833118D01*
X11333419Y-14833118D02*
X11342943Y-14852165D01*
X11342943Y-14852165D02*
X11342943Y-14909308D01*
X11342943Y-14909308D02*
X11333419Y-14928356D01*
X11333419Y-14928356D02*
X11323895Y-14937880D01*
X11323895Y-14937880D02*
X11304847Y-14947403D01*
X11304847Y-14947403D02*
X11266752Y-14947403D01*
X11266752Y-14947403D02*
X11247705Y-14937880D01*
X11428657Y-14928356D02*
X11438181Y-14937880D01*
X11438181Y-14937880D02*
X11428657Y-14947403D01*
X11428657Y-14947403D02*
X11419133Y-14937880D01*
X11419133Y-14937880D02*
X11428657Y-14928356D01*
X11428657Y-14928356D02*
X11428657Y-14947403D01*
X11428657Y-14823594D02*
X11438181Y-14833118D01*
X11438181Y-14833118D02*
X11428657Y-14842642D01*
X11428657Y-14842642D02*
X11419133Y-14833118D01*
X11419133Y-14833118D02*
X11428657Y-14823594D01*
X11428657Y-14823594D02*
X11428657Y-14842642D01*
D10*
X9766452Y-15260920D02*
X9796452Y-15290920D01*
X9796452Y-15260920D02*
X9766452Y-15290920D01*
D12*
X10095324Y-15167403D02*
X10114371Y-15167403D01*
X10114371Y-15167403D02*
X10133419Y-15176927D01*
X10133419Y-15176927D02*
X10142943Y-15186451D01*
X10142943Y-15186451D02*
X10152467Y-15205499D01*
X10152467Y-15205499D02*
X10161990Y-15243594D01*
X10161990Y-15243594D02*
X10161990Y-15291213D01*
X10161990Y-15291213D02*
X10152467Y-15329308D01*
X10152467Y-15329308D02*
X10142943Y-15348356D01*
X10142943Y-15348356D02*
X10133419Y-15357880D01*
X10133419Y-15357880D02*
X10114371Y-15367403D01*
X10114371Y-15367403D02*
X10095324Y-15367403D01*
X10095324Y-15367403D02*
X10076276Y-15357880D01*
X10076276Y-15357880D02*
X10066752Y-15348356D01*
X10066752Y-15348356D02*
X10057228Y-15329308D01*
X10057228Y-15329308D02*
X10047705Y-15291213D01*
X10047705Y-15291213D02*
X10047705Y-15243594D01*
X10047705Y-15243594D02*
X10057228Y-15205499D01*
X10057228Y-15205499D02*
X10066752Y-15186451D01*
X10066752Y-15186451D02*
X10076276Y-15176927D01*
X10076276Y-15176927D02*
X10095324Y-15167403D01*
X10247705Y-15348356D02*
X10257228Y-15357880D01*
X10257228Y-15357880D02*
X10247705Y-15367403D01*
X10247705Y-15367403D02*
X10238181Y-15357880D01*
X10238181Y-15357880D02*
X10247705Y-15348356D01*
X10247705Y-15348356D02*
X10247705Y-15367403D01*
X10323895Y-15167403D02*
X10447705Y-15167403D01*
X10447705Y-15167403D02*
X10381038Y-15243594D01*
X10381038Y-15243594D02*
X10409609Y-15243594D01*
X10409609Y-15243594D02*
X10428657Y-15253118D01*
X10428657Y-15253118D02*
X10438181Y-15262642D01*
X10438181Y-15262642D02*
X10447705Y-15281689D01*
X10447705Y-15281689D02*
X10447705Y-15329308D01*
X10447705Y-15329308D02*
X10438181Y-15348356D01*
X10438181Y-15348356D02*
X10428657Y-15357880D01*
X10428657Y-15357880D02*
X10409609Y-15367403D01*
X10409609Y-15367403D02*
X10352467Y-15367403D01*
X10352467Y-15367403D02*
X10333419Y-15357880D01*
X10333419Y-15357880D02*
X10323895Y-15348356D01*
X10571514Y-15167403D02*
X10590562Y-15167403D01*
X10590562Y-15167403D02*
X10609609Y-15176927D01*
X10609609Y-15176927D02*
X10619133Y-15186451D01*
X10619133Y-15186451D02*
X10628657Y-15205499D01*
X10628657Y-15205499D02*
X10638181Y-15243594D01*
X10638181Y-15243594D02*
X10638181Y-15291213D01*
X10638181Y-15291213D02*
X10628657Y-15329308D01*
X10628657Y-15329308D02*
X10619133Y-15348356D01*
X10619133Y-15348356D02*
X10609609Y-15357880D01*
X10609609Y-15357880D02*
X10590562Y-15367403D01*
X10590562Y-15367403D02*
X10571514Y-15367403D01*
X10571514Y-15367403D02*
X10552467Y-15357880D01*
X10552467Y-15357880D02*
X10542943Y-15348356D01*
X10542943Y-15348356D02*
X10533419Y-15329308D01*
X10533419Y-15329308D02*
X10523895Y-15291213D01*
X10523895Y-15291213D02*
X10523895Y-15243594D01*
X10523895Y-15243594D02*
X10533419Y-15205499D01*
X10533419Y-15205499D02*
X10542943Y-15186451D01*
X10542943Y-15186451D02*
X10552467Y-15176927D01*
X10552467Y-15176927D02*
X10571514Y-15167403D01*
X10761990Y-15167403D02*
X10781038Y-15167403D01*
X10781038Y-15167403D02*
X10800086Y-15176927D01*
X10800086Y-15176927D02*
X10809609Y-15186451D01*
X10809609Y-15186451D02*
X10819133Y-15205499D01*
X10819133Y-15205499D02*
X10828657Y-15243594D01*
X10828657Y-15243594D02*
X10828657Y-15291213D01*
X10828657Y-15291213D02*
X10819133Y-15329308D01*
X10819133Y-15329308D02*
X10809609Y-15348356D01*
X10809609Y-15348356D02*
X10800086Y-15357880D01*
X10800086Y-15357880D02*
X10781038Y-15367403D01*
X10781038Y-15367403D02*
X10761990Y-15367403D01*
X10761990Y-15367403D02*
X10742943Y-15357880D01*
X10742943Y-15357880D02*
X10733419Y-15348356D01*
X10733419Y-15348356D02*
X10723895Y-15329308D01*
X10723895Y-15329308D02*
X10714371Y-15291213D01*
X10714371Y-15291213D02*
X10714371Y-15243594D01*
X10714371Y-15243594D02*
X10723895Y-15205499D01*
X10723895Y-15205499D02*
X10733419Y-15186451D01*
X10733419Y-15186451D02*
X10742943Y-15176927D01*
X10742943Y-15176927D02*
X10761990Y-15167403D01*
X10914371Y-15367403D02*
X10914371Y-15234070D01*
X10914371Y-15253118D02*
X10923895Y-15243594D01*
X10923895Y-15243594D02*
X10942943Y-15234070D01*
X10942943Y-15234070D02*
X10971514Y-15234070D01*
X10971514Y-15234070D02*
X10990562Y-15243594D01*
X10990562Y-15243594D02*
X11000086Y-15262642D01*
X11000086Y-15262642D02*
X11000086Y-15367403D01*
X11000086Y-15262642D02*
X11009609Y-15243594D01*
X11009609Y-15243594D02*
X11028657Y-15234070D01*
X11028657Y-15234070D02*
X11057228Y-15234070D01*
X11057228Y-15234070D02*
X11076276Y-15243594D01*
X11076276Y-15243594D02*
X11085800Y-15262642D01*
X11085800Y-15262642D02*
X11085800Y-15367403D01*
X11181038Y-15367403D02*
X11181038Y-15234070D01*
X11181038Y-15253118D02*
X11190562Y-15243594D01*
X11190562Y-15243594D02*
X11209609Y-15234070D01*
X11209609Y-15234070D02*
X11238181Y-15234070D01*
X11238181Y-15234070D02*
X11257228Y-15243594D01*
X11257228Y-15243594D02*
X11266752Y-15262642D01*
X11266752Y-15262642D02*
X11266752Y-15367403D01*
X11266752Y-15262642D02*
X11276276Y-15243594D01*
X11276276Y-15243594D02*
X11295324Y-15234070D01*
X11295324Y-15234070D02*
X11323895Y-15234070D01*
X11323895Y-15234070D02*
X11342943Y-15243594D01*
X11342943Y-15243594D02*
X11352467Y-15262642D01*
X11352467Y-15262642D02*
X11352467Y-15367403D01*
X11742943Y-15157880D02*
X11571514Y-15415022D01*
X12000086Y-15167403D02*
X12019133Y-15167403D01*
X12019133Y-15167403D02*
X12038181Y-15176927D01*
X12038181Y-15176927D02*
X12047705Y-15186451D01*
X12047705Y-15186451D02*
X12057229Y-15205499D01*
X12057229Y-15205499D02*
X12066752Y-15243594D01*
X12066752Y-15243594D02*
X12066752Y-15291213D01*
X12066752Y-15291213D02*
X12057229Y-15329308D01*
X12057229Y-15329308D02*
X12047705Y-15348356D01*
X12047705Y-15348356D02*
X12038181Y-15357880D01*
X12038181Y-15357880D02*
X12019133Y-15367403D01*
X12019133Y-15367403D02*
X12000086Y-15367403D01*
X12000086Y-15367403D02*
X11981038Y-15357880D01*
X11981038Y-15357880D02*
X11971514Y-15348356D01*
X11971514Y-15348356D02*
X11961990Y-15329308D01*
X11961990Y-15329308D02*
X11952467Y-15291213D01*
X11952467Y-15291213D02*
X11952467Y-15243594D01*
X11952467Y-15243594D02*
X11961990Y-15205499D01*
X11961990Y-15205499D02*
X11971514Y-15186451D01*
X11971514Y-15186451D02*
X11981038Y-15176927D01*
X11981038Y-15176927D02*
X12000086Y-15167403D01*
X12152467Y-15348356D02*
X12161990Y-15357880D01*
X12161990Y-15357880D02*
X12152467Y-15367403D01*
X12152467Y-15367403D02*
X12142943Y-15357880D01*
X12142943Y-15357880D02*
X12152467Y-15348356D01*
X12152467Y-15348356D02*
X12152467Y-15367403D01*
X12285800Y-15167403D02*
X12304848Y-15167403D01*
X12304848Y-15167403D02*
X12323895Y-15176927D01*
X12323895Y-15176927D02*
X12333419Y-15186451D01*
X12333419Y-15186451D02*
X12342943Y-15205499D01*
X12342943Y-15205499D02*
X12352467Y-15243594D01*
X12352467Y-15243594D02*
X12352467Y-15291213D01*
X12352467Y-15291213D02*
X12342943Y-15329308D01*
X12342943Y-15329308D02*
X12333419Y-15348356D01*
X12333419Y-15348356D02*
X12323895Y-15357880D01*
X12323895Y-15357880D02*
X12304848Y-15367403D01*
X12304848Y-15367403D02*
X12285800Y-15367403D01*
X12285800Y-15367403D02*
X12266752Y-15357880D01*
X12266752Y-15357880D02*
X12257229Y-15348356D01*
X12257229Y-15348356D02*
X12247705Y-15329308D01*
X12247705Y-15329308D02*
X12238181Y-15291213D01*
X12238181Y-15291213D02*
X12238181Y-15243594D01*
X12238181Y-15243594D02*
X12247705Y-15205499D01*
X12247705Y-15205499D02*
X12257229Y-15186451D01*
X12257229Y-15186451D02*
X12266752Y-15176927D01*
X12266752Y-15176927D02*
X12285800Y-15167403D01*
X12542943Y-15367403D02*
X12428657Y-15367403D01*
X12485800Y-15367403D02*
X12485800Y-15167403D01*
X12485800Y-15167403D02*
X12466752Y-15195975D01*
X12466752Y-15195975D02*
X12447705Y-15215022D01*
X12447705Y-15215022D02*
X12428657Y-15224546D01*
X12733419Y-15367403D02*
X12619133Y-15367403D01*
X12676276Y-15367403D02*
X12676276Y-15167403D01*
X12676276Y-15167403D02*
X12657229Y-15195975D01*
X12657229Y-15195975D02*
X12638181Y-15215022D01*
X12638181Y-15215022D02*
X12619133Y-15224546D01*
X12847705Y-15253118D02*
X12828657Y-15243594D01*
X12828657Y-15243594D02*
X12819133Y-15234070D01*
X12819133Y-15234070D02*
X12809610Y-15215022D01*
X12809610Y-15215022D02*
X12809610Y-15205499D01*
X12809610Y-15205499D02*
X12819133Y-15186451D01*
X12819133Y-15186451D02*
X12828657Y-15176927D01*
X12828657Y-15176927D02*
X12847705Y-15167403D01*
X12847705Y-15167403D02*
X12885800Y-15167403D01*
X12885800Y-15167403D02*
X12904848Y-15176927D01*
X12904848Y-15176927D02*
X12914371Y-15186451D01*
X12914371Y-15186451D02*
X12923895Y-15205499D01*
X12923895Y-15205499D02*
X12923895Y-15215022D01*
X12923895Y-15215022D02*
X12914371Y-15234070D01*
X12914371Y-15234070D02*
X12904848Y-15243594D01*
X12904848Y-15243594D02*
X12885800Y-15253118D01*
X12885800Y-15253118D02*
X12847705Y-15253118D01*
X12847705Y-15253118D02*
X12828657Y-15262642D01*
X12828657Y-15262642D02*
X12819133Y-15272165D01*
X12819133Y-15272165D02*
X12809610Y-15291213D01*
X12809610Y-15291213D02*
X12809610Y-15329308D01*
X12809610Y-15329308D02*
X12819133Y-15348356D01*
X12819133Y-15348356D02*
X12828657Y-15357880D01*
X12828657Y-15357880D02*
X12847705Y-15367403D01*
X12847705Y-15367403D02*
X12885800Y-15367403D01*
X12885800Y-15367403D02*
X12904848Y-15357880D01*
X12904848Y-15357880D02*
X12914371Y-15348356D01*
X12914371Y-15348356D02*
X12923895Y-15329308D01*
X12923895Y-15329308D02*
X12923895Y-15291213D01*
X12923895Y-15291213D02*
X12914371Y-15272165D01*
X12914371Y-15272165D02*
X12904848Y-15262642D01*
X12904848Y-15262642D02*
X12885800Y-15253118D01*
X13000086Y-15167403D02*
X13000086Y-15205499D01*
X13076276Y-15167403D02*
X13076276Y-15205499D01*
X13371514Y-15443594D02*
X13361991Y-15434070D01*
X13361991Y-15434070D02*
X13342943Y-15405499D01*
X13342943Y-15405499D02*
X13333419Y-15386451D01*
X13333419Y-15386451D02*
X13323895Y-15357880D01*
X13323895Y-15357880D02*
X13314372Y-15310261D01*
X13314372Y-15310261D02*
X13314372Y-15272165D01*
X13314372Y-15272165D02*
X13323895Y-15224546D01*
X13323895Y-15224546D02*
X13333419Y-15195975D01*
X13333419Y-15195975D02*
X13342943Y-15176927D01*
X13342943Y-15176927D02*
X13361991Y-15148356D01*
X13361991Y-15148356D02*
X13371514Y-15138832D01*
X13552467Y-15367403D02*
X13438181Y-15367403D01*
X13495324Y-15367403D02*
X13495324Y-15167403D01*
X13495324Y-15167403D02*
X13476276Y-15195975D01*
X13476276Y-15195975D02*
X13457229Y-15215022D01*
X13457229Y-15215022D02*
X13438181Y-15224546D01*
X13723895Y-15234070D02*
X13723895Y-15367403D01*
X13676276Y-15157880D02*
X13628657Y-15300737D01*
X13628657Y-15300737D02*
X13752467Y-15300737D01*
X13838181Y-15367403D02*
X13876276Y-15367403D01*
X13876276Y-15367403D02*
X13895324Y-15357880D01*
X13895324Y-15357880D02*
X13904848Y-15348356D01*
X13904848Y-15348356D02*
X13923895Y-15319784D01*
X13923895Y-15319784D02*
X13933419Y-15281689D01*
X13933419Y-15281689D02*
X13933419Y-15205499D01*
X13933419Y-15205499D02*
X13923895Y-15186451D01*
X13923895Y-15186451D02*
X13914372Y-15176927D01*
X13914372Y-15176927D02*
X13895324Y-15167403D01*
X13895324Y-15167403D02*
X13857229Y-15167403D01*
X13857229Y-15167403D02*
X13838181Y-15176927D01*
X13838181Y-15176927D02*
X13828657Y-15186451D01*
X13828657Y-15186451D02*
X13819133Y-15205499D01*
X13819133Y-15205499D02*
X13819133Y-15253118D01*
X13819133Y-15253118D02*
X13828657Y-15272165D01*
X13828657Y-15272165D02*
X13838181Y-15281689D01*
X13838181Y-15281689D02*
X13857229Y-15291213D01*
X13857229Y-15291213D02*
X13895324Y-15291213D01*
X13895324Y-15291213D02*
X13914372Y-15281689D01*
X13914372Y-15281689D02*
X13923895Y-15272165D01*
X13923895Y-15272165D02*
X13933419Y-15253118D01*
X14171514Y-15367403D02*
X14171514Y-15167403D01*
X14257229Y-15367403D02*
X14257229Y-15262642D01*
X14257229Y-15262642D02*
X14247705Y-15243594D01*
X14247705Y-15243594D02*
X14228657Y-15234070D01*
X14228657Y-15234070D02*
X14200086Y-15234070D01*
X14200086Y-15234070D02*
X14181038Y-15243594D01*
X14181038Y-15243594D02*
X14171514Y-15253118D01*
X14381038Y-15367403D02*
X14361991Y-15357880D01*
X14361991Y-15357880D02*
X14352467Y-15348356D01*
X14352467Y-15348356D02*
X14342943Y-15329308D01*
X14342943Y-15329308D02*
X14342943Y-15272165D01*
X14342943Y-15272165D02*
X14352467Y-15253118D01*
X14352467Y-15253118D02*
X14361991Y-15243594D01*
X14361991Y-15243594D02*
X14381038Y-15234070D01*
X14381038Y-15234070D02*
X14409610Y-15234070D01*
X14409610Y-15234070D02*
X14428657Y-15243594D01*
X14428657Y-15243594D02*
X14438181Y-15253118D01*
X14438181Y-15253118D02*
X14447705Y-15272165D01*
X14447705Y-15272165D02*
X14447705Y-15329308D01*
X14447705Y-15329308D02*
X14438181Y-15348356D01*
X14438181Y-15348356D02*
X14428657Y-15357880D01*
X14428657Y-15357880D02*
X14409610Y-15367403D01*
X14409610Y-15367403D02*
X14381038Y-15367403D01*
X14561991Y-15367403D02*
X14542943Y-15357880D01*
X14542943Y-15357880D02*
X14533419Y-15338832D01*
X14533419Y-15338832D02*
X14533419Y-15167403D01*
X14714372Y-15357880D02*
X14695324Y-15367403D01*
X14695324Y-15367403D02*
X14657229Y-15367403D01*
X14657229Y-15367403D02*
X14638181Y-15357880D01*
X14638181Y-15357880D02*
X14628657Y-15338832D01*
X14628657Y-15338832D02*
X14628657Y-15262642D01*
X14628657Y-15262642D02*
X14638181Y-15243594D01*
X14638181Y-15243594D02*
X14657229Y-15234070D01*
X14657229Y-15234070D02*
X14695324Y-15234070D01*
X14695324Y-15234070D02*
X14714372Y-15243594D01*
X14714372Y-15243594D02*
X14723895Y-15262642D01*
X14723895Y-15262642D02*
X14723895Y-15281689D01*
X14723895Y-15281689D02*
X14628657Y-15300737D01*
X14800086Y-15357880D02*
X14819134Y-15367403D01*
X14819134Y-15367403D02*
X14857229Y-15367403D01*
X14857229Y-15367403D02*
X14876276Y-15357880D01*
X14876276Y-15357880D02*
X14885800Y-15338832D01*
X14885800Y-15338832D02*
X14885800Y-15329308D01*
X14885800Y-15329308D02*
X14876276Y-15310261D01*
X14876276Y-15310261D02*
X14857229Y-15300737D01*
X14857229Y-15300737D02*
X14828657Y-15300737D01*
X14828657Y-15300737D02*
X14809610Y-15291213D01*
X14809610Y-15291213D02*
X14800086Y-15272165D01*
X14800086Y-15272165D02*
X14800086Y-15262642D01*
X14800086Y-15262642D02*
X14809610Y-15243594D01*
X14809610Y-15243594D02*
X14828657Y-15234070D01*
X14828657Y-15234070D02*
X14857229Y-15234070D01*
X14857229Y-15234070D02*
X14876276Y-15243594D01*
X14952467Y-15443594D02*
X14961991Y-15434070D01*
X14961991Y-15434070D02*
X14981038Y-15405499D01*
X14981038Y-15405499D02*
X14990562Y-15386451D01*
X14990562Y-15386451D02*
X15000086Y-15357880D01*
X15000086Y-15357880D02*
X15009610Y-15310261D01*
X15009610Y-15310261D02*
X15009610Y-15272165D01*
X15009610Y-15272165D02*
X15000086Y-15224546D01*
X15000086Y-15224546D02*
X14990562Y-15195975D01*
X14990562Y-15195975D02*
X14981038Y-15176927D01*
X14981038Y-15176927D02*
X14961991Y-15148356D01*
X14961991Y-15148356D02*
X14952467Y-15138832D01*
D10*
X9796452Y-15539920D02*
G75*
G02*
X9766452Y-15539920I-15000J0D01*
G01*
X9766452Y-15539920D02*
G75*
G02*
X9796452Y-15539920I15000J0D01*
G01*
D12*
X10095324Y-15431403D02*
X10114371Y-15431403D01*
X10114371Y-15431403D02*
X10133419Y-15440927D01*
X10133419Y-15440927D02*
X10142943Y-15450451D01*
X10142943Y-15450451D02*
X10152467Y-15469499D01*
X10152467Y-15469499D02*
X10161990Y-15507594D01*
X10161990Y-15507594D02*
X10161990Y-15555213D01*
X10161990Y-15555213D02*
X10152467Y-15593308D01*
X10152467Y-15593308D02*
X10142943Y-15612356D01*
X10142943Y-15612356D02*
X10133419Y-15621880D01*
X10133419Y-15621880D02*
X10114371Y-15631403D01*
X10114371Y-15631403D02*
X10095324Y-15631403D01*
X10095324Y-15631403D02*
X10076276Y-15621880D01*
X10076276Y-15621880D02*
X10066752Y-15612356D01*
X10066752Y-15612356D02*
X10057228Y-15593308D01*
X10057228Y-15593308D02*
X10047705Y-15555213D01*
X10047705Y-15555213D02*
X10047705Y-15507594D01*
X10047705Y-15507594D02*
X10057228Y-15469499D01*
X10057228Y-15469499D02*
X10066752Y-15450451D01*
X10066752Y-15450451D02*
X10076276Y-15440927D01*
X10076276Y-15440927D02*
X10095324Y-15431403D01*
X10247705Y-15612356D02*
X10257228Y-15621880D01*
X10257228Y-15621880D02*
X10247705Y-15631403D01*
X10247705Y-15631403D02*
X10238181Y-15621880D01*
X10238181Y-15621880D02*
X10247705Y-15612356D01*
X10247705Y-15612356D02*
X10247705Y-15631403D01*
X10323895Y-15431403D02*
X10447705Y-15431403D01*
X10447705Y-15431403D02*
X10381038Y-15507594D01*
X10381038Y-15507594D02*
X10409609Y-15507594D01*
X10409609Y-15507594D02*
X10428657Y-15517118D01*
X10428657Y-15517118D02*
X10438181Y-15526642D01*
X10438181Y-15526642D02*
X10447705Y-15545689D01*
X10447705Y-15545689D02*
X10447705Y-15593308D01*
X10447705Y-15593308D02*
X10438181Y-15612356D01*
X10438181Y-15612356D02*
X10428657Y-15621880D01*
X10428657Y-15621880D02*
X10409609Y-15631403D01*
X10409609Y-15631403D02*
X10352467Y-15631403D01*
X10352467Y-15631403D02*
X10333419Y-15621880D01*
X10333419Y-15621880D02*
X10323895Y-15612356D01*
X10571514Y-15431403D02*
X10590562Y-15431403D01*
X10590562Y-15431403D02*
X10609609Y-15440927D01*
X10609609Y-15440927D02*
X10619133Y-15450451D01*
X10619133Y-15450451D02*
X10628657Y-15469499D01*
X10628657Y-15469499D02*
X10638181Y-15507594D01*
X10638181Y-15507594D02*
X10638181Y-15555213D01*
X10638181Y-15555213D02*
X10628657Y-15593308D01*
X10628657Y-15593308D02*
X10619133Y-15612356D01*
X10619133Y-15612356D02*
X10609609Y-15621880D01*
X10609609Y-15621880D02*
X10590562Y-15631403D01*
X10590562Y-15631403D02*
X10571514Y-15631403D01*
X10571514Y-15631403D02*
X10552467Y-15621880D01*
X10552467Y-15621880D02*
X10542943Y-15612356D01*
X10542943Y-15612356D02*
X10533419Y-15593308D01*
X10533419Y-15593308D02*
X10523895Y-15555213D01*
X10523895Y-15555213D02*
X10523895Y-15507594D01*
X10523895Y-15507594D02*
X10533419Y-15469499D01*
X10533419Y-15469499D02*
X10542943Y-15450451D01*
X10542943Y-15450451D02*
X10552467Y-15440927D01*
X10552467Y-15440927D02*
X10571514Y-15431403D01*
X10761990Y-15431403D02*
X10781038Y-15431403D01*
X10781038Y-15431403D02*
X10800086Y-15440927D01*
X10800086Y-15440927D02*
X10809609Y-15450451D01*
X10809609Y-15450451D02*
X10819133Y-15469499D01*
X10819133Y-15469499D02*
X10828657Y-15507594D01*
X10828657Y-15507594D02*
X10828657Y-15555213D01*
X10828657Y-15555213D02*
X10819133Y-15593308D01*
X10819133Y-15593308D02*
X10809609Y-15612356D01*
X10809609Y-15612356D02*
X10800086Y-15621880D01*
X10800086Y-15621880D02*
X10781038Y-15631403D01*
X10781038Y-15631403D02*
X10761990Y-15631403D01*
X10761990Y-15631403D02*
X10742943Y-15621880D01*
X10742943Y-15621880D02*
X10733419Y-15612356D01*
X10733419Y-15612356D02*
X10723895Y-15593308D01*
X10723895Y-15593308D02*
X10714371Y-15555213D01*
X10714371Y-15555213D02*
X10714371Y-15507594D01*
X10714371Y-15507594D02*
X10723895Y-15469499D01*
X10723895Y-15469499D02*
X10733419Y-15450451D01*
X10733419Y-15450451D02*
X10742943Y-15440927D01*
X10742943Y-15440927D02*
X10761990Y-15431403D01*
X10914371Y-15631403D02*
X10914371Y-15498070D01*
X10914371Y-15517118D02*
X10923895Y-15507594D01*
X10923895Y-15507594D02*
X10942943Y-15498070D01*
X10942943Y-15498070D02*
X10971514Y-15498070D01*
X10971514Y-15498070D02*
X10990562Y-15507594D01*
X10990562Y-15507594D02*
X11000086Y-15526642D01*
X11000086Y-15526642D02*
X11000086Y-15631403D01*
X11000086Y-15526642D02*
X11009609Y-15507594D01*
X11009609Y-15507594D02*
X11028657Y-15498070D01*
X11028657Y-15498070D02*
X11057228Y-15498070D01*
X11057228Y-15498070D02*
X11076276Y-15507594D01*
X11076276Y-15507594D02*
X11085800Y-15526642D01*
X11085800Y-15526642D02*
X11085800Y-15631403D01*
X11181038Y-15631403D02*
X11181038Y-15498070D01*
X11181038Y-15517118D02*
X11190562Y-15507594D01*
X11190562Y-15507594D02*
X11209609Y-15498070D01*
X11209609Y-15498070D02*
X11238181Y-15498070D01*
X11238181Y-15498070D02*
X11257228Y-15507594D01*
X11257228Y-15507594D02*
X11266752Y-15526642D01*
X11266752Y-15526642D02*
X11266752Y-15631403D01*
X11266752Y-15526642D02*
X11276276Y-15507594D01*
X11276276Y-15507594D02*
X11295324Y-15498070D01*
X11295324Y-15498070D02*
X11323895Y-15498070D01*
X11323895Y-15498070D02*
X11342943Y-15507594D01*
X11342943Y-15507594D02*
X11352467Y-15526642D01*
X11352467Y-15526642D02*
X11352467Y-15631403D01*
X11742943Y-15421880D02*
X11571514Y-15679022D01*
X12000086Y-15431403D02*
X12019133Y-15431403D01*
X12019133Y-15431403D02*
X12038181Y-15440927D01*
X12038181Y-15440927D02*
X12047705Y-15450451D01*
X12047705Y-15450451D02*
X12057229Y-15469499D01*
X12057229Y-15469499D02*
X12066752Y-15507594D01*
X12066752Y-15507594D02*
X12066752Y-15555213D01*
X12066752Y-15555213D02*
X12057229Y-15593308D01*
X12057229Y-15593308D02*
X12047705Y-15612356D01*
X12047705Y-15612356D02*
X12038181Y-15621880D01*
X12038181Y-15621880D02*
X12019133Y-15631403D01*
X12019133Y-15631403D02*
X12000086Y-15631403D01*
X12000086Y-15631403D02*
X11981038Y-15621880D01*
X11981038Y-15621880D02*
X11971514Y-15612356D01*
X11971514Y-15612356D02*
X11961990Y-15593308D01*
X11961990Y-15593308D02*
X11952467Y-15555213D01*
X11952467Y-15555213D02*
X11952467Y-15507594D01*
X11952467Y-15507594D02*
X11961990Y-15469499D01*
X11961990Y-15469499D02*
X11971514Y-15450451D01*
X11971514Y-15450451D02*
X11981038Y-15440927D01*
X11981038Y-15440927D02*
X12000086Y-15431403D01*
X12152467Y-15612356D02*
X12161990Y-15621880D01*
X12161990Y-15621880D02*
X12152467Y-15631403D01*
X12152467Y-15631403D02*
X12142943Y-15621880D01*
X12142943Y-15621880D02*
X12152467Y-15612356D01*
X12152467Y-15612356D02*
X12152467Y-15631403D01*
X12285800Y-15431403D02*
X12304848Y-15431403D01*
X12304848Y-15431403D02*
X12323895Y-15440927D01*
X12323895Y-15440927D02*
X12333419Y-15450451D01*
X12333419Y-15450451D02*
X12342943Y-15469499D01*
X12342943Y-15469499D02*
X12352467Y-15507594D01*
X12352467Y-15507594D02*
X12352467Y-15555213D01*
X12352467Y-15555213D02*
X12342943Y-15593308D01*
X12342943Y-15593308D02*
X12333419Y-15612356D01*
X12333419Y-15612356D02*
X12323895Y-15621880D01*
X12323895Y-15621880D02*
X12304848Y-15631403D01*
X12304848Y-15631403D02*
X12285800Y-15631403D01*
X12285800Y-15631403D02*
X12266752Y-15621880D01*
X12266752Y-15621880D02*
X12257229Y-15612356D01*
X12257229Y-15612356D02*
X12247705Y-15593308D01*
X12247705Y-15593308D02*
X12238181Y-15555213D01*
X12238181Y-15555213D02*
X12238181Y-15507594D01*
X12238181Y-15507594D02*
X12247705Y-15469499D01*
X12247705Y-15469499D02*
X12257229Y-15450451D01*
X12257229Y-15450451D02*
X12266752Y-15440927D01*
X12266752Y-15440927D02*
X12285800Y-15431403D01*
X12542943Y-15631403D02*
X12428657Y-15631403D01*
X12485800Y-15631403D02*
X12485800Y-15431403D01*
X12485800Y-15431403D02*
X12466752Y-15459975D01*
X12466752Y-15459975D02*
X12447705Y-15479022D01*
X12447705Y-15479022D02*
X12428657Y-15488546D01*
X12733419Y-15631403D02*
X12619133Y-15631403D01*
X12676276Y-15631403D02*
X12676276Y-15431403D01*
X12676276Y-15431403D02*
X12657229Y-15459975D01*
X12657229Y-15459975D02*
X12638181Y-15479022D01*
X12638181Y-15479022D02*
X12619133Y-15488546D01*
X12847705Y-15517118D02*
X12828657Y-15507594D01*
X12828657Y-15507594D02*
X12819133Y-15498070D01*
X12819133Y-15498070D02*
X12809610Y-15479022D01*
X12809610Y-15479022D02*
X12809610Y-15469499D01*
X12809610Y-15469499D02*
X12819133Y-15450451D01*
X12819133Y-15450451D02*
X12828657Y-15440927D01*
X12828657Y-15440927D02*
X12847705Y-15431403D01*
X12847705Y-15431403D02*
X12885800Y-15431403D01*
X12885800Y-15431403D02*
X12904848Y-15440927D01*
X12904848Y-15440927D02*
X12914371Y-15450451D01*
X12914371Y-15450451D02*
X12923895Y-15469499D01*
X12923895Y-15469499D02*
X12923895Y-15479022D01*
X12923895Y-15479022D02*
X12914371Y-15498070D01*
X12914371Y-15498070D02*
X12904848Y-15507594D01*
X12904848Y-15507594D02*
X12885800Y-15517118D01*
X12885800Y-15517118D02*
X12847705Y-15517118D01*
X12847705Y-15517118D02*
X12828657Y-15526642D01*
X12828657Y-15526642D02*
X12819133Y-15536165D01*
X12819133Y-15536165D02*
X12809610Y-15555213D01*
X12809610Y-15555213D02*
X12809610Y-15593308D01*
X12809610Y-15593308D02*
X12819133Y-15612356D01*
X12819133Y-15612356D02*
X12828657Y-15621880D01*
X12828657Y-15621880D02*
X12847705Y-15631403D01*
X12847705Y-15631403D02*
X12885800Y-15631403D01*
X12885800Y-15631403D02*
X12904848Y-15621880D01*
X12904848Y-15621880D02*
X12914371Y-15612356D01*
X12914371Y-15612356D02*
X12923895Y-15593308D01*
X12923895Y-15593308D02*
X12923895Y-15555213D01*
X12923895Y-15555213D02*
X12914371Y-15536165D01*
X12914371Y-15536165D02*
X12904848Y-15526642D01*
X12904848Y-15526642D02*
X12885800Y-15517118D01*
X13000086Y-15431403D02*
X13000086Y-15469499D01*
X13076276Y-15431403D02*
X13076276Y-15469499D01*
X13371514Y-15707594D02*
X13361991Y-15698070D01*
X13361991Y-15698070D02*
X13342943Y-15669499D01*
X13342943Y-15669499D02*
X13333419Y-15650451D01*
X13333419Y-15650451D02*
X13323895Y-15621880D01*
X13323895Y-15621880D02*
X13314372Y-15574261D01*
X13314372Y-15574261D02*
X13314372Y-15536165D01*
X13314372Y-15536165D02*
X13323895Y-15488546D01*
X13323895Y-15488546D02*
X13333419Y-15459975D01*
X13333419Y-15459975D02*
X13342943Y-15440927D01*
X13342943Y-15440927D02*
X13361991Y-15412356D01*
X13361991Y-15412356D02*
X13371514Y-15402832D01*
X13552467Y-15631403D02*
X13438181Y-15631403D01*
X13495324Y-15631403D02*
X13495324Y-15431403D01*
X13495324Y-15431403D02*
X13476276Y-15459975D01*
X13476276Y-15459975D02*
X13457229Y-15479022D01*
X13457229Y-15479022D02*
X13438181Y-15488546D01*
X13790562Y-15631403D02*
X13790562Y-15431403D01*
X13876276Y-15631403D02*
X13876276Y-15526642D01*
X13876276Y-15526642D02*
X13866753Y-15507594D01*
X13866753Y-15507594D02*
X13847705Y-15498070D01*
X13847705Y-15498070D02*
X13819133Y-15498070D01*
X13819133Y-15498070D02*
X13800086Y-15507594D01*
X13800086Y-15507594D02*
X13790562Y-15517118D01*
X14000086Y-15631403D02*
X13981038Y-15621880D01*
X13981038Y-15621880D02*
X13971514Y-15612356D01*
X13971514Y-15612356D02*
X13961991Y-15593308D01*
X13961991Y-15593308D02*
X13961991Y-15536165D01*
X13961991Y-15536165D02*
X13971514Y-15517118D01*
X13971514Y-15517118D02*
X13981038Y-15507594D01*
X13981038Y-15507594D02*
X14000086Y-15498070D01*
X14000086Y-15498070D02*
X14028657Y-15498070D01*
X14028657Y-15498070D02*
X14047705Y-15507594D01*
X14047705Y-15507594D02*
X14057229Y-15517118D01*
X14057229Y-15517118D02*
X14066753Y-15536165D01*
X14066753Y-15536165D02*
X14066753Y-15593308D01*
X14066753Y-15593308D02*
X14057229Y-15612356D01*
X14057229Y-15612356D02*
X14047705Y-15621880D01*
X14047705Y-15621880D02*
X14028657Y-15631403D01*
X14028657Y-15631403D02*
X14000086Y-15631403D01*
X14181038Y-15631403D02*
X14161991Y-15621880D01*
X14161991Y-15621880D02*
X14152467Y-15602832D01*
X14152467Y-15602832D02*
X14152467Y-15431403D01*
X14333419Y-15621880D02*
X14314372Y-15631403D01*
X14314372Y-15631403D02*
X14276276Y-15631403D01*
X14276276Y-15631403D02*
X14257229Y-15621880D01*
X14257229Y-15621880D02*
X14247705Y-15602832D01*
X14247705Y-15602832D02*
X14247705Y-15526642D01*
X14247705Y-15526642D02*
X14257229Y-15507594D01*
X14257229Y-15507594D02*
X14276276Y-15498070D01*
X14276276Y-15498070D02*
X14314372Y-15498070D01*
X14314372Y-15498070D02*
X14333419Y-15507594D01*
X14333419Y-15507594D02*
X14342943Y-15526642D01*
X14342943Y-15526642D02*
X14342943Y-15545689D01*
X14342943Y-15545689D02*
X14247705Y-15564737D01*
X14409610Y-15707594D02*
X14419134Y-15698070D01*
X14419134Y-15698070D02*
X14438181Y-15669499D01*
X14438181Y-15669499D02*
X14447705Y-15650451D01*
X14447705Y-15650451D02*
X14457229Y-15621880D01*
X14457229Y-15621880D02*
X14466753Y-15574261D01*
X14466753Y-15574261D02*
X14466753Y-15536165D01*
X14466753Y-15536165D02*
X14457229Y-15488546D01*
X14457229Y-15488546D02*
X14447705Y-15459975D01*
X14447705Y-15459975D02*
X14438181Y-15440927D01*
X14438181Y-15440927D02*
X14419134Y-15412356D01*
X14419134Y-15412356D02*
X14409610Y-15402832D01*
D10*
X9776452Y-15783920D02*
X9776452Y-15823920D01*
X9756452Y-15803920D02*
X9796452Y-15803920D01*
D12*
X10095324Y-15695403D02*
X10114371Y-15695403D01*
X10114371Y-15695403D02*
X10133419Y-15704927D01*
X10133419Y-15704927D02*
X10142943Y-15714451D01*
X10142943Y-15714451D02*
X10152467Y-15733499D01*
X10152467Y-15733499D02*
X10161990Y-15771594D01*
X10161990Y-15771594D02*
X10161990Y-15819213D01*
X10161990Y-15819213D02*
X10152467Y-15857308D01*
X10152467Y-15857308D02*
X10142943Y-15876356D01*
X10142943Y-15876356D02*
X10133419Y-15885880D01*
X10133419Y-15885880D02*
X10114371Y-15895403D01*
X10114371Y-15895403D02*
X10095324Y-15895403D01*
X10095324Y-15895403D02*
X10076276Y-15885880D01*
X10076276Y-15885880D02*
X10066752Y-15876356D01*
X10066752Y-15876356D02*
X10057228Y-15857308D01*
X10057228Y-15857308D02*
X10047705Y-15819213D01*
X10047705Y-15819213D02*
X10047705Y-15771594D01*
X10047705Y-15771594D02*
X10057228Y-15733499D01*
X10057228Y-15733499D02*
X10066752Y-15714451D01*
X10066752Y-15714451D02*
X10076276Y-15704927D01*
X10076276Y-15704927D02*
X10095324Y-15695403D01*
X10247705Y-15876356D02*
X10257228Y-15885880D01*
X10257228Y-15885880D02*
X10247705Y-15895403D01*
X10247705Y-15895403D02*
X10238181Y-15885880D01*
X10238181Y-15885880D02*
X10247705Y-15876356D01*
X10247705Y-15876356D02*
X10247705Y-15895403D01*
X10428657Y-15762070D02*
X10428657Y-15895403D01*
X10381038Y-15685880D02*
X10333419Y-15828737D01*
X10333419Y-15828737D02*
X10457228Y-15828737D01*
X10571514Y-15695403D02*
X10590562Y-15695403D01*
X10590562Y-15695403D02*
X10609609Y-15704927D01*
X10609609Y-15704927D02*
X10619133Y-15714451D01*
X10619133Y-15714451D02*
X10628657Y-15733499D01*
X10628657Y-15733499D02*
X10638181Y-15771594D01*
X10638181Y-15771594D02*
X10638181Y-15819213D01*
X10638181Y-15819213D02*
X10628657Y-15857308D01*
X10628657Y-15857308D02*
X10619133Y-15876356D01*
X10619133Y-15876356D02*
X10609609Y-15885880D01*
X10609609Y-15885880D02*
X10590562Y-15895403D01*
X10590562Y-15895403D02*
X10571514Y-15895403D01*
X10571514Y-15895403D02*
X10552467Y-15885880D01*
X10552467Y-15885880D02*
X10542943Y-15876356D01*
X10542943Y-15876356D02*
X10533419Y-15857308D01*
X10533419Y-15857308D02*
X10523895Y-15819213D01*
X10523895Y-15819213D02*
X10523895Y-15771594D01*
X10523895Y-15771594D02*
X10533419Y-15733499D01*
X10533419Y-15733499D02*
X10542943Y-15714451D01*
X10542943Y-15714451D02*
X10552467Y-15704927D01*
X10552467Y-15704927D02*
X10571514Y-15695403D01*
X10761990Y-15695403D02*
X10781038Y-15695403D01*
X10781038Y-15695403D02*
X10800086Y-15704927D01*
X10800086Y-15704927D02*
X10809609Y-15714451D01*
X10809609Y-15714451D02*
X10819133Y-15733499D01*
X10819133Y-15733499D02*
X10828657Y-15771594D01*
X10828657Y-15771594D02*
X10828657Y-15819213D01*
X10828657Y-15819213D02*
X10819133Y-15857308D01*
X10819133Y-15857308D02*
X10809609Y-15876356D01*
X10809609Y-15876356D02*
X10800086Y-15885880D01*
X10800086Y-15885880D02*
X10781038Y-15895403D01*
X10781038Y-15895403D02*
X10761990Y-15895403D01*
X10761990Y-15895403D02*
X10742943Y-15885880D01*
X10742943Y-15885880D02*
X10733419Y-15876356D01*
X10733419Y-15876356D02*
X10723895Y-15857308D01*
X10723895Y-15857308D02*
X10714371Y-15819213D01*
X10714371Y-15819213D02*
X10714371Y-15771594D01*
X10714371Y-15771594D02*
X10723895Y-15733499D01*
X10723895Y-15733499D02*
X10733419Y-15714451D01*
X10733419Y-15714451D02*
X10742943Y-15704927D01*
X10742943Y-15704927D02*
X10761990Y-15695403D01*
X10914371Y-15895403D02*
X10914371Y-15762070D01*
X10914371Y-15781118D02*
X10923895Y-15771594D01*
X10923895Y-15771594D02*
X10942943Y-15762070D01*
X10942943Y-15762070D02*
X10971514Y-15762070D01*
X10971514Y-15762070D02*
X10990562Y-15771594D01*
X10990562Y-15771594D02*
X11000086Y-15790642D01*
X11000086Y-15790642D02*
X11000086Y-15895403D01*
X11000086Y-15790642D02*
X11009609Y-15771594D01*
X11009609Y-15771594D02*
X11028657Y-15762070D01*
X11028657Y-15762070D02*
X11057228Y-15762070D01*
X11057228Y-15762070D02*
X11076276Y-15771594D01*
X11076276Y-15771594D02*
X11085800Y-15790642D01*
X11085800Y-15790642D02*
X11085800Y-15895403D01*
X11181038Y-15895403D02*
X11181038Y-15762070D01*
X11181038Y-15781118D02*
X11190562Y-15771594D01*
X11190562Y-15771594D02*
X11209609Y-15762070D01*
X11209609Y-15762070D02*
X11238181Y-15762070D01*
X11238181Y-15762070D02*
X11257228Y-15771594D01*
X11257228Y-15771594D02*
X11266752Y-15790642D01*
X11266752Y-15790642D02*
X11266752Y-15895403D01*
X11266752Y-15790642D02*
X11276276Y-15771594D01*
X11276276Y-15771594D02*
X11295324Y-15762070D01*
X11295324Y-15762070D02*
X11323895Y-15762070D01*
X11323895Y-15762070D02*
X11342943Y-15771594D01*
X11342943Y-15771594D02*
X11352467Y-15790642D01*
X11352467Y-15790642D02*
X11352467Y-15895403D01*
X11742943Y-15685880D02*
X11571514Y-15943022D01*
X12000086Y-15695403D02*
X12019133Y-15695403D01*
X12019133Y-15695403D02*
X12038181Y-15704927D01*
X12038181Y-15704927D02*
X12047705Y-15714451D01*
X12047705Y-15714451D02*
X12057229Y-15733499D01*
X12057229Y-15733499D02*
X12066752Y-15771594D01*
X12066752Y-15771594D02*
X12066752Y-15819213D01*
X12066752Y-15819213D02*
X12057229Y-15857308D01*
X12057229Y-15857308D02*
X12047705Y-15876356D01*
X12047705Y-15876356D02*
X12038181Y-15885880D01*
X12038181Y-15885880D02*
X12019133Y-15895403D01*
X12019133Y-15895403D02*
X12000086Y-15895403D01*
X12000086Y-15895403D02*
X11981038Y-15885880D01*
X11981038Y-15885880D02*
X11971514Y-15876356D01*
X11971514Y-15876356D02*
X11961990Y-15857308D01*
X11961990Y-15857308D02*
X11952467Y-15819213D01*
X11952467Y-15819213D02*
X11952467Y-15771594D01*
X11952467Y-15771594D02*
X11961990Y-15733499D01*
X11961990Y-15733499D02*
X11971514Y-15714451D01*
X11971514Y-15714451D02*
X11981038Y-15704927D01*
X11981038Y-15704927D02*
X12000086Y-15695403D01*
X12152467Y-15876356D02*
X12161990Y-15885880D01*
X12161990Y-15885880D02*
X12152467Y-15895403D01*
X12152467Y-15895403D02*
X12142943Y-15885880D01*
X12142943Y-15885880D02*
X12152467Y-15876356D01*
X12152467Y-15876356D02*
X12152467Y-15895403D01*
X12285800Y-15695403D02*
X12304848Y-15695403D01*
X12304848Y-15695403D02*
X12323895Y-15704927D01*
X12323895Y-15704927D02*
X12333419Y-15714451D01*
X12333419Y-15714451D02*
X12342943Y-15733499D01*
X12342943Y-15733499D02*
X12352467Y-15771594D01*
X12352467Y-15771594D02*
X12352467Y-15819213D01*
X12352467Y-15819213D02*
X12342943Y-15857308D01*
X12342943Y-15857308D02*
X12333419Y-15876356D01*
X12333419Y-15876356D02*
X12323895Y-15885880D01*
X12323895Y-15885880D02*
X12304848Y-15895403D01*
X12304848Y-15895403D02*
X12285800Y-15895403D01*
X12285800Y-15895403D02*
X12266752Y-15885880D01*
X12266752Y-15885880D02*
X12257229Y-15876356D01*
X12257229Y-15876356D02*
X12247705Y-15857308D01*
X12247705Y-15857308D02*
X12238181Y-15819213D01*
X12238181Y-15819213D02*
X12238181Y-15771594D01*
X12238181Y-15771594D02*
X12247705Y-15733499D01*
X12247705Y-15733499D02*
X12257229Y-15714451D01*
X12257229Y-15714451D02*
X12266752Y-15704927D01*
X12266752Y-15704927D02*
X12285800Y-15695403D01*
X12542943Y-15895403D02*
X12428657Y-15895403D01*
X12485800Y-15895403D02*
X12485800Y-15695403D01*
X12485800Y-15695403D02*
X12466752Y-15723975D01*
X12466752Y-15723975D02*
X12447705Y-15743022D01*
X12447705Y-15743022D02*
X12428657Y-15752546D01*
X12723895Y-15695403D02*
X12628657Y-15695403D01*
X12628657Y-15695403D02*
X12619133Y-15790642D01*
X12619133Y-15790642D02*
X12628657Y-15781118D01*
X12628657Y-15781118D02*
X12647705Y-15771594D01*
X12647705Y-15771594D02*
X12695324Y-15771594D01*
X12695324Y-15771594D02*
X12714371Y-15781118D01*
X12714371Y-15781118D02*
X12723895Y-15790642D01*
X12723895Y-15790642D02*
X12733419Y-15809689D01*
X12733419Y-15809689D02*
X12733419Y-15857308D01*
X12733419Y-15857308D02*
X12723895Y-15876356D01*
X12723895Y-15876356D02*
X12714371Y-15885880D01*
X12714371Y-15885880D02*
X12695324Y-15895403D01*
X12695324Y-15895403D02*
X12647705Y-15895403D01*
X12647705Y-15895403D02*
X12628657Y-15885880D01*
X12628657Y-15885880D02*
X12619133Y-15876356D01*
X12800086Y-15695403D02*
X12933419Y-15695403D01*
X12933419Y-15695403D02*
X12847705Y-15895403D01*
X13000086Y-15695403D02*
X13000086Y-15733499D01*
X13076276Y-15695403D02*
X13076276Y-15733499D01*
X13371514Y-15971594D02*
X13361991Y-15962070D01*
X13361991Y-15962070D02*
X13342943Y-15933499D01*
X13342943Y-15933499D02*
X13333419Y-15914451D01*
X13333419Y-15914451D02*
X13323895Y-15885880D01*
X13323895Y-15885880D02*
X13314372Y-15838261D01*
X13314372Y-15838261D02*
X13314372Y-15800165D01*
X13314372Y-15800165D02*
X13323895Y-15752546D01*
X13323895Y-15752546D02*
X13333419Y-15723975D01*
X13333419Y-15723975D02*
X13342943Y-15704927D01*
X13342943Y-15704927D02*
X13361991Y-15676356D01*
X13361991Y-15676356D02*
X13371514Y-15666832D01*
X13533419Y-15762070D02*
X13533419Y-15895403D01*
X13485800Y-15685880D02*
X13438181Y-15828737D01*
X13438181Y-15828737D02*
X13561991Y-15828737D01*
X13733419Y-15695403D02*
X13638181Y-15695403D01*
X13638181Y-15695403D02*
X13628657Y-15790642D01*
X13628657Y-15790642D02*
X13638181Y-15781118D01*
X13638181Y-15781118D02*
X13657229Y-15771594D01*
X13657229Y-15771594D02*
X13704848Y-15771594D01*
X13704848Y-15771594D02*
X13723895Y-15781118D01*
X13723895Y-15781118D02*
X13733419Y-15790642D01*
X13733419Y-15790642D02*
X13742943Y-15809689D01*
X13742943Y-15809689D02*
X13742943Y-15857308D01*
X13742943Y-15857308D02*
X13733419Y-15876356D01*
X13733419Y-15876356D02*
X13723895Y-15885880D01*
X13723895Y-15885880D02*
X13704848Y-15895403D01*
X13704848Y-15895403D02*
X13657229Y-15895403D01*
X13657229Y-15895403D02*
X13638181Y-15885880D01*
X13638181Y-15885880D02*
X13628657Y-15876356D01*
X13981038Y-15895403D02*
X13981038Y-15695403D01*
X14066753Y-15895403D02*
X14066753Y-15790642D01*
X14066753Y-15790642D02*
X14057229Y-15771594D01*
X14057229Y-15771594D02*
X14038181Y-15762070D01*
X14038181Y-15762070D02*
X14009610Y-15762070D01*
X14009610Y-15762070D02*
X13990562Y-15771594D01*
X13990562Y-15771594D02*
X13981038Y-15781118D01*
X14190562Y-15895403D02*
X14171514Y-15885880D01*
X14171514Y-15885880D02*
X14161991Y-15876356D01*
X14161991Y-15876356D02*
X14152467Y-15857308D01*
X14152467Y-15857308D02*
X14152467Y-15800165D01*
X14152467Y-15800165D02*
X14161991Y-15781118D01*
X14161991Y-15781118D02*
X14171514Y-15771594D01*
X14171514Y-15771594D02*
X14190562Y-15762070D01*
X14190562Y-15762070D02*
X14219134Y-15762070D01*
X14219134Y-15762070D02*
X14238181Y-15771594D01*
X14238181Y-15771594D02*
X14247705Y-15781118D01*
X14247705Y-15781118D02*
X14257229Y-15800165D01*
X14257229Y-15800165D02*
X14257229Y-15857308D01*
X14257229Y-15857308D02*
X14247705Y-15876356D01*
X14247705Y-15876356D02*
X14238181Y-15885880D01*
X14238181Y-15885880D02*
X14219134Y-15895403D01*
X14219134Y-15895403D02*
X14190562Y-15895403D01*
X14371514Y-15895403D02*
X14352467Y-15885880D01*
X14352467Y-15885880D02*
X14342943Y-15866832D01*
X14342943Y-15866832D02*
X14342943Y-15695403D01*
X14523895Y-15885880D02*
X14504848Y-15895403D01*
X14504848Y-15895403D02*
X14466753Y-15895403D01*
X14466753Y-15895403D02*
X14447705Y-15885880D01*
X14447705Y-15885880D02*
X14438181Y-15866832D01*
X14438181Y-15866832D02*
X14438181Y-15790642D01*
X14438181Y-15790642D02*
X14447705Y-15771594D01*
X14447705Y-15771594D02*
X14466753Y-15762070D01*
X14466753Y-15762070D02*
X14504848Y-15762070D01*
X14504848Y-15762070D02*
X14523895Y-15771594D01*
X14523895Y-15771594D02*
X14533419Y-15790642D01*
X14533419Y-15790642D02*
X14533419Y-15809689D01*
X14533419Y-15809689D02*
X14438181Y-15828737D01*
X14609610Y-15885880D02*
X14628657Y-15895403D01*
X14628657Y-15895403D02*
X14666753Y-15895403D01*
X14666753Y-15895403D02*
X14685800Y-15885880D01*
X14685800Y-15885880D02*
X14695324Y-15866832D01*
X14695324Y-15866832D02*
X14695324Y-15857308D01*
X14695324Y-15857308D02*
X14685800Y-15838261D01*
X14685800Y-15838261D02*
X14666753Y-15828737D01*
X14666753Y-15828737D02*
X14638181Y-15828737D01*
X14638181Y-15828737D02*
X14619134Y-15819213D01*
X14619134Y-15819213D02*
X14609610Y-15800165D01*
X14609610Y-15800165D02*
X14609610Y-15790642D01*
X14609610Y-15790642D02*
X14619134Y-15771594D01*
X14619134Y-15771594D02*
X14638181Y-15762070D01*
X14638181Y-15762070D02*
X14666753Y-15762070D01*
X14666753Y-15762070D02*
X14685800Y-15771594D01*
X14761991Y-15971594D02*
X14771515Y-15962070D01*
X14771515Y-15962070D02*
X14790562Y-15933499D01*
X14790562Y-15933499D02*
X14800086Y-15914451D01*
X14800086Y-15914451D02*
X14809610Y-15885880D01*
X14809610Y-15885880D02*
X14819134Y-15838261D01*
X14819134Y-15838261D02*
X14819134Y-15800165D01*
X14819134Y-15800165D02*
X14809610Y-15752546D01*
X14809610Y-15752546D02*
X14800086Y-15723975D01*
X14800086Y-15723975D02*
X14790562Y-15704927D01*
X14790562Y-15704927D02*
X14771515Y-15676356D01*
X14771515Y-15676356D02*
X14761991Y-15666832D01*
D10*
X9789129Y-16085597D02*
X9789129Y-16050242D01*
X9753774Y-16050242D01*
X9753774Y-16085597D01*
X9789129Y-16085597D01*
D12*
X10095324Y-15959403D02*
X10114371Y-15959403D01*
X10114371Y-15959403D02*
X10133419Y-15968927D01*
X10133419Y-15968927D02*
X10142943Y-15978451D01*
X10142943Y-15978451D02*
X10152467Y-15997499D01*
X10152467Y-15997499D02*
X10161990Y-16035594D01*
X10161990Y-16035594D02*
X10161990Y-16083213D01*
X10161990Y-16083213D02*
X10152467Y-16121308D01*
X10152467Y-16121308D02*
X10142943Y-16140356D01*
X10142943Y-16140356D02*
X10133419Y-16149880D01*
X10133419Y-16149880D02*
X10114371Y-16159403D01*
X10114371Y-16159403D02*
X10095324Y-16159403D01*
X10095324Y-16159403D02*
X10076276Y-16149880D01*
X10076276Y-16149880D02*
X10066752Y-16140356D01*
X10066752Y-16140356D02*
X10057228Y-16121308D01*
X10057228Y-16121308D02*
X10047705Y-16083213D01*
X10047705Y-16083213D02*
X10047705Y-16035594D01*
X10047705Y-16035594D02*
X10057228Y-15997499D01*
X10057228Y-15997499D02*
X10066752Y-15978451D01*
X10066752Y-15978451D02*
X10076276Y-15968927D01*
X10076276Y-15968927D02*
X10095324Y-15959403D01*
X10247705Y-16140356D02*
X10257228Y-16149880D01*
X10257228Y-16149880D02*
X10247705Y-16159403D01*
X10247705Y-16159403D02*
X10238181Y-16149880D01*
X10238181Y-16149880D02*
X10247705Y-16140356D01*
X10247705Y-16140356D02*
X10247705Y-16159403D01*
X10438181Y-15959403D02*
X10342943Y-15959403D01*
X10342943Y-15959403D02*
X10333419Y-16054642D01*
X10333419Y-16054642D02*
X10342943Y-16045118D01*
X10342943Y-16045118D02*
X10361990Y-16035594D01*
X10361990Y-16035594D02*
X10409609Y-16035594D01*
X10409609Y-16035594D02*
X10428657Y-16045118D01*
X10428657Y-16045118D02*
X10438181Y-16054642D01*
X10438181Y-16054642D02*
X10447705Y-16073689D01*
X10447705Y-16073689D02*
X10447705Y-16121308D01*
X10447705Y-16121308D02*
X10438181Y-16140356D01*
X10438181Y-16140356D02*
X10428657Y-16149880D01*
X10428657Y-16149880D02*
X10409609Y-16159403D01*
X10409609Y-16159403D02*
X10361990Y-16159403D01*
X10361990Y-16159403D02*
X10342943Y-16149880D01*
X10342943Y-16149880D02*
X10333419Y-16140356D01*
X10571514Y-15959403D02*
X10590562Y-15959403D01*
X10590562Y-15959403D02*
X10609609Y-15968927D01*
X10609609Y-15968927D02*
X10619133Y-15978451D01*
X10619133Y-15978451D02*
X10628657Y-15997499D01*
X10628657Y-15997499D02*
X10638181Y-16035594D01*
X10638181Y-16035594D02*
X10638181Y-16083213D01*
X10638181Y-16083213D02*
X10628657Y-16121308D01*
X10628657Y-16121308D02*
X10619133Y-16140356D01*
X10619133Y-16140356D02*
X10609609Y-16149880D01*
X10609609Y-16149880D02*
X10590562Y-16159403D01*
X10590562Y-16159403D02*
X10571514Y-16159403D01*
X10571514Y-16159403D02*
X10552467Y-16149880D01*
X10552467Y-16149880D02*
X10542943Y-16140356D01*
X10542943Y-16140356D02*
X10533419Y-16121308D01*
X10533419Y-16121308D02*
X10523895Y-16083213D01*
X10523895Y-16083213D02*
X10523895Y-16035594D01*
X10523895Y-16035594D02*
X10533419Y-15997499D01*
X10533419Y-15997499D02*
X10542943Y-15978451D01*
X10542943Y-15978451D02*
X10552467Y-15968927D01*
X10552467Y-15968927D02*
X10571514Y-15959403D01*
X10761990Y-15959403D02*
X10781038Y-15959403D01*
X10781038Y-15959403D02*
X10800086Y-15968927D01*
X10800086Y-15968927D02*
X10809609Y-15978451D01*
X10809609Y-15978451D02*
X10819133Y-15997499D01*
X10819133Y-15997499D02*
X10828657Y-16035594D01*
X10828657Y-16035594D02*
X10828657Y-16083213D01*
X10828657Y-16083213D02*
X10819133Y-16121308D01*
X10819133Y-16121308D02*
X10809609Y-16140356D01*
X10809609Y-16140356D02*
X10800086Y-16149880D01*
X10800086Y-16149880D02*
X10781038Y-16159403D01*
X10781038Y-16159403D02*
X10761990Y-16159403D01*
X10761990Y-16159403D02*
X10742943Y-16149880D01*
X10742943Y-16149880D02*
X10733419Y-16140356D01*
X10733419Y-16140356D02*
X10723895Y-16121308D01*
X10723895Y-16121308D02*
X10714371Y-16083213D01*
X10714371Y-16083213D02*
X10714371Y-16035594D01*
X10714371Y-16035594D02*
X10723895Y-15997499D01*
X10723895Y-15997499D02*
X10733419Y-15978451D01*
X10733419Y-15978451D02*
X10742943Y-15968927D01*
X10742943Y-15968927D02*
X10761990Y-15959403D01*
X10914371Y-16159403D02*
X10914371Y-16026070D01*
X10914371Y-16045118D02*
X10923895Y-16035594D01*
X10923895Y-16035594D02*
X10942943Y-16026070D01*
X10942943Y-16026070D02*
X10971514Y-16026070D01*
X10971514Y-16026070D02*
X10990562Y-16035594D01*
X10990562Y-16035594D02*
X11000086Y-16054642D01*
X11000086Y-16054642D02*
X11000086Y-16159403D01*
X11000086Y-16054642D02*
X11009609Y-16035594D01*
X11009609Y-16035594D02*
X11028657Y-16026070D01*
X11028657Y-16026070D02*
X11057228Y-16026070D01*
X11057228Y-16026070D02*
X11076276Y-16035594D01*
X11076276Y-16035594D02*
X11085800Y-16054642D01*
X11085800Y-16054642D02*
X11085800Y-16159403D01*
X11181038Y-16159403D02*
X11181038Y-16026070D01*
X11181038Y-16045118D02*
X11190562Y-16035594D01*
X11190562Y-16035594D02*
X11209609Y-16026070D01*
X11209609Y-16026070D02*
X11238181Y-16026070D01*
X11238181Y-16026070D02*
X11257228Y-16035594D01*
X11257228Y-16035594D02*
X11266752Y-16054642D01*
X11266752Y-16054642D02*
X11266752Y-16159403D01*
X11266752Y-16054642D02*
X11276276Y-16035594D01*
X11276276Y-16035594D02*
X11295324Y-16026070D01*
X11295324Y-16026070D02*
X11323895Y-16026070D01*
X11323895Y-16026070D02*
X11342943Y-16035594D01*
X11342943Y-16035594D02*
X11352467Y-16054642D01*
X11352467Y-16054642D02*
X11352467Y-16159403D01*
X11742943Y-15949880D02*
X11571514Y-16207022D01*
X12000086Y-15959403D02*
X12019133Y-15959403D01*
X12019133Y-15959403D02*
X12038181Y-15968927D01*
X12038181Y-15968927D02*
X12047705Y-15978451D01*
X12047705Y-15978451D02*
X12057229Y-15997499D01*
X12057229Y-15997499D02*
X12066752Y-16035594D01*
X12066752Y-16035594D02*
X12066752Y-16083213D01*
X12066752Y-16083213D02*
X12057229Y-16121308D01*
X12057229Y-16121308D02*
X12047705Y-16140356D01*
X12047705Y-16140356D02*
X12038181Y-16149880D01*
X12038181Y-16149880D02*
X12019133Y-16159403D01*
X12019133Y-16159403D02*
X12000086Y-16159403D01*
X12000086Y-16159403D02*
X11981038Y-16149880D01*
X11981038Y-16149880D02*
X11971514Y-16140356D01*
X11971514Y-16140356D02*
X11961990Y-16121308D01*
X11961990Y-16121308D02*
X11952467Y-16083213D01*
X11952467Y-16083213D02*
X11952467Y-16035594D01*
X11952467Y-16035594D02*
X11961990Y-15997499D01*
X11961990Y-15997499D02*
X11971514Y-15978451D01*
X11971514Y-15978451D02*
X11981038Y-15968927D01*
X11981038Y-15968927D02*
X12000086Y-15959403D01*
X12152467Y-16140356D02*
X12161990Y-16149880D01*
X12161990Y-16149880D02*
X12152467Y-16159403D01*
X12152467Y-16159403D02*
X12142943Y-16149880D01*
X12142943Y-16149880D02*
X12152467Y-16140356D01*
X12152467Y-16140356D02*
X12152467Y-16159403D01*
X12285800Y-15959403D02*
X12304848Y-15959403D01*
X12304848Y-15959403D02*
X12323895Y-15968927D01*
X12323895Y-15968927D02*
X12333419Y-15978451D01*
X12333419Y-15978451D02*
X12342943Y-15997499D01*
X12342943Y-15997499D02*
X12352467Y-16035594D01*
X12352467Y-16035594D02*
X12352467Y-16083213D01*
X12352467Y-16083213D02*
X12342943Y-16121308D01*
X12342943Y-16121308D02*
X12333419Y-16140356D01*
X12333419Y-16140356D02*
X12323895Y-16149880D01*
X12323895Y-16149880D02*
X12304848Y-16159403D01*
X12304848Y-16159403D02*
X12285800Y-16159403D01*
X12285800Y-16159403D02*
X12266752Y-16149880D01*
X12266752Y-16149880D02*
X12257229Y-16140356D01*
X12257229Y-16140356D02*
X12247705Y-16121308D01*
X12247705Y-16121308D02*
X12238181Y-16083213D01*
X12238181Y-16083213D02*
X12238181Y-16035594D01*
X12238181Y-16035594D02*
X12247705Y-15997499D01*
X12247705Y-15997499D02*
X12257229Y-15978451D01*
X12257229Y-15978451D02*
X12266752Y-15968927D01*
X12266752Y-15968927D02*
X12285800Y-15959403D01*
X12542943Y-16159403D02*
X12428657Y-16159403D01*
X12485800Y-16159403D02*
X12485800Y-15959403D01*
X12485800Y-15959403D02*
X12466752Y-15987975D01*
X12466752Y-15987975D02*
X12447705Y-16007022D01*
X12447705Y-16007022D02*
X12428657Y-16016546D01*
X12638181Y-16159403D02*
X12676276Y-16159403D01*
X12676276Y-16159403D02*
X12695324Y-16149880D01*
X12695324Y-16149880D02*
X12704848Y-16140356D01*
X12704848Y-16140356D02*
X12723895Y-16111784D01*
X12723895Y-16111784D02*
X12733419Y-16073689D01*
X12733419Y-16073689D02*
X12733419Y-15997499D01*
X12733419Y-15997499D02*
X12723895Y-15978451D01*
X12723895Y-15978451D02*
X12714371Y-15968927D01*
X12714371Y-15968927D02*
X12695324Y-15959403D01*
X12695324Y-15959403D02*
X12657229Y-15959403D01*
X12657229Y-15959403D02*
X12638181Y-15968927D01*
X12638181Y-15968927D02*
X12628657Y-15978451D01*
X12628657Y-15978451D02*
X12619133Y-15997499D01*
X12619133Y-15997499D02*
X12619133Y-16045118D01*
X12619133Y-16045118D02*
X12628657Y-16064165D01*
X12628657Y-16064165D02*
X12638181Y-16073689D01*
X12638181Y-16073689D02*
X12657229Y-16083213D01*
X12657229Y-16083213D02*
X12695324Y-16083213D01*
X12695324Y-16083213D02*
X12714371Y-16073689D01*
X12714371Y-16073689D02*
X12723895Y-16064165D01*
X12723895Y-16064165D02*
X12733419Y-16045118D01*
X12800086Y-15959403D02*
X12933419Y-15959403D01*
X12933419Y-15959403D02*
X12847705Y-16159403D01*
X13000086Y-15959403D02*
X13000086Y-15997499D01*
X13076276Y-15959403D02*
X13076276Y-15997499D01*
X13371514Y-16235594D02*
X13361991Y-16226070D01*
X13361991Y-16226070D02*
X13342943Y-16197499D01*
X13342943Y-16197499D02*
X13333419Y-16178451D01*
X13333419Y-16178451D02*
X13323895Y-16149880D01*
X13323895Y-16149880D02*
X13314372Y-16102261D01*
X13314372Y-16102261D02*
X13314372Y-16064165D01*
X13314372Y-16064165D02*
X13323895Y-16016546D01*
X13323895Y-16016546D02*
X13333419Y-15987975D01*
X13333419Y-15987975D02*
X13342943Y-15968927D01*
X13342943Y-15968927D02*
X13361991Y-15940356D01*
X13361991Y-15940356D02*
X13371514Y-15930832D01*
X13552467Y-16159403D02*
X13438181Y-16159403D01*
X13495324Y-16159403D02*
X13495324Y-15959403D01*
X13495324Y-15959403D02*
X13476276Y-15987975D01*
X13476276Y-15987975D02*
X13457229Y-16007022D01*
X13457229Y-16007022D02*
X13438181Y-16016546D01*
X13790562Y-16159403D02*
X13790562Y-15959403D01*
X13876276Y-16159403D02*
X13876276Y-16054642D01*
X13876276Y-16054642D02*
X13866753Y-16035594D01*
X13866753Y-16035594D02*
X13847705Y-16026070D01*
X13847705Y-16026070D02*
X13819133Y-16026070D01*
X13819133Y-16026070D02*
X13800086Y-16035594D01*
X13800086Y-16035594D02*
X13790562Y-16045118D01*
X14000086Y-16159403D02*
X13981038Y-16149880D01*
X13981038Y-16149880D02*
X13971514Y-16140356D01*
X13971514Y-16140356D02*
X13961991Y-16121308D01*
X13961991Y-16121308D02*
X13961991Y-16064165D01*
X13961991Y-16064165D02*
X13971514Y-16045118D01*
X13971514Y-16045118D02*
X13981038Y-16035594D01*
X13981038Y-16035594D02*
X14000086Y-16026070D01*
X14000086Y-16026070D02*
X14028657Y-16026070D01*
X14028657Y-16026070D02*
X14047705Y-16035594D01*
X14047705Y-16035594D02*
X14057229Y-16045118D01*
X14057229Y-16045118D02*
X14066753Y-16064165D01*
X14066753Y-16064165D02*
X14066753Y-16121308D01*
X14066753Y-16121308D02*
X14057229Y-16140356D01*
X14057229Y-16140356D02*
X14047705Y-16149880D01*
X14047705Y-16149880D02*
X14028657Y-16159403D01*
X14028657Y-16159403D02*
X14000086Y-16159403D01*
X14181038Y-16159403D02*
X14161991Y-16149880D01*
X14161991Y-16149880D02*
X14152467Y-16130832D01*
X14152467Y-16130832D02*
X14152467Y-15959403D01*
X14333419Y-16149880D02*
X14314372Y-16159403D01*
X14314372Y-16159403D02*
X14276276Y-16159403D01*
X14276276Y-16159403D02*
X14257229Y-16149880D01*
X14257229Y-16149880D02*
X14247705Y-16130832D01*
X14247705Y-16130832D02*
X14247705Y-16054642D01*
X14247705Y-16054642D02*
X14257229Y-16035594D01*
X14257229Y-16035594D02*
X14276276Y-16026070D01*
X14276276Y-16026070D02*
X14314372Y-16026070D01*
X14314372Y-16026070D02*
X14333419Y-16035594D01*
X14333419Y-16035594D02*
X14342943Y-16054642D01*
X14342943Y-16054642D02*
X14342943Y-16073689D01*
X14342943Y-16073689D02*
X14247705Y-16092737D01*
X14409610Y-16235594D02*
X14419134Y-16226070D01*
X14419134Y-16226070D02*
X14438181Y-16197499D01*
X14438181Y-16197499D02*
X14447705Y-16178451D01*
X14447705Y-16178451D02*
X14457229Y-16149880D01*
X14457229Y-16149880D02*
X14466753Y-16102261D01*
X14466753Y-16102261D02*
X14466753Y-16064165D01*
X14466753Y-16064165D02*
X14457229Y-16016546D01*
X14457229Y-16016546D02*
X14447705Y-15987975D01*
X14447705Y-15987975D02*
X14438181Y-15968927D01*
X14438181Y-15968927D02*
X14419134Y-15940356D01*
X14419134Y-15940356D02*
X14409610Y-15930832D01*
D10*
X9751452Y-16376920D02*
X9796452Y-16331920D01*
X9751452Y-16286920D01*
X9706452Y-16331920D01*
X9751452Y-16376920D01*
D12*
X10095324Y-16223403D02*
X10114371Y-16223403D01*
X10114371Y-16223403D02*
X10133419Y-16232927D01*
X10133419Y-16232927D02*
X10142943Y-16242451D01*
X10142943Y-16242451D02*
X10152467Y-16261499D01*
X10152467Y-16261499D02*
X10161990Y-16299594D01*
X10161990Y-16299594D02*
X10161990Y-16347213D01*
X10161990Y-16347213D02*
X10152467Y-16385308D01*
X10152467Y-16385308D02*
X10142943Y-16404356D01*
X10142943Y-16404356D02*
X10133419Y-16413880D01*
X10133419Y-16413880D02*
X10114371Y-16423403D01*
X10114371Y-16423403D02*
X10095324Y-16423403D01*
X10095324Y-16423403D02*
X10076276Y-16413880D01*
X10076276Y-16413880D02*
X10066752Y-16404356D01*
X10066752Y-16404356D02*
X10057228Y-16385308D01*
X10057228Y-16385308D02*
X10047705Y-16347213D01*
X10047705Y-16347213D02*
X10047705Y-16299594D01*
X10047705Y-16299594D02*
X10057228Y-16261499D01*
X10057228Y-16261499D02*
X10066752Y-16242451D01*
X10066752Y-16242451D02*
X10076276Y-16232927D01*
X10076276Y-16232927D02*
X10095324Y-16223403D01*
X10247705Y-16404356D02*
X10257228Y-16413880D01*
X10257228Y-16413880D02*
X10247705Y-16423403D01*
X10247705Y-16423403D02*
X10238181Y-16413880D01*
X10238181Y-16413880D02*
X10247705Y-16404356D01*
X10247705Y-16404356D02*
X10247705Y-16423403D01*
X10352467Y-16423403D02*
X10390562Y-16423403D01*
X10390562Y-16423403D02*
X10409609Y-16413880D01*
X10409609Y-16413880D02*
X10419133Y-16404356D01*
X10419133Y-16404356D02*
X10438181Y-16375784D01*
X10438181Y-16375784D02*
X10447705Y-16337689D01*
X10447705Y-16337689D02*
X10447705Y-16261499D01*
X10447705Y-16261499D02*
X10438181Y-16242451D01*
X10438181Y-16242451D02*
X10428657Y-16232927D01*
X10428657Y-16232927D02*
X10409609Y-16223403D01*
X10409609Y-16223403D02*
X10371514Y-16223403D01*
X10371514Y-16223403D02*
X10352467Y-16232927D01*
X10352467Y-16232927D02*
X10342943Y-16242451D01*
X10342943Y-16242451D02*
X10333419Y-16261499D01*
X10333419Y-16261499D02*
X10333419Y-16309118D01*
X10333419Y-16309118D02*
X10342943Y-16328165D01*
X10342943Y-16328165D02*
X10352467Y-16337689D01*
X10352467Y-16337689D02*
X10371514Y-16347213D01*
X10371514Y-16347213D02*
X10409609Y-16347213D01*
X10409609Y-16347213D02*
X10428657Y-16337689D01*
X10428657Y-16337689D02*
X10438181Y-16328165D01*
X10438181Y-16328165D02*
X10447705Y-16309118D01*
X10571514Y-16223403D02*
X10590562Y-16223403D01*
X10590562Y-16223403D02*
X10609609Y-16232927D01*
X10609609Y-16232927D02*
X10619133Y-16242451D01*
X10619133Y-16242451D02*
X10628657Y-16261499D01*
X10628657Y-16261499D02*
X10638181Y-16299594D01*
X10638181Y-16299594D02*
X10638181Y-16347213D01*
X10638181Y-16347213D02*
X10628657Y-16385308D01*
X10628657Y-16385308D02*
X10619133Y-16404356D01*
X10619133Y-16404356D02*
X10609609Y-16413880D01*
X10609609Y-16413880D02*
X10590562Y-16423403D01*
X10590562Y-16423403D02*
X10571514Y-16423403D01*
X10571514Y-16423403D02*
X10552467Y-16413880D01*
X10552467Y-16413880D02*
X10542943Y-16404356D01*
X10542943Y-16404356D02*
X10533419Y-16385308D01*
X10533419Y-16385308D02*
X10523895Y-16347213D01*
X10523895Y-16347213D02*
X10523895Y-16299594D01*
X10523895Y-16299594D02*
X10533419Y-16261499D01*
X10533419Y-16261499D02*
X10542943Y-16242451D01*
X10542943Y-16242451D02*
X10552467Y-16232927D01*
X10552467Y-16232927D02*
X10571514Y-16223403D01*
X10761990Y-16223403D02*
X10781038Y-16223403D01*
X10781038Y-16223403D02*
X10800086Y-16232927D01*
X10800086Y-16232927D02*
X10809609Y-16242451D01*
X10809609Y-16242451D02*
X10819133Y-16261499D01*
X10819133Y-16261499D02*
X10828657Y-16299594D01*
X10828657Y-16299594D02*
X10828657Y-16347213D01*
X10828657Y-16347213D02*
X10819133Y-16385308D01*
X10819133Y-16385308D02*
X10809609Y-16404356D01*
X10809609Y-16404356D02*
X10800086Y-16413880D01*
X10800086Y-16413880D02*
X10781038Y-16423403D01*
X10781038Y-16423403D02*
X10761990Y-16423403D01*
X10761990Y-16423403D02*
X10742943Y-16413880D01*
X10742943Y-16413880D02*
X10733419Y-16404356D01*
X10733419Y-16404356D02*
X10723895Y-16385308D01*
X10723895Y-16385308D02*
X10714371Y-16347213D01*
X10714371Y-16347213D02*
X10714371Y-16299594D01*
X10714371Y-16299594D02*
X10723895Y-16261499D01*
X10723895Y-16261499D02*
X10733419Y-16242451D01*
X10733419Y-16242451D02*
X10742943Y-16232927D01*
X10742943Y-16232927D02*
X10761990Y-16223403D01*
X10914371Y-16423403D02*
X10914371Y-16290070D01*
X10914371Y-16309118D02*
X10923895Y-16299594D01*
X10923895Y-16299594D02*
X10942943Y-16290070D01*
X10942943Y-16290070D02*
X10971514Y-16290070D01*
X10971514Y-16290070D02*
X10990562Y-16299594D01*
X10990562Y-16299594D02*
X11000086Y-16318642D01*
X11000086Y-16318642D02*
X11000086Y-16423403D01*
X11000086Y-16318642D02*
X11009609Y-16299594D01*
X11009609Y-16299594D02*
X11028657Y-16290070D01*
X11028657Y-16290070D02*
X11057228Y-16290070D01*
X11057228Y-16290070D02*
X11076276Y-16299594D01*
X11076276Y-16299594D02*
X11085800Y-16318642D01*
X11085800Y-16318642D02*
X11085800Y-16423403D01*
X11181038Y-16423403D02*
X11181038Y-16290070D01*
X11181038Y-16309118D02*
X11190562Y-16299594D01*
X11190562Y-16299594D02*
X11209609Y-16290070D01*
X11209609Y-16290070D02*
X11238181Y-16290070D01*
X11238181Y-16290070D02*
X11257228Y-16299594D01*
X11257228Y-16299594D02*
X11266752Y-16318642D01*
X11266752Y-16318642D02*
X11266752Y-16423403D01*
X11266752Y-16318642D02*
X11276276Y-16299594D01*
X11276276Y-16299594D02*
X11295324Y-16290070D01*
X11295324Y-16290070D02*
X11323895Y-16290070D01*
X11323895Y-16290070D02*
X11342943Y-16299594D01*
X11342943Y-16299594D02*
X11352467Y-16318642D01*
X11352467Y-16318642D02*
X11352467Y-16423403D01*
X11742943Y-16213880D02*
X11571514Y-16471022D01*
X12000086Y-16223403D02*
X12019133Y-16223403D01*
X12019133Y-16223403D02*
X12038181Y-16232927D01*
X12038181Y-16232927D02*
X12047705Y-16242451D01*
X12047705Y-16242451D02*
X12057229Y-16261499D01*
X12057229Y-16261499D02*
X12066752Y-16299594D01*
X12066752Y-16299594D02*
X12066752Y-16347213D01*
X12066752Y-16347213D02*
X12057229Y-16385308D01*
X12057229Y-16385308D02*
X12047705Y-16404356D01*
X12047705Y-16404356D02*
X12038181Y-16413880D01*
X12038181Y-16413880D02*
X12019133Y-16423403D01*
X12019133Y-16423403D02*
X12000086Y-16423403D01*
X12000086Y-16423403D02*
X11981038Y-16413880D01*
X11981038Y-16413880D02*
X11971514Y-16404356D01*
X11971514Y-16404356D02*
X11961990Y-16385308D01*
X11961990Y-16385308D02*
X11952467Y-16347213D01*
X11952467Y-16347213D02*
X11952467Y-16299594D01*
X11952467Y-16299594D02*
X11961990Y-16261499D01*
X11961990Y-16261499D02*
X11971514Y-16242451D01*
X11971514Y-16242451D02*
X11981038Y-16232927D01*
X11981038Y-16232927D02*
X12000086Y-16223403D01*
X12152467Y-16404356D02*
X12161990Y-16413880D01*
X12161990Y-16413880D02*
X12152467Y-16423403D01*
X12152467Y-16423403D02*
X12142943Y-16413880D01*
X12142943Y-16413880D02*
X12152467Y-16404356D01*
X12152467Y-16404356D02*
X12152467Y-16423403D01*
X12285800Y-16223403D02*
X12304848Y-16223403D01*
X12304848Y-16223403D02*
X12323895Y-16232927D01*
X12323895Y-16232927D02*
X12333419Y-16242451D01*
X12333419Y-16242451D02*
X12342943Y-16261499D01*
X12342943Y-16261499D02*
X12352467Y-16299594D01*
X12352467Y-16299594D02*
X12352467Y-16347213D01*
X12352467Y-16347213D02*
X12342943Y-16385308D01*
X12342943Y-16385308D02*
X12333419Y-16404356D01*
X12333419Y-16404356D02*
X12323895Y-16413880D01*
X12323895Y-16413880D02*
X12304848Y-16423403D01*
X12304848Y-16423403D02*
X12285800Y-16423403D01*
X12285800Y-16423403D02*
X12266752Y-16413880D01*
X12266752Y-16413880D02*
X12257229Y-16404356D01*
X12257229Y-16404356D02*
X12247705Y-16385308D01*
X12247705Y-16385308D02*
X12238181Y-16347213D01*
X12238181Y-16347213D02*
X12238181Y-16299594D01*
X12238181Y-16299594D02*
X12247705Y-16261499D01*
X12247705Y-16261499D02*
X12257229Y-16242451D01*
X12257229Y-16242451D02*
X12266752Y-16232927D01*
X12266752Y-16232927D02*
X12285800Y-16223403D01*
X12419133Y-16223403D02*
X12542943Y-16223403D01*
X12542943Y-16223403D02*
X12476276Y-16299594D01*
X12476276Y-16299594D02*
X12504848Y-16299594D01*
X12504848Y-16299594D02*
X12523895Y-16309118D01*
X12523895Y-16309118D02*
X12533419Y-16318642D01*
X12533419Y-16318642D02*
X12542943Y-16337689D01*
X12542943Y-16337689D02*
X12542943Y-16385308D01*
X12542943Y-16385308D02*
X12533419Y-16404356D01*
X12533419Y-16404356D02*
X12523895Y-16413880D01*
X12523895Y-16413880D02*
X12504848Y-16423403D01*
X12504848Y-16423403D02*
X12447705Y-16423403D01*
X12447705Y-16423403D02*
X12428657Y-16413880D01*
X12428657Y-16413880D02*
X12419133Y-16404356D01*
X12723895Y-16223403D02*
X12628657Y-16223403D01*
X12628657Y-16223403D02*
X12619133Y-16318642D01*
X12619133Y-16318642D02*
X12628657Y-16309118D01*
X12628657Y-16309118D02*
X12647705Y-16299594D01*
X12647705Y-16299594D02*
X12695324Y-16299594D01*
X12695324Y-16299594D02*
X12714371Y-16309118D01*
X12714371Y-16309118D02*
X12723895Y-16318642D01*
X12723895Y-16318642D02*
X12733419Y-16337689D01*
X12733419Y-16337689D02*
X12733419Y-16385308D01*
X12733419Y-16385308D02*
X12723895Y-16404356D01*
X12723895Y-16404356D02*
X12714371Y-16413880D01*
X12714371Y-16413880D02*
X12695324Y-16423403D01*
X12695324Y-16423403D02*
X12647705Y-16423403D01*
X12647705Y-16423403D02*
X12628657Y-16413880D01*
X12628657Y-16413880D02*
X12619133Y-16404356D01*
X12904848Y-16290070D02*
X12904848Y-16423403D01*
X12857229Y-16213880D02*
X12809610Y-16356737D01*
X12809610Y-16356737D02*
X12933419Y-16356737D01*
X13000086Y-16223403D02*
X13000086Y-16261499D01*
X13076276Y-16223403D02*
X13076276Y-16261499D01*
X13371514Y-16499594D02*
X13361991Y-16490070D01*
X13361991Y-16490070D02*
X13342943Y-16461499D01*
X13342943Y-16461499D02*
X13333419Y-16442451D01*
X13333419Y-16442451D02*
X13323895Y-16413880D01*
X13323895Y-16413880D02*
X13314372Y-16366261D01*
X13314372Y-16366261D02*
X13314372Y-16328165D01*
X13314372Y-16328165D02*
X13323895Y-16280546D01*
X13323895Y-16280546D02*
X13333419Y-16251975D01*
X13333419Y-16251975D02*
X13342943Y-16232927D01*
X13342943Y-16232927D02*
X13361991Y-16204356D01*
X13361991Y-16204356D02*
X13371514Y-16194832D01*
X13438181Y-16242451D02*
X13447705Y-16232927D01*
X13447705Y-16232927D02*
X13466752Y-16223403D01*
X13466752Y-16223403D02*
X13514372Y-16223403D01*
X13514372Y-16223403D02*
X13533419Y-16232927D01*
X13533419Y-16232927D02*
X13542943Y-16242451D01*
X13542943Y-16242451D02*
X13552467Y-16261499D01*
X13552467Y-16261499D02*
X13552467Y-16280546D01*
X13552467Y-16280546D02*
X13542943Y-16309118D01*
X13542943Y-16309118D02*
X13428657Y-16423403D01*
X13428657Y-16423403D02*
X13552467Y-16423403D01*
X13790562Y-16423403D02*
X13790562Y-16223403D01*
X13876276Y-16423403D02*
X13876276Y-16318642D01*
X13876276Y-16318642D02*
X13866753Y-16299594D01*
X13866753Y-16299594D02*
X13847705Y-16290070D01*
X13847705Y-16290070D02*
X13819133Y-16290070D01*
X13819133Y-16290070D02*
X13800086Y-16299594D01*
X13800086Y-16299594D02*
X13790562Y-16309118D01*
X14000086Y-16423403D02*
X13981038Y-16413880D01*
X13981038Y-16413880D02*
X13971514Y-16404356D01*
X13971514Y-16404356D02*
X13961991Y-16385308D01*
X13961991Y-16385308D02*
X13961991Y-16328165D01*
X13961991Y-16328165D02*
X13971514Y-16309118D01*
X13971514Y-16309118D02*
X13981038Y-16299594D01*
X13981038Y-16299594D02*
X14000086Y-16290070D01*
X14000086Y-16290070D02*
X14028657Y-16290070D01*
X14028657Y-16290070D02*
X14047705Y-16299594D01*
X14047705Y-16299594D02*
X14057229Y-16309118D01*
X14057229Y-16309118D02*
X14066753Y-16328165D01*
X14066753Y-16328165D02*
X14066753Y-16385308D01*
X14066753Y-16385308D02*
X14057229Y-16404356D01*
X14057229Y-16404356D02*
X14047705Y-16413880D01*
X14047705Y-16413880D02*
X14028657Y-16423403D01*
X14028657Y-16423403D02*
X14000086Y-16423403D01*
X14181038Y-16423403D02*
X14161991Y-16413880D01*
X14161991Y-16413880D02*
X14152467Y-16394832D01*
X14152467Y-16394832D02*
X14152467Y-16223403D01*
X14333419Y-16413880D02*
X14314372Y-16423403D01*
X14314372Y-16423403D02*
X14276276Y-16423403D01*
X14276276Y-16423403D02*
X14257229Y-16413880D01*
X14257229Y-16413880D02*
X14247705Y-16394832D01*
X14247705Y-16394832D02*
X14247705Y-16318642D01*
X14247705Y-16318642D02*
X14257229Y-16299594D01*
X14257229Y-16299594D02*
X14276276Y-16290070D01*
X14276276Y-16290070D02*
X14314372Y-16290070D01*
X14314372Y-16290070D02*
X14333419Y-16299594D01*
X14333419Y-16299594D02*
X14342943Y-16318642D01*
X14342943Y-16318642D02*
X14342943Y-16337689D01*
X14342943Y-16337689D02*
X14247705Y-16356737D01*
X14419134Y-16413880D02*
X14438181Y-16423403D01*
X14438181Y-16423403D02*
X14476276Y-16423403D01*
X14476276Y-16423403D02*
X14495324Y-16413880D01*
X14495324Y-16413880D02*
X14504848Y-16394832D01*
X14504848Y-16394832D02*
X14504848Y-16385308D01*
X14504848Y-16385308D02*
X14495324Y-16366261D01*
X14495324Y-16366261D02*
X14476276Y-16356737D01*
X14476276Y-16356737D02*
X14447705Y-16356737D01*
X14447705Y-16356737D02*
X14428657Y-16347213D01*
X14428657Y-16347213D02*
X14419134Y-16328165D01*
X14419134Y-16328165D02*
X14419134Y-16318642D01*
X14419134Y-16318642D02*
X14428657Y-16299594D01*
X14428657Y-16299594D02*
X14447705Y-16290070D01*
X14447705Y-16290070D02*
X14476276Y-16290070D01*
X14476276Y-16290070D02*
X14495324Y-16299594D01*
X14571515Y-16499594D02*
X14581038Y-16490070D01*
X14581038Y-16490070D02*
X14600086Y-16461499D01*
X14600086Y-16461499D02*
X14609610Y-16442451D01*
X14609610Y-16442451D02*
X14619134Y-16413880D01*
X14619134Y-16413880D02*
X14628657Y-16366261D01*
X14628657Y-16366261D02*
X14628657Y-16328165D01*
X14628657Y-16328165D02*
X14619134Y-16280546D01*
X14619134Y-16280546D02*
X14609610Y-16251975D01*
X14609610Y-16251975D02*
X14600086Y-16232927D01*
X14600086Y-16232927D02*
X14581038Y-16204356D01*
X14581038Y-16204356D02*
X14571515Y-16194832D01*
M02*
