M48
; DRILL file {KiCad 9.0.3} date 2025-08-05T11:28:11+0100
; FORMAT={-:-/ absolute / metric / decimal}
; #@! TF.CreationDate,2025-08-05T11:28:11+01:00
; #@! TF.GenerationSoftware,Kicad,Pcbnew,9.0.3
; #@! TF.FileFunction,Plated,1,2,PTH
FMAT,2
METRIC
; #@! TA.AperFunction,Plated,PTH,ViaDrill
T1C0.300
; #@! TA.AperFunction,Plated,PTH,ComponentDrill
T2C0.300
; #@! TA.AperFunction,Plated,PTH,ViaDrill
T3C0.400
; #@! TA.AperFunction,Plated,PTH,ComponentDrill
T4C0.500
; #@! TA.AperFunction,Plated,PTH,ComponentDrill
T5C0.900
%
G90
G05
T1
X106.0Y-99.0
X106.6Y-95.0
X112.6Y-89.6
X112.6Y-95.3
X112.6Y-101.0
X114.0Y-104.9
X114.1Y-93.7
X114.1Y-99.4
X114.22Y-88.174
X118.9Y-87.8
X122.2Y-102.5
X122.659Y-97.793
X122.659Y-98.793
X122.659Y-99.792
X122.853Y-102.46
X123.5Y-101.65
X123.516Y-102.46
X123.796Y-92.99
X124.179Y-101.65
X124.179Y-102.46
X124.2Y-82.9
X124.441Y-92.99
X124.857Y-101.65
X125.087Y-92.99
X125.536Y-101.65
X125.733Y-92.99
X126.214Y-101.65
X126.379Y-92.99
X126.647Y-82.334
X126.893Y-101.65
X127.16Y-105.47
X127.4Y-79.3
X127.571Y-101.65
X127.624Y-74.304
X128.03Y-118.31
X128.168Y-95.412
X128.23Y-97.42
X128.23Y-98.125
X128.23Y-98.83
X128.23Y-99.535
X128.23Y-100.24
X128.23Y-100.945
X128.23Y-101.65
X128.245Y-92.482
X128.251Y-91.632
X128.451Y-96.213
X129.08Y-84.1
X129.169Y-85.09
X129.229Y-89.71
X129.25Y-119.89
X129.389Y-88.839
X129.5Y-85.9
X129.76Y-97.6
X130.185Y-86.362
X130.425Y-88.575
X130.9Y-91.0
X130.9Y-92.1
X130.9Y-93.3
X131.524Y-72.904
X131.825Y-85.005
X132.0Y-91.0
X132.0Y-92.1
X132.0Y-93.3
X132.05Y-133.8
X133.085Y-96.285
X133.1Y-91.0
X133.1Y-92.1
X133.1Y-93.3
X133.124Y-74.404
X133.35Y-118.39
X133.385Y-102.19
X133.524Y-66.304
X134.41Y-87.07
X134.53Y-95.11
X134.57Y-89.38
X134.65Y-125.89
X134.95Y-119.89
X134.989Y-103.237
X135.12Y-137.22
X135.21Y-95.78
X135.68Y-93.46
X135.73Y-139.36
X135.82Y-87.5
X135.845Y-103.688
X136.03Y-112.21
X136.66Y-87.51
X136.66Y-103.24
X136.94Y-100.39
X137.049Y-85.4
X137.2Y-89.875
X137.2Y-90.5
X137.215Y-88.551
X137.224Y-72.904
X137.342Y-93.542
X137.52Y-138.72
X137.524Y-66.904
X137.65Y-98.36
X137.88Y-86.111
X138.268Y-84.883
X138.395Y-98.933
X138.579Y-85.671
X138.65Y-126.49
X138.824Y-74.404
X139.05Y-118.39
X139.211Y-99.245
X139.518Y-97.243
X139.52Y-88.14
X139.52Y-91.17
X139.95Y-83.33
X140.01Y-84.26
X140.271Y-89.138
X140.37Y-91.54
X140.65Y-119.89
X141.173Y-91.575
X141.51Y-86.71
X141.87Y-107.44
X141.988Y-104.935
X142.653Y-95.238
X142.787Y-104.95
X142.796Y-101.192
X142.88Y-107.163
X142.924Y-72.904
X142.95Y-90.64
X142.99Y-84.65
X143.07Y-88.91
X143.19Y-83.34
X143.8Y-95.081
X144.08Y-98.71
X144.12Y-74.37
X144.223Y-104.91
X144.54Y-99.56
X144.55Y-118.49
X146.01Y-94.4
X146.295Y-99.139
X147.03Y-94.39
X147.176Y-100.788
X147.176Y-102.666
X147.579Y-104.003
X147.9Y-98.0
X148.05Y-93.4
X158.1Y-104.4
X158.11Y-99.16
X158.11Y-93.46
X158.21Y-87.96
X159.46Y-102.97
X159.61Y-91.86
X159.61Y-97.56
X165.61Y-97.86
X166.21Y-93.86
T2
X122.7Y-93.39
T3
X122.3Y-84.7
X122.3Y-85.9
X122.3Y-87.0
X122.5Y-105.77
X123.3Y-89.0
X124.2Y-106.4
X124.35Y-110.19
X124.5Y-90.1
X124.71Y-86.96
X125.1Y-109.398
X125.3Y-84.0
X125.44Y-91.16
X126.28Y-91.19
X126.3Y-109.8
X126.4Y-88.5
X126.45Y-85.35
X127.07Y-108.39
X130.55Y-106.8
X132.62Y-102.7
X137.33Y-101.53
X138.69Y-103.11
X139.02Y-93.45
X139.803Y-95.848
X139.951Y-99.556
X140.946Y-101.954
X141.34Y-109.9
X142.03Y-99.48
X142.04Y-110.31
X144.044Y-97.503
X144.3Y-82.4
X144.988Y-107.435
X145.1Y-87.4
X145.592Y-104.969
X145.76Y-95.37
X146.65Y-83.95
X146.809Y-104.946
X147.176Y-101.701
X147.221Y-105.823
X147.824Y-82.604
X147.945Y-104.827
X148.635Y-107.283
X148.7Y-85.6
X149.19Y-101.716
X149.8Y-105.2
X149.91Y-108.16
T4
X143.007Y-86.758
T5
X148.85Y-94.2
X148.85Y-97.2
M30
