G04 #@! TF.GenerationSoftware,KiCad,Pcbnew,9.0.3*
G04 #@! TF.CreationDate,2025-08-05T11:28:11+01:00*
G04 #@! TF.ProjectId,Badge ESC 2025,42616467-6520-4455-9343-20323032352e,rev?*
G04 #@! TF.SameCoordinates,Original*
G04 #@! TF.FileFunction,Profile,NP*
%FSLAX46Y46*%
G04 Gerber Fmt 4.6, Leading zero omitted, Abs format (unit mm)*
G04 Created by KiCad (PCBNEW 9.0.3) date 2025-08-05 11:28:11*
%MOMM*%
%LPD*%
G01*
G04 APERTURE LIST*
G04 #@! TA.AperFunction,Profile*
%ADD10C,0.100000*%
G04 #@! TD*
G04 #@! TA.AperFunction,Profile*
%ADD11C,0.050000*%
G04 #@! TD*
%ADD12C,0.100000*%
G04 APERTURE END LIST*
D10*
X151067464Y-81751066D02*
G75*
G02*
X151114611Y-81744512I29636J-40334D01*
G01*
D11*
X131640000Y-104160000D02*
G75*
G02*
X132140000Y-103660000I500000J0D01*
G01*
X139940000Y-103650000D02*
G75*
G02*
X140440000Y-104150000I0J-500000D01*
G01*
D10*
X150766079Y-81730997D02*
X150788603Y-81745880D01*
X121410422Y-111161033D02*
X121394677Y-111137790D01*
X102059423Y-88882821D02*
X101857895Y-88992628D01*
D11*
X131640000Y-108150000D02*
X131640000Y-104160000D01*
D10*
X121415880Y-111188233D02*
X121410422Y-111161033D01*
X102069013Y-104029039D02*
X121046144Y-111124301D01*
D11*
X140440000Y-114790000D02*
G75*
G02*
X139940000Y-115290000I-500000J0D01*
G01*
X138740000Y-114830000D02*
X133350000Y-114830000D01*
D10*
X121372140Y-111122917D02*
X121345119Y-111117560D01*
X173995137Y-92644086D02*
X170293402Y-88949287D01*
D11*
X132350000Y-103660000D02*
G75*
G02*
X132850000Y-104160000I0J-500000D01*
G01*
X132950000Y-115290000D02*
X132950000Y-115300000D01*
D10*
X121093299Y-111117722D02*
G75*
G02*
X121046160Y-111124258I-29599J40222D01*
G01*
X151133211Y-111105241D02*
X170101333Y-103985946D01*
X98014516Y-93045864D02*
G75*
G02*
X98160827Y-92692089I499984J364D01*
G01*
X121391862Y-81726167D02*
X121397204Y-81699153D01*
D12*
X129097281Y-146309197D02*
X129092933Y-146309190D01*
X129088580Y-146309162D01*
X129084285Y-146309115D01*
X129079987Y-146309048D01*
X129075745Y-146308961D01*
X129071501Y-146308854D01*
X129067311Y-146308728D01*
X129063120Y-146308582D01*
X129058983Y-146308417D01*
X129054844Y-146308232D01*
X129050759Y-146308030D01*
X129046672Y-146307807D01*
X129042637Y-146307566D01*
X129038602Y-146307306D01*
X129034618Y-146307028D01*
X129030634Y-146306730D01*
X129026700Y-146306416D01*
X129022766Y-146306081D01*
X129018881Y-146305731D01*
X129014997Y-146305360D01*
X129011161Y-146304973D01*
X129007327Y-146304567D01*
X129003539Y-146304145D01*
X128999753Y-146303703D01*
X128996014Y-146303246D01*
X128992276Y-146302769D01*
X128988584Y-146302277D01*
X128984894Y-146301766D01*
X128981249Y-146301240D01*
X128977606Y-146300694D01*
X128974007Y-146300135D01*
X128970412Y-146299555D01*
X128966858Y-146298962D01*
X128963309Y-146298349D01*
X128959801Y-146297723D01*
X128956297Y-146297077D01*
X128952834Y-146296418D01*
X128949376Y-146295740D01*
X128945957Y-146295049D01*
X128942543Y-146294338D01*
X128939169Y-146293615D01*
X128935799Y-146292872D01*
X128932468Y-146292117D01*
X128929142Y-146291343D01*
X128925854Y-146290557D01*
X128922571Y-146289751D01*
X128919325Y-146288934D01*
X128916085Y-146288097D01*
X128912881Y-146287249D01*
X128909684Y-146286382D01*
X128906521Y-146285503D01*
X128903365Y-146284605D01*
X128900244Y-146283697D01*
X128897129Y-146282769D01*
X128894049Y-146281830D01*
X128890975Y-146280873D01*
X128887934Y-146279904D01*
X128884901Y-146278917D01*
X128881900Y-146277920D01*
X128878906Y-146276903D01*
X128875944Y-146275876D01*
X128872990Y-146274830D01*
X128870067Y-146273775D01*
X128867152Y-146272700D01*
X128864807Y-146271820D01*
D10*
X121027560Y-81763541D02*
X102059423Y-88882821D01*
X143617409Y-130599842D02*
X150770278Y-111468629D01*
X132290075Y-58519640D02*
X128595271Y-62221376D01*
X121397046Y-81447333D02*
G75*
G02*
X121390495Y-81400155I40254J29633D01*
G01*
D11*
X139740000Y-103650000D02*
X139940000Y-103650000D01*
X140440000Y-108140000D02*
X140440000Y-114790000D01*
D10*
X150783768Y-111120090D02*
X150768891Y-111142620D01*
D11*
X131640000Y-114800000D02*
X131640000Y-108150000D01*
D10*
X173995137Y-92644086D02*
G75*
G02*
X174141919Y-92997658I-353037J-353814D01*
G01*
X121415880Y-111188233D02*
X121416028Y-111440051D01*
X139468895Y-58368534D02*
X132643636Y-58372863D01*
X150768891Y-111142620D02*
X150763551Y-111169640D01*
X151133211Y-111105241D02*
G75*
G02*
X151086048Y-111098720I-17611J46441D01*
G01*
X121326537Y-81769893D02*
X121353728Y-81764430D01*
X98014516Y-93045864D02*
X98021131Y-103473897D01*
X150751235Y-81381565D02*
G75*
G02*
X150744708Y-81428724I-46935J-17535D01*
G01*
X143392288Y-146249176D02*
X143271592Y-146287523D01*
D12*
X143508742Y-146165662D02*
X143505019Y-146169558D01*
X143501241Y-146173396D01*
X143497406Y-146177178D01*
X143493514Y-146180903D01*
X143489565Y-146184573D01*
X143485559Y-146188187D01*
X143481495Y-146191746D01*
X143477373Y-146195249D01*
X143473192Y-146198698D01*
X143468952Y-146202092D01*
X143464652Y-146205431D01*
X143460292Y-146208717D01*
X143455871Y-146211948D01*
X143451389Y-146215125D01*
X143446845Y-146218248D01*
X143442238Y-146221317D01*
X143437568Y-146224332D01*
X143432834Y-146227293D01*
X143428036Y-146230201D01*
X143423172Y-146233054D01*
X143418243Y-146235853D01*
X143413247Y-146238599D01*
X143408184Y-146241290D01*
X143403054Y-146243926D01*
X143397854Y-146246509D01*
X143392586Y-146249036D01*
X143392288Y-146249176D01*
D10*
X121409521Y-111487214D02*
G75*
G02*
X121416054Y-111440070I46979J17514D01*
G01*
X121353728Y-81764430D02*
X121376972Y-81748706D01*
X150763707Y-111421474D02*
X150763551Y-111169640D01*
X174148523Y-103425689D02*
G75*
G02*
X173648827Y-103926023I-499923J-411D01*
G01*
D11*
X139240000Y-114330000D02*
G75*
G02*
X138740000Y-114830000I-500000J0D01*
G01*
D10*
X170302876Y-103928122D02*
X173648827Y-103925997D01*
X143627771Y-145800000D02*
X143617409Y-130599842D01*
X151067464Y-81751066D02*
X150815625Y-81751232D01*
X139468895Y-58368534D02*
G75*
G02*
X139822682Y-58514847I505J-499666D01*
G01*
X143271592Y-146287523D02*
X143128096Y-146300301D01*
X143631943Y-62413443D02*
X143522135Y-62211927D01*
X128586622Y-130609354D02*
X128596970Y-145800000D01*
X121394677Y-111137790D02*
X121372140Y-111122917D01*
D11*
X139240000Y-104150000D02*
G75*
G02*
X139740000Y-103650000I500000J0D01*
G01*
X133350000Y-114830000D02*
G75*
G02*
X132850000Y-114330000I0J500000D01*
G01*
D10*
X98521443Y-103973584D02*
G75*
G02*
X98021116Y-103473897I-443J499884D01*
G01*
X128648095Y-146073699D02*
X128609751Y-145953015D01*
X132290075Y-58519640D02*
G75*
G02*
X132643636Y-58372869I353725J-352860D01*
G01*
X98521443Y-103973584D02*
X101867393Y-103971454D01*
X128609751Y-145953015D02*
X128596970Y-145809508D01*
X121376972Y-81748706D02*
X121391862Y-81726167D01*
D11*
X139240000Y-114330000D02*
X139240000Y-104150000D01*
D10*
X170293402Y-88949287D02*
X170091733Y-88839754D01*
X150834219Y-111098888D02*
X150807014Y-111104346D01*
X150751235Y-81381565D02*
X143631943Y-62413443D01*
X150744882Y-81680571D02*
X150744717Y-81428731D01*
X121027560Y-81763541D02*
G75*
G02*
X121074714Y-81770071I17540J-46859D01*
G01*
X150807014Y-111104346D02*
X150783768Y-111120090D01*
D12*
X128731613Y-146190157D02*
X128727719Y-146186437D01*
X128723881Y-146182661D01*
X128720101Y-146178829D01*
X128716376Y-146174940D01*
X128712708Y-146170994D01*
X128709095Y-146166990D01*
X128705537Y-146162929D01*
X128702035Y-146158809D01*
X128698587Y-146154631D01*
X128695194Y-146150393D01*
X128691856Y-146146096D01*
X128688571Y-146141738D01*
X128685341Y-146137319D01*
X128682165Y-146132840D01*
X128679044Y-146128298D01*
X128675976Y-146123694D01*
X128672962Y-146119027D01*
X128670002Y-146114296D01*
X128667096Y-146109500D01*
X128664244Y-146104640D01*
X128661446Y-146099714D01*
X128658702Y-146094721D01*
X128656012Y-146089662D01*
X128653378Y-146084535D01*
X128650797Y-146079339D01*
X128648272Y-146074075D01*
X128648095Y-146073699D01*
D11*
X132140000Y-115300000D02*
G75*
G02*
X131640000Y-114800000I0J500000D01*
G01*
D10*
X101867393Y-103971454D02*
X102069013Y-104029039D01*
X174148523Y-103425689D02*
X174141909Y-92997658D01*
X128595271Y-62221376D02*
X128485732Y-62423027D01*
X150744882Y-81680571D02*
X150750341Y-81707755D01*
X150763707Y-111421474D02*
G75*
G02*
X150770267Y-111468625I-40207J-29626D01*
G01*
X129097281Y-146309197D02*
X143128096Y-146300301D01*
X150750341Y-81707755D02*
X150766079Y-81730997D01*
X101857895Y-88992628D02*
X98160845Y-92692107D01*
X150788603Y-81745880D02*
X150815625Y-81751232D01*
D11*
X132140000Y-103660000D02*
X132350000Y-103660000D01*
X132850000Y-104160000D02*
X132850000Y-114330000D01*
D10*
X121093299Y-111117722D02*
X121345119Y-111117560D01*
X121326537Y-81769893D02*
X121074726Y-81770055D01*
X143522135Y-62211927D02*
X139822663Y-58514866D01*
X128485732Y-62423027D02*
X121390474Y-81400147D01*
X150834219Y-111098888D02*
X151086040Y-111098731D01*
D11*
X140440000Y-104150000D02*
X140440000Y-108140000D01*
X132950000Y-115300000D02*
X132140000Y-115300000D01*
D10*
X121409521Y-111487214D02*
X128586622Y-130609354D01*
D12*
X128864807Y-146271820D02*
X128861939Y-146270724D01*
X128859081Y-146269609D01*
X128856251Y-146268485D01*
X128853431Y-146267342D01*
X128850638Y-146266189D01*
X128847855Y-146265019D01*
X128845100Y-146263838D01*
X128842354Y-146262639D01*
X128839635Y-146261430D01*
X128836926Y-146260204D01*
X128834243Y-146258967D01*
X128831571Y-146257713D01*
X128828924Y-146256449D01*
X128826287Y-146255168D01*
X128823675Y-146253876D01*
X128821074Y-146252567D01*
X128818497Y-146251248D01*
X128815931Y-146249912D01*
X128813388Y-146248565D01*
X128810857Y-146247202D01*
X128808349Y-146245828D01*
X128805851Y-146244438D01*
X128803377Y-146243037D01*
X128800913Y-146241619D01*
X128798472Y-146240191D01*
X128796042Y-146238746D01*
X128793634Y-146237292D01*
X128791237Y-146235820D01*
X128788861Y-146234338D01*
X128786497Y-146232839D01*
X128784154Y-146231330D01*
X128781822Y-146229804D01*
X128779511Y-146228268D01*
X128777211Y-146226715D01*
X128774932Y-146225152D01*
X128772663Y-146223572D01*
X128770416Y-146221982D01*
X128768179Y-146220375D01*
X128765962Y-146218758D01*
X128763756Y-146217124D01*
X128761570Y-146215479D01*
X128759394Y-146213818D01*
X128757239Y-146212147D01*
X128755094Y-146210458D01*
X128752968Y-146208759D01*
X128750854Y-146207043D01*
X128748758Y-146205317D01*
X128746674Y-146203574D01*
X128744607Y-146201820D01*
X128742552Y-146200049D01*
X128740516Y-146198267D01*
X128738490Y-146196469D01*
X128736482Y-146194660D01*
X128734486Y-146192833D01*
X128731613Y-146190157D01*
X143590389Y-146032471D02*
X143589294Y-146035337D01*
X143588182Y-146038192D01*
X143587058Y-146041021D01*
X143585917Y-146043839D01*
X143584766Y-146046630D01*
X143583597Y-146049410D01*
X143582417Y-146052165D01*
X143581219Y-146054909D01*
X143580012Y-146057626D01*
X143578787Y-146060334D01*
X143577551Y-146063016D01*
X143576298Y-146065687D01*
X143575035Y-146068334D01*
X143573754Y-146070970D01*
X143572464Y-146073581D01*
X143571155Y-146076181D01*
X143569837Y-146078758D01*
X143568502Y-146081324D01*
X143567156Y-146083865D01*
X143565793Y-146086397D01*
X143564421Y-146088904D01*
X143563031Y-146091402D01*
X143561631Y-146093876D01*
X143560213Y-146096339D01*
X143558786Y-146098780D01*
X143557342Y-146101210D01*
X143555888Y-146103618D01*
X143554416Y-146106015D01*
X143552935Y-146108390D01*
X143551437Y-146110754D01*
X143549928Y-146113097D01*
X143548403Y-146115429D01*
X143546868Y-146117740D01*
X143545315Y-146120040D01*
X143543753Y-146122319D01*
X143542173Y-146124587D01*
X143540584Y-146126835D01*
X143538978Y-146129071D01*
X143537361Y-146131288D01*
X143535727Y-146133494D01*
X143534084Y-146135680D01*
X143532423Y-146137854D01*
X143530752Y-146140010D01*
X143529064Y-146142154D01*
X143527366Y-146144279D01*
X143525651Y-146146393D01*
X143523926Y-146148489D01*
X143522183Y-146150573D01*
X143520430Y-146152638D01*
X143518661Y-146154693D01*
X143516880Y-146156729D01*
X143515083Y-146158753D01*
X143513274Y-146160760D01*
X143511449Y-146162756D01*
X143508742Y-146165662D01*
D11*
X139940000Y-115290000D02*
X132950000Y-115290000D01*
D10*
X170091733Y-88839754D02*
X151114615Y-81744501D01*
X170101333Y-103985946D02*
X170302876Y-103928122D01*
D12*
X143627771Y-145800000D02*
X143627763Y-145804358D01*
X143627735Y-145808720D01*
X143627688Y-145813023D01*
X143627620Y-145817330D01*
X143627532Y-145821578D01*
X143627425Y-145825830D01*
X143627298Y-145830024D01*
X143627152Y-145834222D01*
X143626987Y-145838364D01*
X143626801Y-145842507D01*
X143626598Y-145846597D01*
X143626375Y-145850687D01*
X143626134Y-145854725D01*
X143625873Y-145858763D01*
X143625596Y-145862750D01*
X143625297Y-145866736D01*
X143624983Y-145870672D01*
X143624648Y-145874607D01*
X143624297Y-145878493D01*
X143623926Y-145882378D01*
X143623540Y-145886214D01*
X143623133Y-145890049D01*
X143622711Y-145893837D01*
X143622269Y-145897622D01*
X143621812Y-145901361D01*
X143621335Y-145905098D01*
X143620843Y-145908789D01*
X143620332Y-145912478D01*
X143619806Y-145916122D01*
X143619260Y-145919762D01*
X143618701Y-145923360D01*
X143618121Y-145926953D01*
X143617529Y-145930505D01*
X143616916Y-145934052D01*
X143616290Y-145937557D01*
X143615644Y-145941058D01*
X143614986Y-145944518D01*
X143614308Y-145947974D01*
X143613617Y-145951389D01*
X143612906Y-145954800D01*
X143612183Y-145958171D01*
X143611441Y-145961538D01*
X143610687Y-145964865D01*
X143609913Y-145968188D01*
X143609127Y-145971472D01*
X143608322Y-145974751D01*
X143607505Y-145977993D01*
X143606669Y-145981229D01*
X143605821Y-145984429D01*
X143604955Y-145987622D01*
X143604077Y-145990781D01*
X143603180Y-145993932D01*
X143602272Y-145997049D01*
X143601344Y-146000160D01*
X143600407Y-146003236D01*
X143599450Y-146006306D01*
X143598482Y-146009342D01*
X143597495Y-146012371D01*
X143596498Y-146015367D01*
X143595483Y-146018356D01*
X143594457Y-146021313D01*
X143593412Y-146024263D01*
X143592357Y-146027181D01*
X143591283Y-146030092D01*
X143590389Y-146032471D01*
D10*
X121397046Y-81447333D02*
X121397204Y-81699153D01*
M02*
