G04 #@! TF.GenerationSoftware,KiCad,Pcbnew,9.0.3*
G04 #@! TF.CreationDate,2025-08-05T11:28:11+01:00*
G04 #@! TF.ProjectId,Badge ESC 2025,42616467-6520-4455-9343-20323032352e,rev?*
G04 #@! TF.SameCoordinates,Original*
G04 #@! TF.FileFunction,Legend,Top*
G04 #@! TF.FilePolarity,Positive*
%FSLAX46Y46*%
G04 Gerber Fmt 4.6, Leading zero omitted, Abs format (unit mm)*
G04 Created by KiCad (PCBNEW 9.0.3) date 2025-08-05 11:28:11*
%MOMM*%
%LPD*%
G01*
G04 APERTURE LIST*
G04 Aperture macros list*
%AMRoundRect*
0 Rectangle with rounded corners*
0 $1 Rounding radius*
0 $2 $3 $4 $5 $6 $7 $8 $9 X,Y pos of 4 corners*
0 Add a 4 corners polygon primitive as box body*
4,1,4,$2,$3,$4,$5,$6,$7,$8,$9,$2,$3,0*
0 Add four circle primitives for the rounded corners*
1,1,$1+$1,$2,$3*
1,1,$1+$1,$4,$5*
1,1,$1+$1,$6,$7*
1,1,$1+$1,$8,$9*
0 Add four rect primitives between the rounded corners*
20,1,$1+$1,$2,$3,$4,$5,0*
20,1,$1+$1,$4,$5,$6,$7,0*
20,1,$1+$1,$6,$7,$8,$9,0*
20,1,$1+$1,$8,$9,$2,$3,0*%
G04 Aperture macros list end*
%ADD10C,0.200000*%
%ADD11C,0.100000*%
%ADD12C,0.250000*%
%ADD13O,0.300000X9.600000*%
%ADD14RoundRect,0.300000X-0.000010X0.000010X-0.000010X-0.000010X0.000010X-0.000010X0.000010X0.000010X0*%
%ADD15O,0.250000X2.100000*%
%ADD16O,0.250000X1.900000*%
%ADD17O,0.250000X1.600000*%
%ADD18O,9.600000X0.300000*%
%ADD19R,0.600000X0.850000*%
%ADD20R,0.700000X0.800000*%
%ADD21R,0.450000X0.450000*%
%ADD22C,0.500000*%
%ADD23C,0.900000*%
G04 APERTURE END LIST*
D10*
X170101333Y-103985946D02*
X170099939Y-101785946D01*
X170099432Y-100985947D02*
X170098037Y-98785947D01*
X170097530Y-97985947D02*
X170096136Y-95785948D01*
X170095629Y-94985948D02*
X170094234Y-92785948D01*
X170093727Y-91985948D02*
X170092333Y-89785949D01*
X170091826Y-88985949D02*
X170091734Y-88839754D01*
X121415834Y-111117524D02*
X123615834Y-111116131D01*
X124415833Y-111115624D02*
X126615833Y-111114231D01*
X127415833Y-111113724D02*
X129615832Y-111112331D01*
X130415832Y-111111825D02*
X132615832Y-111110431D01*
X133415832Y-111109925D02*
X135615831Y-111108532D01*
X136415831Y-111108025D02*
X138615831Y-111106632D01*
X139415830Y-111106125D02*
X141615830Y-111104732D01*
X142415830Y-111104225D02*
X144615829Y-111102832D01*
X145415829Y-111102326D02*
X147615829Y-111100932D01*
X148415829Y-111100426D02*
X150615828Y-111099033D01*
X150763502Y-111098939D02*
X150762109Y-108898939D01*
X150761602Y-108098940D02*
X150760209Y-105898940D01*
X150759703Y-105098940D02*
X150758309Y-102898941D01*
X150757803Y-102098941D02*
X150756410Y-99898941D01*
X150755903Y-99098941D02*
X150754510Y-96898942D01*
X150754003Y-96098942D02*
X150752610Y-93898942D01*
X150752104Y-93098943D02*
X150750711Y-90898943D01*
X150750204Y-90098943D02*
X150748811Y-87898944D01*
X150748304Y-87098944D02*
X150746911Y-84898944D01*
X150746405Y-84098944D02*
X150745012Y-81898945D01*
X128586612Y-130610965D02*
X130786612Y-130609572D01*
X131586611Y-130609066D02*
X133786611Y-130607673D01*
X134586611Y-130607166D02*
X136786610Y-130605774D01*
X137586610Y-130605267D02*
X139786610Y-130603874D01*
X140586610Y-130603368D02*
X142786609Y-130601975D01*
X143586609Y-130601469D02*
X143617411Y-130601450D01*
X131815094Y-108580000D02*
X134015092Y-108577104D01*
X134815091Y-108576051D02*
X137015089Y-108573155D01*
X137815089Y-108572101D02*
X139099687Y-108570410D01*
D11*
X166909867Y-97396496D02*
X166912444Y-97396703D01*
X166915009Y-97397050D01*
X166917567Y-97397502D01*
X166922618Y-97398522D01*
X166927527Y-97399495D01*
X166929929Y-97399881D01*
X166932288Y-97400147D01*
X166933729Y-97400352D01*
X166934986Y-97400702D01*
X166936062Y-97401193D01*
X166936961Y-97401804D01*
X166937714Y-97402543D01*
X166938296Y-97403384D01*
X166938769Y-97404330D01*
X166939108Y-97405371D01*
X166939326Y-97406490D01*
X166939471Y-97407702D01*
X166939495Y-97408976D01*
X166939454Y-97410314D01*
X166939199Y-97413117D01*
X166938775Y-97416084D01*
X166937779Y-97422163D01*
X166937405Y-97425153D01*
X166937290Y-97426615D01*
X166937226Y-97428018D01*
X166937241Y-97429382D01*
X166937350Y-97430694D01*
X166937536Y-97431946D01*
X166937860Y-97433117D01*
X166938278Y-97434215D01*
X166938846Y-97435215D01*
X166939542Y-97436118D01*
X166940399Y-97436929D01*
X166946900Y-97442187D01*
X166947809Y-97442827D01*
X166948195Y-97443056D01*
X166948549Y-97443251D01*
X166948886Y-97443383D01*
X166949187Y-97443468D01*
X166949510Y-97443520D01*
X166949817Y-97443523D01*
X166950142Y-97443496D01*
X166950481Y-97443441D01*
X166951246Y-97443209D01*
X166953357Y-97442487D01*
X166954841Y-97442027D01*
X166956691Y-97441549D01*
X166958979Y-97441054D01*
X166960327Y-97440805D01*
X166961791Y-97440572D01*
X166964100Y-97440174D01*
X166966434Y-97439656D01*
X166968824Y-97439037D01*
X166971247Y-97438335D01*
X166973676Y-97437544D01*
X166976130Y-97436707D01*
X166981062Y-97434853D01*
X166999813Y-97427175D01*
X167004740Y-97425091D01*
X167010683Y-97422347D01*
X167024335Y-97415986D01*
X167031374Y-97412871D01*
X167034807Y-97411445D01*
X167038124Y-97410161D01*
X167041285Y-97409049D01*
X167044247Y-97408121D01*
X167046965Y-97407434D01*
X167049416Y-97407013D01*
X167056794Y-97405999D01*
X167063895Y-97404852D01*
X167070801Y-97403692D01*
X167077621Y-97402654D01*
X167081007Y-97402220D01*
X167084426Y-97401845D01*
X167087860Y-97401571D01*
X167091322Y-97401407D01*
X167094855Y-97401356D01*
X167098415Y-97401442D01*
X167102072Y-97401681D01*
X167105801Y-97402069D01*
X167141168Y-97406072D01*
X167150587Y-97407246D01*
X167159739Y-97408533D01*
X167168375Y-97409993D01*
X167176267Y-97411650D01*
X167178414Y-97412202D01*
X167180393Y-97412795D01*
X167182202Y-97413424D01*
X167183879Y-97414075D01*
X167185420Y-97414774D01*
X167186837Y-97415495D01*
X167188127Y-97416251D01*
X167189332Y-97417015D01*
X167190430Y-97417814D01*
X167191456Y-97418639D01*
X167192419Y-97419493D01*
X167193314Y-97420339D01*
X167194981Y-97422108D01*
X167196552Y-97423907D01*
X167198119Y-97425753D01*
X167199758Y-97427595D01*
X167201573Y-97429450D01*
X167202557Y-97430363D01*
X167203644Y-97431275D01*
X167204811Y-97432162D01*
X167206063Y-97433063D01*
X167207431Y-97433925D01*
X167208920Y-97434792D01*
X167210550Y-97435626D01*
X167212307Y-97436443D01*
X167214221Y-97437245D01*
X167216302Y-97438013D01*
X167220962Y-97439543D01*
X167226189Y-97441084D01*
X167237996Y-97444150D01*
X167251029Y-97447146D01*
X167264604Y-97449966D01*
X167290550Y-97454871D01*
X167310261Y-97458234D01*
X167311433Y-97458369D01*
X167312626Y-97458436D01*
X167313823Y-97458430D01*
X167315031Y-97458350D01*
X167316261Y-97458193D01*
X167317513Y-97457993D01*
X167320022Y-97457434D01*
X167322589Y-97456718D01*
X167325165Y-97455888D01*
X167328662Y-97454644D01*
X167330351Y-97454061D01*
X167332944Y-97453158D01*
X167335508Y-97452344D01*
X167338051Y-97451638D01*
X167340564Y-97451099D01*
X167341798Y-97450900D01*
X167343019Y-97450777D01*
X167344227Y-97450710D01*
X167345422Y-97450709D01*
X167346594Y-97450794D01*
X167347747Y-97450964D01*
X167348891Y-97451210D01*
X167349990Y-97451554D01*
X167351120Y-97452018D01*
X167352268Y-97452527D01*
X167354645Y-97453851D01*
X167357116Y-97455460D01*
X167359614Y-97457336D01*
X167362188Y-97459432D01*
X167364755Y-97461708D01*
X167367322Y-97464140D01*
X167369860Y-97466673D01*
X167372338Y-97469279D01*
X167374737Y-97471933D01*
X167377029Y-97474572D01*
X167379207Y-97477159D01*
X167383078Y-97482079D01*
X167384737Y-97484317D01*
X167386170Y-97486362D01*
X167391428Y-97494263D01*
X167397287Y-97503345D01*
X167403583Y-97513342D01*
X167410145Y-97524024D01*
X167416807Y-97535105D01*
X167423404Y-97546348D01*
X167429765Y-97557479D01*
X167435728Y-97568259D01*
X167449373Y-97593268D01*
X167456010Y-97605666D01*
X167462500Y-97618198D01*
X167468797Y-97630990D01*
X167474844Y-97644172D01*
X167477786Y-97650945D01*
X167480654Y-97657876D01*
X167483447Y-97664977D01*
X167486170Y-97672240D01*
X167488784Y-97679714D01*
X167491234Y-97687379D01*
X167495806Y-97703202D01*
X167499991Y-97719535D01*
X167503900Y-97736248D01*
X167511353Y-97770133D01*
X167515153Y-97787000D01*
X167519137Y-97803609D01*
X167523377Y-97820002D01*
X167527779Y-97836362D01*
X167536680Y-97869051D01*
X167540996Y-97885438D01*
X167545058Y-97901869D01*
X167548801Y-97918378D01*
X167552107Y-97934970D01*
X167556290Y-97959750D01*
X167559807Y-97984637D01*
X167562833Y-98009606D01*
X167565509Y-98034616D01*
X167570417Y-98084715D01*
X167575724Y-98134748D01*
X167578945Y-98159695D01*
X167582563Y-98184623D01*
X167590004Y-98234463D01*
X167593377Y-98259400D01*
X167596203Y-98284390D01*
X167598282Y-98309426D01*
X167598945Y-98321952D01*
X167599353Y-98334525D01*
X167599127Y-98354783D01*
X167597944Y-98377865D01*
X167596117Y-98402064D01*
X167593937Y-98425680D01*
X167589756Y-98464377D01*
X167587809Y-98480292D01*
X167588333Y-98485211D01*
X167589603Y-98491093D01*
X167594359Y-98506035D01*
X167601932Y-98525627D01*
X167612216Y-98550346D01*
X167640226Y-98617168D01*
X167657679Y-98660254D01*
X167677261Y-98710441D01*
X167698790Y-98768234D01*
X167722131Y-98834123D01*
X167747157Y-98908592D01*
X167773699Y-98992149D01*
X167801625Y-99085277D01*
X167830797Y-99188468D01*
X167861065Y-99302217D01*
X167876570Y-99363196D01*
X167892282Y-99427013D01*
X167893709Y-99439278D01*
X167895212Y-99454036D01*
X167897008Y-99474033D01*
X167898883Y-99498889D01*
X167900674Y-99528225D01*
X167901476Y-99544456D01*
X167902183Y-99561659D01*
X167902769Y-99579799D01*
X167903213Y-99598816D01*
X167905725Y-99698082D01*
X167907115Y-99755653D01*
X167908273Y-99823731D01*
X167866924Y-100274424D01*
X167810627Y-100726168D01*
X167758067Y-100928939D01*
X167705500Y-101131692D01*
X167677002Y-101219817D01*
X167653647Y-101303123D01*
X167603245Y-101303245D01*
X167583251Y-101323726D01*
X167282630Y-101556383D01*
X167217678Y-101602517D01*
X167238616Y-101584632D01*
X167199483Y-101616432D01*
X167160344Y-101648238D01*
X167088659Y-101655885D01*
X167018384Y-101646971D01*
X166931240Y-101636270D01*
X166826926Y-101623792D01*
X166824035Y-101664621D01*
X166801311Y-101685983D01*
X166799587Y-101694466D01*
X166760743Y-101690318D01*
X166757537Y-101673333D01*
X166598664Y-101662724D01*
X166592150Y-101678584D01*
X166572958Y-101681301D01*
X166565513Y-101680632D01*
X166557459Y-101679784D01*
X166547585Y-101678564D01*
X166536725Y-101676987D01*
X166531196Y-101676049D01*
X166525702Y-101675011D01*
X166520381Y-101673878D01*
X166515311Y-101672661D01*
X166510635Y-101671330D01*
X166506411Y-101669902D01*
X166504482Y-101669120D01*
X166502606Y-101668242D01*
X166500769Y-101667278D01*
X166498974Y-101666250D01*
X166497196Y-101665162D01*
X166495437Y-101664019D01*
X166491984Y-101661652D01*
X166488563Y-101659221D01*
X166485108Y-101656841D01*
X166483352Y-101655683D01*
X166481580Y-101654576D01*
X166479785Y-101653526D01*
X166477939Y-101652546D01*
X166475102Y-101651262D01*
X166470675Y-101649432D01*
X166465142Y-101647274D01*
X166458971Y-101644965D01*
X166452664Y-101642691D01*
X166446681Y-101640681D01*
X166441509Y-101639108D01*
X166439393Y-101638526D01*
X166437645Y-101638144D01*
X166427682Y-101636123D01*
X166415194Y-101633407D01*
X166400000Y-101630000D01*
X166410238Y-101555865D01*
X166370145Y-101496806D01*
X166341653Y-101366602D01*
X166344983Y-101339264D01*
X166346032Y-101336154D01*
X166347026Y-101332818D01*
X166347545Y-101330848D01*
X166348054Y-101328722D01*
X166348509Y-101326509D01*
X166348895Y-101324251D01*
X166349188Y-101321969D01*
X166349365Y-101319732D01*
X166349388Y-101318624D01*
X166349392Y-101317544D01*
X166349324Y-101316513D01*
X166349235Y-101315499D01*
X166349086Y-101314521D01*
X166348873Y-101313601D01*
X166348618Y-101312735D01*
X166348296Y-101311917D01*
X166347638Y-101310548D01*
X166346920Y-101309204D01*
X166346172Y-101307944D01*
X166345377Y-101306731D01*
X166344542Y-101305570D01*
X166343668Y-101304463D01*
X166342746Y-101303405D01*
X166341785Y-101302375D01*
X166340808Y-101301389D01*
X166339776Y-101300448D01*
X166337639Y-101298651D01*
X166335408Y-101296969D01*
X166333068Y-101295371D01*
X166330654Y-101293840D01*
X166328177Y-101292353D01*
X166323073Y-101289434D01*
X166317885Y-101286394D01*
X166315305Y-101284788D01*
X166312725Y-101283079D01*
X166290252Y-101267955D01*
X166284508Y-101263906D01*
X166278990Y-101259761D01*
X166276334Y-101257655D01*
X166273782Y-101255540D01*
X166271345Y-101253413D01*
X166269045Y-101251272D01*
X166255625Y-101238468D01*
X166248922Y-101232011D01*
X166242296Y-101225460D01*
X166235802Y-101218787D01*
X166229509Y-101211955D01*
X166226454Y-101208465D01*
X166223478Y-101204931D01*
X166220574Y-101201338D01*
X166217766Y-101197666D01*
X166206897Y-101183040D01*
X166201645Y-101175737D01*
X166196558Y-101168386D01*
X166191638Y-101160921D01*
X166189268Y-101157129D01*
X166186928Y-101153293D01*
X166184666Y-101149403D01*
X166182459Y-101145443D01*
X166180317Y-101141431D01*
X166178234Y-101137327D01*
X166176553Y-101133683D01*
X166175015Y-101129984D01*
X166173623Y-101126227D01*
X166172341Y-101122427D01*
X166171181Y-101118592D01*
X166170110Y-101114713D01*
X166168182Y-101106869D01*
X166164716Y-101091050D01*
X166162911Y-101083170D01*
X166160889Y-101075355D01*
X166158858Y-101067608D01*
X166157054Y-101059820D01*
X166155488Y-101052016D01*
X166154135Y-101044177D01*
X166152962Y-101036298D01*
X166151993Y-101028376D01*
X166151166Y-101020424D01*
X166150487Y-101012435D01*
X166149921Y-101002853D01*
X166149624Y-100993368D01*
X166149599Y-100983940D01*
X166149832Y-100974529D01*
X166150295Y-100965146D01*
X166150989Y-100955726D01*
X166151871Y-100946264D01*
X166152962Y-100936734D01*
X166154411Y-100926679D01*
X166156393Y-100915890D01*
X166158795Y-100904621D01*
X166161548Y-100893139D01*
X166164566Y-100881741D01*
X166167795Y-100870664D01*
X166171103Y-100860206D01*
X166174461Y-100850617D01*
X166176533Y-100845217D01*
X166178645Y-100840144D01*
X166180771Y-100835366D01*
X166182960Y-100830831D01*
X166185184Y-100826510D01*
X166187470Y-100822360D01*
X166189824Y-100818333D01*
X166192245Y-100814376D01*
X166197315Y-100806561D01*
X166202761Y-100798545D01*
X166208601Y-100790010D01*
X166214922Y-100780630D01*
X166218245Y-100775763D01*
X166221646Y-100771078D01*
X166225133Y-100766581D01*
X166228713Y-100762221D01*
X166232368Y-100758002D01*
X166236092Y-100753891D01*
X166239895Y-100749880D01*
X166243781Y-100745970D01*
X166251774Y-100738314D01*
X166260063Y-100730804D01*
X166277543Y-100715634D01*
X166281769Y-100712147D01*
X166286061Y-100708828D01*
X166290419Y-100705696D01*
X166294836Y-100702720D01*
X166299318Y-100699888D01*
X166303849Y-100697183D01*
X166308449Y-100694599D01*
X166313094Y-100692097D01*
X166322543Y-100687332D01*
X166332191Y-100682746D01*
X166351941Y-100673666D01*
X166372492Y-100664375D01*
X166382873Y-100659489D01*
X166387995Y-100656932D01*
X166393044Y-100654274D01*
X166397997Y-100651473D01*
X166402831Y-100648547D01*
X166407510Y-100645445D01*
X166412015Y-100642167D01*
X166416327Y-100638681D01*
X166420417Y-100634999D01*
X166424274Y-100631061D01*
X166427851Y-100626862D01*
X166430141Y-100623743D01*
X166432299Y-100620287D01*
X166436157Y-100612636D01*
X166439530Y-100604091D01*
X166442396Y-100594874D01*
X166444811Y-100585184D01*
X166446826Y-100575245D01*
X166448469Y-100565248D01*
X166449784Y-100555431D01*
X166451546Y-100537105D01*
X166452451Y-100521939D01*
X166452793Y-100507796D01*
X166477740Y-100388713D01*
X166564475Y-99681616D01*
X166651218Y-98974532D01*
X166662632Y-98798217D01*
X166677503Y-98708167D01*
X166687026Y-98644967D01*
X166689663Y-98623240D01*
X166690108Y-98616635D01*
X166689872Y-98613551D01*
X166689126Y-98612334D01*
X166688208Y-98611022D01*
X166685886Y-98608214D01*
X166682958Y-98605123D01*
X166679505Y-98601809D01*
X166675597Y-98598283D01*
X166671280Y-98594588D01*
X166661747Y-98586797D01*
X166640968Y-98570466D01*
X166630831Y-98562422D01*
X166621583Y-98554780D01*
X166603866Y-98539752D01*
X166594870Y-98531946D01*
X166586003Y-98523933D01*
X166577383Y-98515665D01*
X166573246Y-98511428D01*
X166569221Y-98507109D01*
X166565351Y-98502745D01*
X166561643Y-98498278D01*
X166558112Y-98493738D01*
X166554804Y-98489121D01*
X166548340Y-98479673D01*
X166542298Y-98470633D01*
X166536639Y-98461772D01*
X166533944Y-98457369D01*
X166531339Y-98452938D01*
X166528822Y-98448463D01*
X166526373Y-98443919D01*
X166524030Y-98439298D01*
X166521751Y-98434554D01*
X166519552Y-98429667D01*
X166517422Y-98424641D01*
X166515355Y-98419416D01*
X166513357Y-98413971D01*
X166509527Y-98402930D01*
X166505916Y-98391996D01*
X166502559Y-98381082D01*
X166499487Y-98370143D01*
X166496771Y-98359126D01*
X166494416Y-98347969D01*
X166493404Y-98342334D01*
X166492474Y-98336641D01*
X166491690Y-98330896D01*
X166491010Y-98325082D01*
X166490476Y-98320347D01*
X166489959Y-98316166D01*
X166488972Y-98309096D01*
X166488090Y-98303255D01*
X166487389Y-98298027D01*
X166487119Y-98295462D01*
X166486910Y-98292799D01*
X166486766Y-98289995D01*
X166486699Y-98286953D01*
X166486718Y-98283604D01*
X166486836Y-98279871D01*
X166487036Y-98275661D01*
X166487341Y-98270922D01*
X166489202Y-98245386D01*
X166490720Y-98235192D01*
X166492648Y-98224699D01*
X166494918Y-98214013D01*
X166497509Y-98203268D01*
X166500310Y-98192584D01*
X166503328Y-98182084D01*
X166506485Y-98171865D01*
X166509714Y-98162084D01*
X166512347Y-98154843D01*
X166515251Y-98147541D01*
X166518392Y-98140254D01*
X166521758Y-98132985D01*
X166525294Y-98125817D01*
X166528957Y-98118751D01*
X166532733Y-98111862D01*
X166536557Y-98105189D01*
X166538476Y-98101982D01*
X166540411Y-98098924D01*
X166542333Y-98096008D01*
X166544269Y-98093206D01*
X166546214Y-98090501D01*
X166548203Y-98087883D01*
X166552217Y-98082798D01*
X166556378Y-98077802D01*
X166560721Y-98072776D01*
X166570085Y-98061981D01*
X166575906Y-98055313D01*
X166581462Y-98049200D01*
X166586884Y-98043519D01*
X166592300Y-98038123D01*
X166597868Y-98032880D01*
X166603712Y-98027637D01*
X166609972Y-98022265D01*
X166616806Y-98016612D01*
X166620353Y-98013813D01*
X166623875Y-98011209D01*
X166627365Y-98008788D01*
X166630834Y-98006510D01*
X166634297Y-98004373D01*
X166637757Y-98002347D01*
X166644716Y-97998519D01*
X166659035Y-97991154D01*
X166666526Y-97987220D01*
X166670376Y-97985125D01*
X166674331Y-97982893D01*
X166679493Y-97979953D01*
X166684815Y-97976995D01*
X166690267Y-97974068D01*
X166695794Y-97971207D01*
X166701385Y-97968445D01*
X166706981Y-97965847D01*
X166712559Y-97963417D01*
X166718079Y-97961237D01*
X166723640Y-97959090D01*
X166729317Y-97956723D01*
X166732136Y-97955452D01*
X166734942Y-97954111D01*
X166737701Y-97952689D01*
X166740410Y-97951175D01*
X166743038Y-97949575D01*
X166745565Y-97947874D01*
X166747994Y-97946074D01*
X166750290Y-97944150D01*
X166752435Y-97942120D01*
X166754416Y-97939959D01*
X166756226Y-97937655D01*
X166757062Y-97936461D01*
X166757853Y-97935231D01*
X166759765Y-97930932D01*
X166761772Y-97924498D01*
X166763812Y-97916129D01*
X166765926Y-97906074D01*
X166770253Y-97881726D01*
X166774722Y-97853262D01*
X166783811Y-97790982D01*
X166788322Y-97760717D01*
X166792756Y-97733428D01*
X166795855Y-97716784D01*
X167283151Y-97716784D01*
X167283181Y-97718933D01*
X167283271Y-97720968D01*
X167283558Y-97724836D01*
X167283937Y-97728701D01*
X167284296Y-97732911D01*
X167284443Y-97735251D01*
X167284555Y-97737790D01*
X167284596Y-97740581D01*
X167284592Y-97743673D01*
X167284561Y-97750702D01*
X167284703Y-97757718D01*
X167285403Y-97771746D01*
X167286571Y-97785756D01*
X167288025Y-97799767D01*
X167291361Y-97827756D01*
X167292939Y-97841751D01*
X167294326Y-97855751D01*
X167295252Y-97869821D01*
X167295790Y-97883959D01*
X167296624Y-97912266D01*
X167297394Y-97926362D01*
X167297977Y-97933361D01*
X167298739Y-97940347D01*
X167299690Y-97947290D01*
X167300875Y-97954193D01*
X167302314Y-97961051D01*
X167304049Y-97967846D01*
X167304756Y-97970623D01*
X167305378Y-97973504D01*
X167306434Y-97979550D01*
X167308241Y-97992165D01*
X167309252Y-97998486D01*
X167309846Y-98001583D01*
X167310521Y-98004614D01*
X167311301Y-98007578D01*
X167312183Y-98010425D01*
X167313199Y-98013156D01*
X167314377Y-98015753D01*
X167317267Y-98021343D01*
X167320901Y-98027774D01*
X167325080Y-98034699D01*
X167327342Y-98038230D01*
X167329693Y-98041742D01*
X167332103Y-98045204D01*
X167334558Y-98048560D01*
X167337044Y-98051782D01*
X167339540Y-98054806D01*
X167342011Y-98057594D01*
X167344473Y-98060118D01*
X167346872Y-98062319D01*
X167349214Y-98064130D01*
X167350907Y-98065261D01*
X167352704Y-98066261D01*
X167354587Y-98067172D01*
X167356567Y-98067995D01*
X167358592Y-98068740D01*
X167360685Y-98069414D01*
X167362839Y-98070001D01*
X167365008Y-98070528D01*
X167367206Y-98071007D01*
X167369418Y-98071444D01*
X167373820Y-98072157D01*
X167378120Y-98072741D01*
X167382228Y-98073258D01*
X167383214Y-98073348D01*
X167384176Y-98073396D01*
X167385102Y-98073390D01*
X167386013Y-98073340D01*
X167386911Y-98073238D01*
X167387787Y-98073099D01*
X167388629Y-98072920D01*
X167389475Y-98072690D01*
X167390294Y-98072442D01*
X167391104Y-98072161D01*
X167392686Y-98071472D01*
X167394217Y-98070692D01*
X167395752Y-98069817D01*
X167397257Y-98068861D01*
X167398770Y-98067857D01*
X167401815Y-98065753D01*
X167403387Y-98064685D01*
X167404989Y-98063637D01*
X167406659Y-98062623D01*
X167408394Y-98061655D01*
X167409457Y-98061064D01*
X167410478Y-98060420D01*
X167411478Y-98059714D01*
X167412448Y-98058952D01*
X167413401Y-98058134D01*
X167414333Y-98057292D01*
X167416121Y-98055432D01*
X167417834Y-98053415D01*
X167419460Y-98051280D01*
X167421025Y-98049033D01*
X167422525Y-98046692D01*
X167423954Y-98044291D01*
X167425313Y-98041851D01*
X167427896Y-98036953D01*
X167432577Y-98027696D01*
X167433645Y-98025521D01*
X167434639Y-98023264D01*
X167435555Y-98020938D01*
X167436419Y-98018540D01*
X167437200Y-98016103D01*
X167437946Y-98013616D01*
X167438616Y-98011096D01*
X167439264Y-98008533D01*
X167440384Y-98003397D01*
X167441360Y-97998291D01*
X167442185Y-97993270D01*
X167442943Y-97988417D01*
X167443465Y-97984272D01*
X167443816Y-97980122D01*
X167443999Y-97975966D01*
X167444046Y-97971794D01*
X167443944Y-97967622D01*
X167443712Y-97963465D01*
X167443365Y-97959292D01*
X167442932Y-97955114D01*
X167441803Y-97946778D01*
X167440446Y-97938462D01*
X167437414Y-97921924D01*
X167436590Y-97917804D01*
X167435668Y-97913704D01*
X167434630Y-97909606D01*
X167433521Y-97905511D01*
X167431093Y-97897357D01*
X167428492Y-97889212D01*
X167423257Y-97872952D01*
X167420850Y-97864828D01*
X167419734Y-97860766D01*
X167418707Y-97856698D01*
X167416840Y-97849313D01*
X167414811Y-97841954D01*
X167412665Y-97834649D01*
X167410427Y-97827362D01*
X167405830Y-97812811D01*
X167401345Y-97798238D01*
X167399275Y-97790889D01*
X167397353Y-97783494D01*
X167393588Y-97768665D01*
X167391572Y-97761305D01*
X167389360Y-97754016D01*
X167388151Y-97750412D01*
X167386860Y-97746823D01*
X167385478Y-97743283D01*
X167383994Y-97739774D01*
X167378119Y-97726741D01*
X167375013Y-97720102D01*
X167371819Y-97713470D01*
X167368522Y-97706891D01*
X167365122Y-97700421D01*
X167361631Y-97694105D01*
X167358063Y-97688003D01*
X167354214Y-97681753D01*
X167350028Y-97675116D01*
X167341339Y-97661694D01*
X167333362Y-97649788D01*
X167330080Y-97645039D01*
X167327515Y-97641449D01*
X167325954Y-97639401D01*
X167323804Y-97636748D01*
X167321225Y-97633777D01*
X167319834Y-97632223D01*
X167318395Y-97630688D01*
X167316944Y-97629203D01*
X167315491Y-97627794D01*
X167314072Y-97626490D01*
X167312680Y-97625332D01*
X167311355Y-97624343D01*
X167310728Y-97623932D01*
X167310124Y-97623572D01*
X167309550Y-97623278D01*
X167309005Y-97623033D01*
X167308496Y-97622870D01*
X167308012Y-97622781D01*
X167307543Y-97622772D01*
X167307056Y-97622838D01*
X167306527Y-97623002D01*
X167305988Y-97623232D01*
X167305422Y-97623534D01*
X167304845Y-97623902D01*
X167304257Y-97624336D01*
X167303659Y-97624826D01*
X167302426Y-97625947D01*
X167301167Y-97627247D01*
X167299917Y-97628681D01*
X167298668Y-97630206D01*
X167297450Y-97631807D01*
X167296291Y-97633408D01*
X167295182Y-97634996D01*
X167294149Y-97636520D01*
X167292394Y-97639258D01*
X167291179Y-97641310D01*
X167290516Y-97642638D01*
X167289926Y-97644212D01*
X167289417Y-97645977D01*
X167288945Y-97647946D01*
X167288528Y-97650075D01*
X167288159Y-97652400D01*
X167287496Y-97657479D01*
X167285062Y-97681658D01*
X167283854Y-97706093D01*
X167283527Y-97709152D01*
X167283326Y-97711931D01*
X167283187Y-97714452D01*
X167283151Y-97716784D01*
X166795855Y-97716784D01*
X166797388Y-97708554D01*
X166802502Y-97684266D01*
X166808087Y-97660388D01*
X166814068Y-97636763D01*
X166820431Y-97613231D01*
X166827107Y-97589619D01*
X166841281Y-97541485D01*
X166851897Y-97503521D01*
X166854740Y-97493861D01*
X166857776Y-97484361D01*
X166861042Y-97475136D01*
X166862784Y-97470670D01*
X166864599Y-97466295D01*
X166865605Y-97463649D01*
X166866638Y-97460426D01*
X166868787Y-97452609D01*
X166871218Y-97443482D01*
X166874026Y-97433725D01*
X166875607Y-97428806D01*
X166877333Y-97423988D01*
X166879230Y-97419336D01*
X166881301Y-97414942D01*
X166883555Y-97410886D01*
X166884764Y-97409012D01*
X166886033Y-97407234D01*
X166887345Y-97405607D01*
X166888726Y-97404105D01*
X166890154Y-97402748D01*
X166891662Y-97401560D01*
X166892941Y-97400678D01*
X166894227Y-97399871D01*
X166895543Y-97399186D01*
X166896832Y-97398575D01*
X166898136Y-97398049D01*
X166899438Y-97397618D01*
X166900737Y-97397248D01*
X166902051Y-97396957D01*
X166903347Y-97396739D01*
X166904659Y-97396582D01*
X166907259Y-97396429D01*
X166909867Y-97396496D01*
D10*
X102059423Y-88882821D02*
X102060816Y-91082821D01*
X102061322Y-91882820D02*
X102062715Y-94082820D01*
X102063222Y-94882820D02*
X102064615Y-97082819D01*
X102065121Y-97882819D02*
X102066514Y-100082819D01*
X102067021Y-100882819D02*
X102068414Y-103082818D01*
X102068920Y-103882818D02*
X102069012Y-104029039D01*
X143631943Y-62413443D02*
X141431943Y-62414835D01*
X140631944Y-62415341D02*
X138431944Y-62416733D01*
X137631944Y-62417240D02*
X135431945Y-62418632D01*
X134631945Y-62419138D02*
X132431945Y-62420530D01*
X131631945Y-62421036D02*
X129431946Y-62422428D01*
X128631946Y-62422934D02*
X128485732Y-62423026D01*
X121397240Y-81769849D02*
X121398634Y-83969849D01*
X121399141Y-84769848D02*
X121400535Y-86969848D01*
X121401041Y-87769848D02*
X121402435Y-89969847D01*
X121402942Y-90769847D02*
X121404336Y-92969847D01*
X121404843Y-93769847D02*
X121406237Y-95969846D01*
X121406744Y-96769846D02*
X121408138Y-98969846D01*
X121408644Y-99769845D02*
X121410038Y-101969845D01*
X121410545Y-102769845D02*
X121411939Y-104969844D01*
X121412446Y-105769844D02*
X121413840Y-107969844D01*
X121414347Y-108769844D02*
X121415740Y-110969843D01*
X150744918Y-81751260D02*
X148544918Y-81752653D01*
X147744919Y-81753160D02*
X145544919Y-81754554D01*
X144744919Y-81755060D02*
X142544920Y-81756454D01*
X141744920Y-81756961D02*
X139544920Y-81758354D01*
X138744920Y-81758861D02*
X136544921Y-81760254D01*
X135744921Y-81760761D02*
X133544921Y-81762155D01*
X132744922Y-81762661D02*
X130544922Y-81764055D01*
X129744922Y-81764562D02*
X127544923Y-81765955D01*
X126744923Y-81766462D02*
X124544923Y-81767855D01*
X123744923Y-81768362D02*
X121544924Y-81769755D01*
D12*
G04 #@! TO.C,CN1*
X144405000Y-105609000D02*
X145365000Y-105609000D01*
X144405000Y-107619000D02*
X144405000Y-106879000D01*
X144405000Y-107619000D02*
X144405000Y-110159000D01*
X145365000Y-105609000D02*
X145384999Y-105609000D01*
X145375000Y-110159000D02*
X144475000Y-110159000D01*
X145384999Y-105609000D02*
X145995000Y-106099000D01*
X145995000Y-106099000D02*
X146885000Y-106099000D01*
X146575000Y-110159000D02*
X146435000Y-110159000D01*
X146885000Y-106099000D02*
X147015000Y-106099000D01*
X147015000Y-106099000D02*
X147645000Y-105589000D01*
X147645000Y-105589000D02*
X148535000Y-105589000D01*
X148605000Y-107619000D02*
X148605000Y-106879000D01*
X148605000Y-107619000D02*
X148605000Y-110159000D01*
X148605000Y-110159000D02*
X147635000Y-110159000D01*
X148285000Y-109779000D02*
G75*
G02*
X148025000Y-109779000I-130000J0D01*
G01*
X148025000Y-109779000D02*
G75*
G02*
X148285000Y-109779000I130000J0D01*
G01*
D11*
G04 #@! TO.C,LED43*
X137100000Y-137450000D02*
G75*
G02*
X137000000Y-137450000I-50000J0D01*
G01*
X137000000Y-137450000D02*
G75*
G02*
X137100000Y-137450000I50000J0D01*
G01*
G04 #@! TD*
%LPC*%
D13*
G04 #@! TO.C,TP7*
X142770000Y-138680000D03*
G04 #@! TD*
D14*
G04 #@! TO.C,NT1*
X122700000Y-93390000D03*
G04 #@! TD*
D15*
G04 #@! TO.C,USB2*
X133283998Y-106550001D03*
D16*
X134784000Y-106450000D03*
D17*
X135284000Y-106300002D03*
X135784003Y-106300000D03*
X136284001Y-106300000D03*
X136783997Y-106300002D03*
D16*
X137284000Y-106450000D03*
D15*
X138783999Y-106550001D03*
X138784009Y-110600000D03*
D16*
X137284009Y-110700000D03*
D17*
X136784009Y-110850000D03*
X136284009Y-110850000D03*
X135784009Y-110850000D03*
X135284009Y-110850000D03*
D16*
X134784009Y-110700000D03*
D15*
X133284009Y-110600000D03*
G04 #@! TD*
D13*
G04 #@! TO.C,TP8*
X129450000Y-138830000D03*
G04 #@! TD*
D18*
G04 #@! TO.C,TP6*
X136310000Y-145450000D03*
G04 #@! TD*
D19*
G04 #@! TO.C,CN1*
X147105000Y-110019000D03*
X145905000Y-110019000D03*
D20*
X148255000Y-106239000D03*
X144755000Y-106239000D03*
G04 #@! TD*
D21*
G04 #@! TO.C,LED43*
X136620000Y-137880000D03*
X136620000Y-138720000D03*
X135780000Y-137880000D03*
X135780000Y-138720000D03*
G04 #@! TD*
D22*
G04 #@! TO.C,U5*
X143007067Y-86758488D03*
G04 #@! TD*
D23*
G04 #@! TO.C,SW1*
X148850000Y-94200000D03*
X148850000Y-97200000D03*
G04 #@! TD*
%LPD*%
M02*
